<svg width="1920" height="197" viewBox="0 0 1920 197" fill="none" xmlns="http://www.w3.org/2000/svg">
<path d="M1884.03 20.257C1882.13 27.7706 1865.8 24.2643 1856.78 23.6632C1842.86 22.5611 1849.87 22.7615 1861.79 26.0675C1816.71 27.971 1774.64 26.4683 1736.57 17.6522C1735.66 15.2478 1734.76 12.7433 1732.86 11.1403C1728.05 12.7433 1722.94 13.9454 1718.03 15.348C1717.93 13.3443 1719.33 13.144 1719.33 11.2405C1713.62 12.4427 1701.4 7.13302 1697.39 12.9436C1693.79 9.93814 1693.69 3.827 1689.88 1.02188C1689.28 4.52828 1694.39 8.73595 1689.28 10.3389C1681.97 8.93631 1668.04 10.2387 1653.92 10.0383C1653.11 8.13485 1654.32 4.52828 1651.11 4.62846C1650.31 6.43175 1653.81 9.13668 1650.81 9.83796C1644.5 11.2405 1648.3 3.827 1647.1 3.32609C1644.1 4.92901 1640.89 6.1312 1637.49 6.83248C1635.58 6.63211 1636.98 3.32609 1634.58 3.52645C1631.47 5.73047 1629.67 4.52828 1624.16 3.827C1609.53 12.1422 1593.81 10.1385 1576.57 0.621155C1576.47 2.32426 1576.37 4.02736 1576.27 5.83065C1566.56 10.5392 1555.64 5.42992 1548.12 7.03284C1545.02 7.73412 1544.52 14.3462 1540.71 9.63759C1540.11 14.1458 1535.3 13.8453 1530.09 13.0438C1528.69 11.3407 1528.49 8.53558 1526.28 7.63394C1526.38 10.0383 1525.78 11.5411 1523.98 11.6412C1523.68 9.63759 1519.27 11.2405 1521.17 7.33339C1517.67 9.63759 1512.56 10.1385 1511.36 14.9473C1513.86 18.654 1519.77 19.2551 1520.07 24.8653C1519.07 24.7652 1518.77 25.6668 1517.97 25.767C1510.45 21.9601 1499.93 20.7579 1497.03 12.9436C1479 10.94 1459.56 9.73777 1442.23 8.23503C1442.63 6.83248 1443.83 6.33156 1443.53 4.12755C1439.22 5.32974 1440.43 1.62298 1437.42 1.62298C1435.42 1.5228 1435.92 4.32791 1433.11 3.42627C1431.91 7.03284 1435.42 8.93631 1431.71 9.53741C1431.21 4.42809 1428.4 1.32243 1422.99 0.621155C1424 5.73047 1422.09 4.72864 1425.8 6.03102C1425.1 10.8398 1420.59 11.1403 1417.98 13.8453C1418.09 12.7433 1417.78 11.6412 1417.18 10.6394C1401.45 10.94 1381.92 12.4427 1364.09 11.2405C1363.19 12.2423 1358.88 14.7469 1361.68 16.2496C1364.59 13.0438 1384.62 13.2442 1378.11 18.3535C1384.62 20.5575 1386.03 11.1403 1390.84 15.0475C1387.53 21.7597 1375.41 21.359 1367.69 18.654C1368.19 21.4591 1365.39 20.4573 1364.39 21.5593C1361.98 17.3517 1361.68 19.3553 1357.17 20.0566C1358.48 17.2515 1358.18 12.6431 1356.87 9.63759C1350.66 14.0456 1341.95 12.7433 1331.63 14.1458C1331.73 19.6559 1337.74 15.4482 1336.44 20.6577C1333.13 20.9582 1333.93 16.9509 1331.33 19.2551C1330.93 21.1586 1332.33 21.6595 1332.13 23.4628C1319.1 22.0602 1302.17 32.2789 1293.96 18.8544C1294.36 20.9582 1288.05 20.858 1291.65 22.8617C1291.96 20.3571 1295.06 22.8617 1294.66 24.0639C1288.25 28.4719 1278.43 26.0675 1274.02 21.6595C1276.03 21.5593 1276.23 22.9619 1278.13 22.9619C1278.23 20.257 1273.42 16.7506 1271.12 19.3553C1273.92 20.5575 1269.41 22.0602 1271.92 23.563C1269.31 23.2624 1266.91 23.0621 1266.61 25.2661C1267.71 27.4701 1266.21 28.8727 1268.31 31.5776C1264.61 35.2843 1253.59 34.2825 1255.59 30.3754C1254.19 31.277 1249.58 30.7761 1249.78 29.3736C1251.38 28.5721 1251.48 26.1677 1252.18 24.3644C1250.68 23.7633 1249.68 22.6613 1248.18 22.0602C1247.07 25.2661 1249.58 25.3663 1249.88 27.3699C1244.07 29.6741 1234.25 33.1805 1226.84 29.9747C1231.14 29.3736 1234.95 28.0712 1235.65 23.2624C1232.45 23.3626 1230.84 20.5575 1228.44 22.7615C1226.44 24.4646 1229.14 25.4664 1228.04 28.9728C1226.54 30.5758 1222.13 28.9728 1220.63 30.5758L1220.83 27.4701L1215.62 27.1695C1214.21 34.0821 1202.39 32.6796 1196.88 27.971C1196.38 27.5703 1196.28 22.6613 1193.88 25.6668C1195.18 26.1677 1195.98 27.4701 1195.68 28.8727C1191.77 32.6796 1187.16 25.1659 1184.26 28.0712C1188.27 30.0748 1182.56 34.5831 1186.76 37.5885C1189.17 32.7798 1199.09 36.7871 1195.68 43.3991C1188.27 44.401 1183.36 41.5958 1178.95 45.4028C1181.45 47.8072 1189.47 45.3026 1190.17 49.3099L1186.06 49.0094C1184.86 52.7161 1190.67 50.2116 1189.97 53.4174C1185.96 52.2152 1183.56 51.7143 1180.55 53.8181C1179.25 50.4119 1174.44 50.0112 1172.74 47.0057C1172.84 48.7088 1166.23 48.3081 1166.53 46.605C1170.43 46.0039 1178.15 47.707 1177.45 38.9911C1175.64 37.3882 1170.63 38.4902 1169.33 36.3863L1169.83 29.1732C1166.53 28.5721 1164.52 26.6686 1162.82 24.5648C1160.62 29.5739 1155.11 30.6759 1158.91 36.7871C1149.6 37.7889 1141.28 40.6942 1136.17 34.2825C1137.77 34.1823 1139.98 34.8836 1140.38 33.4811C1137.27 26.869 1130.36 26.869 1124.15 27.1695C1123.25 31.1769 1127.86 30.3754 1126.75 34.5831C1118.74 35.3845 1117.24 30.5758 1109.32 31.277C1108.22 27.7706 1108.02 28.9728 1107.62 25.9674C1105.82 26.4683 1101.61 24.2643 1101.31 26.5685C1105.11 27.4701 1108.02 29.073 1109.22 32.2789C1104.81 33.1805 1100.21 32.7798 1096.9 30.3754C1098.4 29.1732 1098.8 25.3663 1096.2 25.1659C1096.5 33.982 1086.98 31.1769 1087.88 24.5648C1087.28 29.4738 1077.26 32.88 1074.16 27.7706C1066.84 28.7725 1069.15 32.1787 1061.13 35.1842C1062.84 37.4884 1064.24 36.2862 1065.14 37.4884C1062.04 44.0002 1048.11 36.0858 1048.11 43.5995C1050.52 43.5995 1053.02 43.3991 1055.42 43.0986C1055.82 47.6068 1059.63 46.2043 1061.33 47.6068C1062.24 53.1169 1056.83 51.3136 1052.82 51.2134C1052.82 54.2189 1052.52 56.8236 1049.41 56.2225C1054.62 50.1114 1047.01 44.3008 1042.1 41.1951C1040.8 46.605 1048.41 44.2006 1046.71 49.8108C1043.8 48.809 1043.9 51.1132 1041.5 50.5121C1040.9 46.2043 1037.99 43.7999 1036.99 39.7926C1030.98 40.3937 1026.67 33.5812 1023.47 39.8927C1023.97 42.5977 1027.17 36.3864 1027.57 41.1951C1025.17 43.3991 1024.07 42.6979 1021.36 40.7944C1021.36 43.9 1013.85 44.0002 1017.76 47.8072C1019.66 46.3044 1021.46 48.4083 1025.07 47.2061C1025.07 49.8108 1024.87 52.2152 1022.66 52.2152C1017.86 52.5158 1016.35 49.911 1011.34 50.4119C1012.35 48.6086 1014.45 48.0075 1013.85 44.3008C1005.43 44.0002 1005.53 44.9019 999.522 41.2953C999.021 44.1004 995.014 42.8982 994.112 45.1022C997.018 46.605 1000.02 48.1077 1001.12 48.7088C999.522 51.5139 995.515 49.2097 993.511 53.4174C991.107 51.6141 988.903 49.7106 984.394 49.7106C984.194 52.5158 983.994 55.2207 983.894 58.0258C974.376 67.443 961.152 59.9293 950.833 54.7198C950.232 56.6232 947.728 56.4229 948.429 59.7289C955.442 60.5304 953.238 69.5468 949.631 72.2517C952.637 72.2517 954.841 72.8528 955.742 74.7563C954.039 78.4631 951.535 74.2554 949.331 77.4612C949.431 80.8674 952.536 82.8711 948.83 84.6744C938.21 85.1753 937.709 76.8601 929.695 75.0569C931.097 69.5468 926.188 69.647 927.29 64.5377C928.593 63.4357 930.997 63.636 933.602 63.9366C931.598 60.8309 927.791 59.4284 932.099 55.5212C928.192 56.0222 930.096 51.4137 927.19 51.013C926.789 53.9183 923.584 53.6178 922.682 55.922C924.485 57.024 926.188 58.126 925.487 61.3318C924.485 64.9384 920.578 64.0368 918.174 61.8327C919.276 58.6269 922.381 57.7253 922.882 53.8181C921.079 53.4174 917.673 54.5194 918.875 51.5139C915.669 50.8127 916.371 54.5194 912.564 53.217C912.664 51.8145 912.764 50.4119 912.864 49.1096C909.658 50.4119 907.354 48.2079 904.749 46.5048C904.95 41.1951 908.256 46.5048 909.157 42.5977C907.855 39.9929 900.642 39.0913 897.837 40.7944C901.844 48.1077 898.438 61.9329 897.135 66.7417C898.538 65.3391 900.842 65.0386 903.447 65.0386C904.148 63.5359 902.646 59.6287 904.849 59.9293C914.467 60.5304 917.372 70.2481 923.884 70.5486C920.478 72.5523 920.177 76.3592 921.079 80.7673C917.873 83.4722 911.862 82.8711 907.354 83.9731C905.25 75.5578 894.03 80.7673 894.731 70.6488C889.421 70.0477 885.013 68.7453 882.609 65.6397C881.807 68.4448 877.5 67.2426 875.195 68.2444C873.893 67.1424 872.19 66.341 871.288 64.8382C874.594 60.9311 873.092 57.2243 870.988 53.4174C872.991 50.9128 878.702 52.5158 879.603 48.809C874.895 47.0057 870.286 44.1004 866.179 46.9055C864.877 42.1969 855.359 41.5958 856.862 46.3044C859.968 42.5977 859.367 52.115 856.561 51.5139C859.367 54.5194 862.072 51.3136 864.877 51.013C864.476 52.9165 865.878 53.4174 865.678 55.2207C864.776 58.2262 861.671 60.0295 865.177 62.4338C865.478 61.6324 865.378 60.4302 866.379 60.4302C867.782 60.6306 870.186 64.738 868.183 64.738C865.177 63.2353 857.363 64.5377 855.459 68.0441C856.962 68.7453 860.869 67.1424 860.569 69.4466V72.5523C857.062 72.5523 855.459 74.8565 851.152 74.055C849.749 66.4411 858.265 64.4375 852.053 60.6306C850.951 61.9329 850.851 64.4375 848.647 64.5377C847.044 53.8181 847.445 42.9984 849.749 32.379C846.343 29.5739 844.339 36.0858 841.133 36.9875C840.131 40.0931 843.838 39.1915 842.836 42.2971C841.534 43.7999 838.428 43.1988 838.428 46.2043C839.731 46.4046 840.833 46.7052 840.332 48.4083C838.328 55.5212 835.523 50.6123 830.714 51.9147C834.121 57.4247 841.634 59.228 842.135 67.2426C835.924 68.4448 840.432 60.2298 834.221 61.5322L833.82 67.7435C836.224 69.5468 841.434 68.8455 840.733 73.3537C839.33 74.6561 836.124 74.055 833.419 73.8547C833.419 71.9512 832.918 70.3483 831.616 69.5468C829.111 70.749 825.605 70.8492 823.1 72.0514C821.698 75.8583 826.907 73.9548 825.906 77.4612C824.503 77.3611 824.804 79.2645 823.702 79.3647C822.199 78.4631 809.876 78.1625 814.885 71.4503C812.581 69.2463 808.173 68.8455 805.869 66.6415C810.077 62.9347 812.281 56.8236 816.188 52.8163C811.479 50.1114 813.583 41.4957 807.672 39.7926C810.778 45.2024 804.166 42.2971 804.066 46.8053C805.969 47.9074 807.773 43.9001 808.173 47.1059C806.47 48.5085 803.465 48.5084 800.76 48.7088C800.159 51.2134 802.463 51.1132 801.461 53.9183C798.456 52.6159 799.457 56.1223 799.157 57.9256C796.051 57.3245 793.647 60.33 793.046 56.5231C792.745 53.217 796.051 54.0185 796.552 51.5139C793.847 51.9147 792.845 50.8127 793.647 48.2079C790.541 47.2061 791.443 50.9128 788.337 49.911C788.437 48.9092 787.536 48.6086 787.435 47.8072C789.84 45.1022 789.74 43.0986 788.037 39.492C790.741 37.4884 790.341 38.1896 794.348 38.8909L794.448 36.7871C794.248 35.9856 794.548 34.7834 793.547 34.6833C789.94 36.7871 786.033 38.6906 779.822 37.8891C779.621 36.4865 778.519 35.7853 779.02 33.6814C773.61 33.982 773.009 35.4847 767.599 33.982C771.206 36.2862 769.002 43.7999 774.111 44.8017C772.108 48.0075 769.202 45.8035 765.796 45.3026C771.306 50.3117 780.924 49.7106 786.033 53.9183C785.031 55.4211 784.23 57.1242 781.725 56.7234C778.118 56.9238 778.82 53.4174 776.816 52.2152C772.408 57.3245 782.026 56.9238 783.629 59.9293C783.528 58.5267 784.53 57.2243 785.933 56.9238C785.833 59.7289 784.029 58.9274 785.632 61.0313C793.947 60.0295 798.055 61.0313 803.565 57.024C802.463 59.6287 807.171 63.8364 803.865 67.443C800.058 67.8437 801.06 64.1369 797.854 63.9366C796.352 68.1442 792.845 70.0477 790.942 73.8547C791.443 75.3574 794.949 74.2554 794.949 76.1589C791.142 81.6689 780.423 79.0642 779.321 76.1589C778.018 72.3519 788.337 69.647 787.435 63.2353C784.129 61.9329 780.523 61.7326 777.117 62.534C777.217 65.6397 780.022 66.4411 778.619 70.9494C767.499 68.7453 759.284 71.1497 755.076 65.239C756.579 65.0386 756.379 63.0349 757.381 62.2335C756.078 59.1278 749.266 60.9311 749.466 56.5231C745.259 55.8218 744.557 59.0276 741.953 60.1296C751.37 64.0368 733.637 79.8656 733.136 66.8419C729.63 66.6415 729.33 69.9475 725.723 69.4466C725.122 63.2353 717.508 68.7453 715.705 64.6379C716.105 63.2353 717.308 62.7344 717.007 60.6306C714.002 60.33 713.3 58.0258 712.098 56.1223C708.892 55.4211 709.093 59.5285 706.889 56.8236C706.989 54.0185 708.792 54.82 707.189 52.7161C700.277 51.2134 697.972 51.1132 691.561 52.7161C692.562 48.9092 690.058 48.1077 691.06 44.401C688.455 44.3008 687.754 46.1041 685.85 44.1004C687.854 47.3063 689.056 50.3117 688.355 52.6159C685.149 50.9128 679.238 51.4137 678.337 47.8072C678.036 51.9147 672.927 50.5121 668.819 50.3117C668.218 47.8072 668.318 45.2024 670.322 43.0986C671.825 44.1004 674.229 44.2006 673.127 47.4064C679.238 47.3063 684.548 46.3044 685.049 39.8927C677.335 39.9929 667.316 37.4884 661.205 39.2916C662.007 43.4993 665.714 42.9984 660.805 45.503C661.706 48.0075 666.315 47.1059 667.817 49.1096C667.216 52.5158 662.207 50.8127 662.207 55.0203C668.519 55.3209 672.526 53.6178 674.429 58.9274C673.027 59.5285 672.326 61.0313 672.125 62.9348C676.533 62.1333 676.133 55.6214 680.941 55.2207C683.847 56.9238 684.748 60.4302 685.55 63.8364L688.655 64.0368C690.359 64.1369 689.457 61.2316 690.96 61.0313C690.559 63.636 698.573 67.1424 696.971 64.5377C694.366 64.5377 693.865 62.7344 693.063 61.1315C698.473 58.126 702.38 63.636 702.982 68.0441C699.876 67.5432 698.774 71.0495 696.67 68.6452C696.169 75.9585 700.277 79.1643 706.288 80.6671C708.892 79.4649 704.584 77.4612 707.59 76.5596C710.295 78.8638 713.501 74.2554 718.109 75.157C719.111 71.3501 714.703 72.3519 713.2 70.6488C711.096 72.3519 714.402 73.9548 710.896 74.6561C710.395 72.8528 705.987 74.4557 705.887 72.2517C712.699 69.0459 716.206 67.9439 721.716 69.1461C721.515 71.1497 718.81 70.2481 719.411 73.1534C722.717 75.2572 723.018 75.6579 725.222 79.7654C720.914 80.5669 718.911 82.1698 715.905 79.1643C714.302 84.7746 721.014 83.1716 720.513 87.78C712.799 84.2737 708.992 94.2919 704.885 87.78C706.388 87.6799 705.987 85.3757 706.187 83.6726C703.082 82.6707 702.38 84.474 699.876 84.2737C699.575 85.6762 699.876 87.1789 700.677 88.4813C696.57 89.5833 693.665 91.3866 690.158 89.8839C695.969 89.383 692.362 85.0751 697.772 84.1735C692.763 84.6744 690.559 82.6707 687.553 81.3684C684.949 82.5705 689.256 84.6744 686.251 85.4758C684.548 79.0642 673.127 83.9731 666.916 80.066C666.715 81.2682 666.916 82.9713 665.714 83.0715C664.311 80.7673 658.601 82.1698 657.599 79.4649C658.1 74.8565 667.717 80.5669 668.218 75.9585C664.211 75.157 662.708 77.7618 661.005 74.4558C663.309 71.0495 664.311 64.1369 661.806 62.0331C660.604 62.9348 661.205 65.84 658.5 64.9384C658.601 63.4357 663.109 61.9329 658.701 61.8327C658.801 63.8364 654.493 65.3391 652.99 68.7453C650.486 67.2426 648.482 71.5505 647.781 68.3446C649.384 67.2426 652.089 67.3428 653.191 65.5395C649.083 65.5395 648.182 62.8346 643.974 62.8346C642.972 65.0386 641.67 66.8419 638.564 66.6415C638.464 64.6379 639.866 64.4375 639.866 62.6342C634.457 60.5304 635.158 65.4393 633.355 67.3428C633.655 65.6397 627.043 65.239 627.143 66.9421C631.351 69.7472 637.462 66.5413 640.568 68.8455C640.868 71.7508 634.957 67.6433 635.258 70.5486C636.661 70.4484 636.16 76.6598 638.263 72.8528C636.36 69.0459 645.877 72.8528 649.885 70.5486C648.983 73.3537 651.788 72.7526 651.688 74.8565C645.677 74.5559 650.185 79.6653 645.176 79.6653C642.672 79.8656 646.078 74.9567 642.271 76.3592C641.97 77.5614 642.271 79.2645 641.069 79.3647C640.468 77.2609 638.464 76.4594 636.06 75.8583C636.06 78.4631 637.863 79.2645 634.757 79.9658C631.551 81.168 630.249 79.0641 625.44 79.3647C621.834 75.9585 627.444 72.4521 623.837 71.9512C625.039 74.2554 617.325 77.1607 621.333 79.0642C619.129 79.5651 618.227 81.4685 615.021 80.7673C615.622 75.2572 612.216 76.9603 608.109 75.0569C609.611 74.5559 608.509 71.0495 610.413 71.0495C617.726 71.3501 620.431 69.4466 624.138 67.8437C621.934 63.9366 619.129 60.5304 616.524 56.9238C617.426 57.6251 620.231 59.6287 619.73 56.1223C613.919 56.4229 614.22 55.2207 613.719 52.6159C611.515 55.922 607.207 50.4119 605.404 53.1169C604.702 57.024 610.713 54.9201 611.314 57.6251C607.307 58.126 605.303 63.1351 600.294 67.2426C598.09 67.7435 593.582 65.5395 592.981 67.7435C589.775 70.5486 576.451 66.6415 591.578 72.8528C589.875 76.9603 593.181 76.6598 594.384 78.2627C593.081 78.3629 593.682 79.3647 594.283 80.3665C591.879 80.5669 589.875 82.0696 588.072 79.9658C589.775 84.8747 586.97 81.3684 585.768 82.9713C588.473 84.474 589.575 87.3793 591.578 89.5833C593.682 82.7709 600.595 93.5906 602.198 86.0769C600.495 85.4758 597.088 81.5687 599.393 80.6671C600.895 82.27 602.498 83.7727 604.302 85.1753C609.611 80.3665 614.12 83.8729 620.832 86.2773C619.129 87.6799 617.325 88.9822 615.422 90.0842C613.418 87.9804 612.817 84.5742 607.407 85.3757C606.906 90.1844 612.416 84.0733 611.314 89.7837C608.209 90.2846 604.903 90.5852 603.801 93.4905C605.003 93.6908 606.706 93.4905 606.806 94.6926C602.098 94.7928 602.699 97.6981 603.2 101.705C599.393 100.303 600.094 104.11 596.888 103.409C598.691 99.6016 594.183 101.205 595.185 98.0989C597.589 98.2992 598.391 96.4959 601.497 97.4978C603.4 93.2901 596.187 96.9968 596.487 94.0916C597.89 94.3921 599.292 93.5906 599.693 92.1881C596.688 92.2883 596.287 89.9841 594.684 88.7819C593.382 93.791 585.167 90.8857 582.261 87.9804C582.462 85.9768 585.167 86.8784 584.566 83.9731C580.959 80.9676 574.547 86.3775 572.043 84.1735C573.546 81.5687 575.649 81.2682 578.354 82.4704C575.549 78.3629 575.95 80.4667 578.755 76.259C574.547 74.7563 573.646 76.0587 570.34 77.7618C571.041 79.4649 575.449 77.862 574.247 81.168C571.642 78.5632 568.236 82.6707 566.032 79.5651C568.937 75.8583 570.039 70.0477 577.954 72.0514C578.855 69.3464 581.159 68.3446 582.462 66.1406C578.855 65.7399 580.659 60.5304 576.651 60.5304C573.746 60.1296 574.046 63.4357 571.241 63.3355C571.742 61.5322 571.442 59.6287 570.54 58.126C565.631 58.8273 562.225 54.4192 561.123 59.5285C561.023 61.2316 563.928 60.33 564.128 61.8327C561.724 63.5358 558.618 64.4375 555.613 65.4393C559.32 66.7417 561.524 69.3464 564.629 71.2499C563.127 71.6506 561.924 72.7526 561.323 74.1552C565.13 75.5578 563.227 70.3483 566.733 71.3501C567.134 79.8656 555.112 77.862 550.904 74.4558C554.11 71.0495 558.418 75.6579 559.52 69.8474C554.811 72.4521 551.305 64.6379 547.198 66.9421C546.797 68.9457 548.5 69.0459 549.101 70.1479C546.697 69.3464 541.487 70.9494 540.886 68.545C540.986 67.1424 542.789 67.7435 543.09 66.6415C541.788 65.1388 537.58 66.341 539.183 62.3337C535.276 64.1369 535.075 59.5285 531.168 58.6269C529.064 63.0349 523.254 58.2262 519.747 57.8254C518.145 59.3282 517.343 61.7326 516.241 63.8364C521.751 64.1369 521.25 64.6379 519.547 60.9311C525.258 60.4302 523.454 67.6433 521.05 69.3464C514.237 64.5377 504.219 71.4503 499.511 64.8382C501.715 61.3318 499.01 61.3318 497.908 58.5267C499.711 57.2243 501.514 56.0222 505.321 56.9238C498.909 49.0094 506.824 45.8035 502.516 36.9875C497.507 37.8891 496.004 42.8982 490.694 43.4993C489.392 47.2061 495.303 44.7015 494.602 47.9074C492.899 51.1132 488.39 52.2152 488.891 54.82C486.186 55.0203 483.181 54.9201 481.478 56.4229C487.889 56.3227 479.474 60.1296 484.183 62.8346C486.186 60.2298 490.995 63.3355 490.194 66.341C488.791 66.2408 489.092 68.1442 487.99 68.2444C477.07 66.8419 469.957 67.8437 463.445 62.4338C461.341 64.2371 463.144 65.0386 463.144 67.6433C454.829 69.0459 441.805 68.6452 446.113 58.2262C442.907 55.2207 436.997 59.9293 433.791 56.3227C437.898 53.8181 438.299 45.503 445.612 49.8108C446.414 42.8982 440.303 48.0075 438.8 43.0986C440.202 41.5959 443.408 36.4865 441.405 34.9838C438.8 37.7889 437.197 31.5776 435.494 30.4756C434.793 34.0822 430.785 32.1787 432.989 36.5867C429.583 36.6869 424.374 38.39 421.568 35.7853C421.568 42.2971 435.494 36.5867 433.39 44.9019C431.487 44.5011 430.986 45.9037 429.182 45.7033C427.579 45.503 428.581 42.9984 426.177 43.3991C427.579 47.2061 422.671 43.7999 422.871 46.3044C426.177 47.9074 431.487 47.9074 431.887 52.115C427.68 52.5158 425.576 55.3209 422.27 56.6232C413.153 49.8108 408.344 67.0422 399.829 65.5395C400.63 65.6397 401.833 65.84 401.833 66.7417C395.621 62.0331 384.501 69.647 386.705 59.5285C384.701 59.6287 384.501 58.2262 382.597 58.2262C382.297 59.7289 382.698 62.0331 381.295 62.3337C380.093 62.1333 378.29 62.3337 378.29 61.1315C380.794 59.0276 378.189 57.1242 378.791 53.9183L371.577 53.4174C369.674 57.6251 376.887 53.9183 376.586 56.8236C374.182 60.8309 369.974 59.6287 363.863 61.1315C364.264 58.2262 360.958 58.5267 361.058 55.7216L339.92 55.1205C340.02 53.7179 340.12 52.3154 340.22 51.013C335.612 50.6123 334.61 54.319 329.701 53.4174C329.701 56.0222 329.601 58.4265 327.297 58.4265C326.295 56.3227 321.686 59.3282 317.98 57.8254C319.282 52.5158 313.171 53.6178 314.473 48.2079C316.377 44.401 321.185 44.0002 322.388 39.3918C320.584 38.9911 317.178 40.0931 318.38 37.0876C322.288 36.3864 323.991 41.8964 325.594 37.5885C320.985 35.084 314.774 33.982 311.969 38.7907C308.362 38.1896 312.269 35.9856 310.065 35.5849C308.262 36.4865 307.761 38.8909 305.657 39.492C305.357 37.4884 302.852 37.3882 303.954 34.1823C307.16 34.8836 306.459 31.1769 310.266 32.5794C310.967 29.3736 308.663 28.7725 309.765 25.2661C306.859 25.2661 302.752 23.8635 302.351 26.869C303.253 28.0712 306.158 27.4701 305.256 30.175C297.743 31.4774 300.448 37.8891 295.138 40.9948C294.537 43.7999 300.848 40.594 300.147 43.3991C299.346 45.4028 297.242 46.0039 294.737 46.2043C293.435 39.3918 289.027 51.013 287.524 44.7015C286.522 47.1059 290.83 49.4101 288.225 49.911L274.801 49.0094C275.803 45.9037 274 45.2024 274.2 42.6979C277.907 41.3955 279.109 37.0876 282.014 34.8836C284.819 37.3882 289.127 38.4902 292.032 40.7944C294.136 35.084 278.307 32.379 282.715 24.5648C279.81 25.0657 274.601 22.6613 273.298 24.9655C276.103 26.0675 277.806 28.2716 276.905 32.4792C276.103 34.4829 270.794 31.3772 271.495 35.2843C271.695 37.0876 275.202 34.1823 274.4 38.5904C269.792 37.7889 267.488 34.8836 264.382 32.6796C263.981 34.4829 265.083 37.8891 262.078 36.6869C261.076 39.7926 264.783 38.8909 263.781 41.9966C261.677 43.0986 255.065 42.2971 253.462 41.2953C253.262 36.5867 256.067 35.2843 259.172 34.3827C254.063 29.8745 247.251 32.5794 240.839 28.9728C244.746 28.0712 242.843 24.7652 244.345 22.9619C249.154 22.6613 250.657 25.2661 255.666 24.7652C252.16 18.654 247.952 23.2624 240.238 21.6595C235.83 33.4811 222.305 24.3644 212.788 28.1714C213.389 24.665 211.285 23.6632 210.083 21.7597C209.682 23.6632 211.085 24.1641 210.884 25.9674C205.675 26.869 200.265 28.4719 196.358 24.9655C190.447 29.1732 179.627 22.1604 171.613 21.2588C169.609 21.0584 167.505 22.9619 165.301 22.9619C153.981 22.6613 138.553 15.5484 130.237 19.5557C128.234 17.7524 125.829 16.5502 123.225 15.9491C114.909 21.4591 104.991 14.8471 97.3775 13.144C90.6653 18.2533 84.9549 6.53193 74.6361 11.6412C72.933 10.5392 71.1297 9.43723 71.9311 6.23138C62.9147 11.1403 48.5886 7.03284 39.3718 10.0383C27.6504 4.62846 13.3243 3.02554 0 1.5228V46.5048C2.50457 47.0057 4.50822 47.9074 5.61023 49.3099C6.01096 49.8108 4.90895 52.0148 5.40986 52.4156C7.61388 54.2189 13.4245 53.5176 12.2223 59.1278C10.3188 58.7271 9.8179 60.1296 8.01461 59.9293C9.61753 53.4174 2.50457 55.8218 0 54.6196V152.498V175.54V227.435H1920V152.498V16.0493C1909.68 19.3553 1898.76 22.0602 1884.03 20.257Z" fill="#272346"/>
</svg>
