<?xml version="1.0" standalone="no"?>
<!DOCTYPE svg PUBLIC "-//W3C//DTD SVG 1.1//EN" "http://www.w3.org/Graphics/SVG/1.1/DTD/svg11.dtd" >
<svg xmlns="http://www.w3.org/2000/svg" xmlns:xlink="http://www.w3.org/1999/xlink" version="1.1">
<metadata>
Created by FontForge 20161116 at Wed Jan 25 20:55:59 2017
 By Jimmy Wärting
Modern and elegant sans serif font.
</metadata>
<defs>
<font id="UniNeueLight" horiz-adv-x="548" >
  <font-face 
    font-family="Uni Neue Light"
    font-weight="300"
    font-stretch="normal"
    units-per-em="1000"
    panose-1="0 0 0 0 0 0 0 0 0 0"
    ascent="750"
    descent="-250"
    x-height="514"
    cap-height="715"
    bbox="-217.966 -229 1038 968"
    underline-thickness="50"
    underline-position="-125"
    stemh="29"
    stemv="32"
    unicode-range="U+0020-25CA"
  />
<missing-glyph horiz-adv-x="237" 
 />
    <glyph glyph-name=".notdef" horiz-adv-x="237" 
 />
    <glyph glyph-name="Aacute" unicode="&#xc1;" horiz-adv-x="589" 
d="M39 0h-23c-4 0 -6 3 -5 7l263 703c1 3 4 5 6 5h28c3 0 6 -2 7 -5l263 -703c1 -4 -1 -7 -5 -7h-23c-3 0 -5 2 -7 5l-81 219h-335l-82 -219c-1 -3 -3 -5 -6 -5zM293 674l-155 -419h313l-155 419h-3zM407 927l-116 -134c-2 -3 -5 -4 -8 -4h-18c-5 0 -6 4 -3 8l107 133
c1 3 5 4 7 4h28c5 0 7 -3 3 -7z" />
    <glyph glyph-name="Abreve" unicode="&#x102;" horiz-adv-x="589" 
d="M39 0h-23c-4 0 -6 3 -5 7l263 703c1 3 4 5 6 5h28c3 0 6 -2 7 -5l263 -703c1 -4 -1 -7 -5 -7h-23c-3 0 -5 2 -7 5l-81 219h-335l-82 -219c-1 -3 -3 -5 -6 -5zM293 674l-155 -419h313l-155 419h-3zM446 929c-10 -81 -64 -142 -152 -142c-87 0 -141 61 -151 142
c-1 3 2 6 6 7l15 4c4 1 7 -1 8 -5c8 -71 49 -120 122 -120s115 49 123 120c1 4 4 6 7 5l16 -4c4 -1 6 -4 6 -7z" />
    <glyph glyph-name="Acircumflex" unicode="&#xc2;" horiz-adv-x="589" 
d="M39 0h-23c-4 0 -6 3 -5 7l263 703c1 3 4 5 6 5h28c3 0 6 -2 7 -5l263 -703c1 -4 -1 -7 -5 -7h-23c-3 0 -5 2 -7 5l-81 219h-335l-82 -219c-1 -3 -3 -5 -6 -5zM293 674l-155 -419h313l-155 419h-3zM170 789h-21c-5 0 -7 4 -4 8l130 133c2 3 6 4 8 4h22c2 0 5 -1 8 -4
l129 -133c4 -4 2 -8 -3 -8h-21c-3 0 -6 1 -9 4l-115 114l-115 -114c-3 -3 -6 -4 -9 -4z" />
    <glyph glyph-name="Adieresis" unicode="&#xc4;" horiz-adv-x="589" 
d="M39 0h-23c-4 0 -6 3 -5 7l263 703c1 3 4 5 6 5h28c3 0 6 -2 7 -5l263 -703c1 -4 -1 -7 -5 -7h-23c-3 0 -5 2 -7 5l-81 219h-335l-82 -219c-1 -3 -3 -5 -6 -5zM293 674l-155 -419h313l-155 419h-3zM220 861c0 -16 -10 -26 -26 -26c-15 0 -25 10 -25 26c0 15 10 25 25 25
c16 0 26 -10 26 -25zM419 861c0 -16 -10 -26 -26 -26c-15 0 -25 10 -25 26c0 15 10 25 25 25c16 0 26 -10 26 -25z" />
    <glyph glyph-name="Agrave" unicode="&#xc0;" horiz-adv-x="589" 
d="M39 0h-23c-4 0 -6 3 -5 7l263 703c1 3 4 5 6 5h28c3 0 6 -2 7 -5l263 -703c1 -4 -1 -7 -5 -7h-23c-3 0 -5 2 -7 5l-81 219h-335l-82 -219c-1 -3 -3 -5 -6 -5zM293 674l-155 -419h313l-155 419h-3zM302 793l-116 134c-4 4 -2 7 3 7h28c2 0 6 -1 7 -4l107 -133
c3 -4 2 -8 -3 -8h-18c-3 0 -6 1 -8 4z" />
    <glyph glyph-name="Amacron" unicode="&#x100;" horiz-adv-x="589" 
d="M39 0h-23c-4 0 -6 3 -5 7l263 703c1 3 4 5 6 5h28c3 0 6 -2 7 -5l263 -703c1 -4 -1 -7 -5 -7h-23c-3 0 -5 2 -7 5l-81 219h-335l-82 -219c-1 -3 -3 -5 -6 -5zM293 674l-155 -419h313l-155 419h-3zM420 840h-254c-3 0 -6 3 -6 7v16c0 4 3 7 6 7h254c4 0 6 -3 6 -7v-16
c0 -4 -2 -7 -6 -7z" />
    <glyph glyph-name="Aogonek" unicode="&#x104;" horiz-adv-x="589" 
d="M600 -181c-21 -11 -45 -17 -74 -17c-44 0 -74 27 -74 69c0 51 45 105 93 133c-5 9 -8 17 -12 27l-71 193h-335l-82 -219c-1 -3 -3 -5 -6 -5h-23c-4 0 -6 3 -5 7l263 703c1 3 4 5 6 5h28c3 0 6 -2 7 -5l263 -704c1 -3 1 -7 -3 -8c-61 -36 -92 -85 -92 -118
c0 -34 16 -48 46 -48c22 0 42 3 60 13c4 2 7 1 8 -3l5 -15c1 -3 1 -6 -2 -8zM293 674c-51 -140 -103 -279 -155 -419h313c-52 140 -104 279 -155 419h-3z" />
    <glyph glyph-name="Aring" unicode="&#xc5;" horiz-adv-x="589" 
d="M39 0h-23c-4 0 -6 3 -5 7l263 703c1 3 4 5 6 5h28c3 0 6 -2 7 -5l263 -703c1 -4 -1 -7 -5 -7h-23c-3 0 -5 2 -7 5l-81 219h-335l-82 -219c-1 -3 -3 -5 -6 -5zM293 674l-155 -419h313l-155 419h-3zM391 864c0 -58 -39 -92 -97 -92c-57 0 -97 35 -97 92c0 58 40 93 97 93
c58 0 97 -35 97 -93zM222 864c0 -43 27 -68 73 -68c45 0 71 25 71 68s-26 69 -71 69c-46 0 -73 -26 -73 -69z" />
    <glyph glyph-name="Atilde" unicode="&#xc3;" horiz-adv-x="589" 
d="M39 0h-23c-4 0 -6 3 -5 7l263 703c1 3 4 5 6 5h28c3 0 6 -2 7 -5l263 -703c1 -4 -1 -7 -5 -7h-23c-3 0 -5 2 -7 5l-81 219h-335l-82 -219c-1 -3 -3 -5 -6 -5zM293 674l-155 -419h313l-155 419h-3zM430 875c-9 -27 -36 -53 -68 -53c-23 0 -46 11 -68 23s-42 23 -65 23
s-37 -16 -47 -36c-2 -4 -5 -4 -8 -3l-12 6c-4 2 -5 5 -4 9c10 26 35 51 70 51c26 0 48 -13 70 -24c21 -10 40 -22 61 -22c22 0 36 14 47 37c2 3 4 4 8 3l12 -6c3 -2 5 -4 4 -8z" />
    <glyph glyph-name="AE" unicode="&#xc6;" horiz-adv-x="832" 
d="M446 348v-317h325c4 0 7 -2 7 -6v-19c0 -4 -3 -6 -7 -6h-352c-4 0 -6 2 -6 6v215h-254l-117 -216c-1 -3 -4 -5 -7 -5h-23c-5 0 -7 3 -5 8l384 703c2 3 5 4 8 4h366c4 0 6 -2 6 -6v-19c0 -4 -2 -6 -6 -6h-319v-305h303c4 0 6 -2 6 -6v-19c0 -4 -2 -6 -6 -6h-303zM414 686
l-238 -434h237v399z" />
    <glyph glyph-name="B" unicode="B" horiz-adv-x="620" 
d="M535 542c0 -81 -46 -137 -119 -158c96 -19 148 -86 148 -186c0 -125 -87 -198 -247 -198h-213c-4 0 -7 2 -7 6v703c0 4 3 6 7 6h213c162 0 218 -80 218 -173zM131 31h186c143 0 214 62 214 167c0 102 -60 170 -196 170h-204v-337zM501 542c0 74 -41 142 -184 142h-186
v-285h204c104 0 166 52 166 143z" />
    <glyph glyph-name="C" unicode="C" horiz-adv-x="574" 
d="M539 72c-64 -57 -144 -82 -224 -82c-155 0 -242 97 -242 237v261c0 140 88 237 240 237c75 0 149 -24 211 -74c4 -2 4 -6 1 -8l-11 -16c-2 -3 -5 -4 -9 -1c-55 44 -123 68 -193 68c-137 0 -206 -87 -206 -206v-261c0 -119 70 -206 208 -206c76 0 148 26 207 77
c3 3 6 2 8 -1l12 -16c2 -3 2 -6 -2 -9z" />
    <glyph glyph-name="Cacute" unicode="&#x106;" horiz-adv-x="574" 
d="M539 72c-64 -57 -144 -82 -224 -82c-155 0 -242 97 -242 237v261c0 140 88 237 240 237c75 0 149 -24 211 -74c4 -2 4 -6 1 -8l-11 -16c-2 -3 -5 -4 -9 -1c-55 44 -123 68 -193 68c-137 0 -206 -87 -206 -206v-261c0 -119 70 -206 208 -206c76 0 148 26 207 77
c3 3 6 2 8 -1l12 -16c2 -3 2 -6 -2 -9zM429 927l-116 -134c-2 -3 -5 -4 -8 -4h-18c-5 0 -6 4 -3 8l107 133c1 3 5 4 7 4h28c5 0 7 -3 3 -7z" />
    <glyph glyph-name="Ccaron" unicode="&#x10c;" horiz-adv-x="574" 
d="M539 72c-64 -57 -144 -82 -224 -82c-155 0 -242 97 -242 237v261c0 140 88 237 240 237c75 0 149 -24 211 -74c4 -2 4 -6 1 -8l-11 -16c-2 -3 -5 -4 -9 -1c-55 44 -123 68 -193 68c-137 0 -206 -87 -206 -206v-261c0 -119 70 -206 208 -206c76 0 148 26 207 77
c3 3 6 2 8 -1l12 -16c2 -3 2 -6 -2 -9zM171 934h21c3 0 6 -1 9 -4l115 -114l115 114c3 3 6 4 9 4h21c5 0 7 -4 3 -8l-129 -133c-3 -3 -6 -4 -8 -4h-22c-2 0 -6 1 -8 4l-130 133c-3 4 -1 8 4 8z" />
    <glyph glyph-name="Ccedilla" unicode="&#xc7;" horiz-adv-x="574" 
d="M400 -127c0 -46 -38 -77 -100 -77c-19 0 -41 3 -60 10c-4 1 -5 5 -5 7v12c0 4 2 6 7 5c20 -7 40 -10 57 -10c47 0 72 20 73 54c0 32 -23 47 -86 48c-3 0 -6 1 -7 4c-1 1 -2 5 -1 7l22 57c-146 6 -227 101 -227 237v261c0 140 88 237 240 237c75 0 149 -24 211 -74
c4 -2 4 -6 1 -8l-11 -16c-2 -3 -5 -4 -9 -1c-55 44 -123 68 -193 68c-137 0 -206 -87 -206 -206v-261c0 -119 70 -206 208 -206c76 0 148 26 207 77c3 3 6 2 8 -1l12 -16c2 -3 2 -6 -2 -9c-61 -54 -136 -79 -212 -82l-20 -50c57 0 93 -22 93 -67z" />
    <glyph glyph-name="Cdotaccent" unicode="&#x10a;" horiz-adv-x="574" 
d="M539 72c-64 -57 -144 -82 -224 -82c-155 0 -242 97 -242 237v261c0 140 88 237 240 237c75 0 149 -24 211 -74c4 -2 4 -6 1 -8l-11 -16c-2 -3 -5 -4 -9 -1c-55 44 -123 68 -193 68c-137 0 -206 -87 -206 -206v-261c0 -119 70 -206 208 -206c76 0 148 26 207 77
c3 3 6 2 8 -1l12 -16c2 -3 2 -6 -2 -9zM344 860c0 -17 -12 -29 -28 -29c-17 0 -29 12 -29 29c0 16 12 28 29 28c16 0 28 -12 28 -28z" />
    <glyph glyph-name="D" unicode="D" horiz-adv-x="658" 
d="M341 0h-237c-4 0 -7 2 -7 6v703c0 4 3 6 7 6h237c150 0 245 -94 245 -249v-220c0 -156 -96 -246 -245 -246zM131 684v-652h209c132 0 212 76 212 214v220c0 138 -80 218 -212 218h-209z" />
    <glyph glyph-name="Eth" unicode="&#xd0;" horiz-adv-x="680" 
d="M125 715h237c151 0 246 -94 246 -249v-220c0 -156 -96 -246 -246 -246h-237c-4 0 -6 2 -6 6v355h-100c-4 0 -6 3 -6 6v16c0 3 2 6 6 6h100v320c0 4 2 6 6 6zM362 32c131 0 212 76 212 214v220c0 138 -81 218 -212 218h-209v-295h199c4 0 6 -3 6 -6v-16c0 -3 -2 -6 -6 -6
h-199v-329h209z" />
    <glyph glyph-name="Dcaron" unicode="&#x10e;" horiz-adv-x="658" 
d="M341 0h-237c-4 0 -7 2 -7 6v703c0 4 3 6 7 6h237c150 0 245 -94 245 -249v-220c0 -156 -96 -246 -245 -246zM131 684v-652h209c132 0 212 76 212 214v220c0 138 -80 218 -212 218h-209zM176 934h21c3 0 6 -1 9 -4l115 -114l115 114c3 3 6 4 9 4h21c5 0 7 -4 3 -8
l-129 -133c-3 -3 -6 -4 -8 -4h-22c-2 0 -6 1 -8 4l-130 133c-3 4 -1 8 4 8z" />
    <glyph glyph-name="Dcroat" unicode="&#x110;" horiz-adv-x="680" 
d="M125 715h237c151 0 246 -94 246 -249v-220c0 -156 -96 -246 -246 -246h-237c-4 0 -6 2 -6 6v355h-100c-4 0 -6 3 -6 6v16c0 3 2 6 6 6h100v320c0 4 2 6 6 6zM362 32c131 0 212 76 212 214v220c0 138 -81 218 -212 218h-209v-295h199c4 0 6 -3 6 -6v-16c0 -3 -2 -6 -6 -6
h-199v-329h209z" />
    <glyph glyph-name="E" unicode="E" horiz-adv-x="563" 
d="M131 349v-318h378c4 0 6 -2 6 -6v-19c0 -4 -2 -6 -6 -6h-405c-4 0 -7 2 -7 6v703c0 4 3 6 7 6h390c4 0 6 -2 6 -6v-19c0 -4 -2 -6 -6 -6h-363v-304h342c4 0 7 -2 7 -6v-19c0 -4 -3 -6 -7 -6h-342z" />
    <glyph glyph-name="Eacute" unicode="&#xc9;" horiz-adv-x="563" 
d="M131 349v-318h378c4 0 6 -2 6 -6v-19c0 -4 -2 -6 -6 -6h-405c-4 0 -7 2 -7 6v703c0 4 3 6 7 6h390c4 0 6 -2 6 -6v-19c0 -4 -2 -6 -6 -6h-363v-304h342c4 0 7 -2 7 -6v-19c0 -4 -3 -6 -7 -6h-342zM408 927l-116 -134c-2 -3 -5 -4 -8 -4h-18c-5 0 -6 4 -3 8l107 133
c1 3 5 4 7 4h28c5 0 7 -3 3 -7z" />
    <glyph glyph-name="Ecaron" unicode="&#x11a;" horiz-adv-x="563" 
d="M131 349v-318h378c4 0 6 -2 6 -6v-19c0 -4 -2 -6 -6 -6h-405c-4 0 -7 2 -7 6v703c0 4 3 6 7 6h390c4 0 6 -2 6 -6v-19c0 -4 -2 -6 -6 -6h-363v-304h342c4 0 7 -2 7 -6v-19c0 -4 -3 -6 -7 -6h-342zM159 934h21c3 0 6 -1 9 -4l115 -114l115 114c3 3 6 4 9 4h21
c5 0 7 -4 3 -8l-129 -133c-3 -3 -6 -4 -8 -4h-22c-2 0 -6 1 -8 4l-130 133c-3 4 -1 8 4 8z" />
    <glyph glyph-name="Ecircumflex" unicode="&#xca;" horiz-adv-x="563" 
d="M131 349v-318h378c4 0 6 -2 6 -6v-19c0 -4 -2 -6 -6 -6h-405c-4 0 -7 2 -7 6v703c0 4 3 6 7 6h390c4 0 6 -2 6 -6v-19c0 -4 -2 -6 -6 -6h-363v-304h342c4 0 7 -2 7 -6v-19c0 -4 -3 -6 -7 -6h-342zM182 789h-21c-5 0 -7 4 -4 8l130 133c2 3 6 4 8 4h22c2 0 5 -1 8 -4
l129 -133c4 -4 2 -8 -3 -8h-21c-3 0 -6 1 -9 4l-115 114l-115 -114c-3 -3 -6 -4 -9 -4z" />
    <glyph glyph-name="Edieresis" unicode="&#xcb;" horiz-adv-x="563" 
d="M131 349v-318h378c4 0 6 -2 6 -6v-19c0 -4 -2 -6 -6 -6h-405c-4 0 -7 2 -7 6v703c0 4 3 6 7 6h390c4 0 6 -2 6 -6v-19c0 -4 -2 -6 -6 -6h-363v-304h342c4 0 7 -2 7 -6v-19c0 -4 -3 -6 -7 -6h-342zM234 861c0 -16 -10 -26 -26 -26c-15 0 -25 10 -25 26c0 15 10 25 25 25
c16 0 26 -10 26 -25zM433 861c0 -16 -10 -26 -26 -26c-15 0 -25 10 -25 26c0 15 10 25 25 25c16 0 26 -10 26 -25z" />
    <glyph glyph-name="Edotaccent" unicode="&#x116;" horiz-adv-x="563" 
d="M131 349v-318h378c4 0 6 -2 6 -6v-19c0 -4 -2 -6 -6 -6h-405c-4 0 -7 2 -7 6v703c0 4 3 6 7 6h390c4 0 6 -2 6 -6v-19c0 -4 -2 -6 -6 -6h-363v-304h342c4 0 7 -2 7 -6v-19c0 -4 -3 -6 -7 -6h-342zM334 860c0 -17 -12 -29 -28 -29c-17 0 -29 12 -29 29c0 16 12 28 29 28
c16 0 28 -12 28 -28z" />
    <glyph glyph-name="Egrave" unicode="&#xc8;" horiz-adv-x="563" 
d="M131 349v-318h378c4 0 6 -2 6 -6v-19c0 -4 -2 -6 -6 -6h-405c-4 0 -7 2 -7 6v703c0 4 3 6 7 6h390c4 0 6 -2 6 -6v-19c0 -4 -2 -6 -6 -6h-363v-304h342c4 0 7 -2 7 -6v-19c0 -4 -3 -6 -7 -6h-342zM313 793l-116 134c-4 4 -2 7 3 7h28c2 0 6 -1 7 -4l107 -133
c3 -4 2 -8 -3 -8h-18c-3 0 -6 1 -8 4z" />
    <glyph glyph-name="Emacron" unicode="&#x112;" horiz-adv-x="563" 
d="M131 349v-318h378c4 0 6 -2 6 -6v-19c0 -4 -2 -6 -6 -6h-405c-4 0 -7 2 -7 6v703c0 4 3 6 7 6h390c4 0 6 -2 6 -6v-19c0 -4 -2 -6 -6 -6h-363v-304h342c4 0 7 -2 7 -6v-19c0 -4 -3 -6 -7 -6h-342zM431 840h-254c-3 0 -6 3 -6 7v16c0 4 3 7 6 7h254c4 0 6 -3 6 -7v-16
c0 -4 -2 -7 -6 -7z" />
    <glyph glyph-name="Eogonek" unicode="&#x118;" horiz-adv-x="563" 
d="M470 -169c23 0 35 4 55 14c5 2 7 1 8 -3l5 -15c2 -4 1 -5 -3 -8c-15 -9 -44 -17 -70 -17c-47 0 -76 26 -76 69c0 51 41 103 91 129h-376c-4 0 -7 2 -7 6v703c0 4 3 6 7 6h390c4 0 6 -2 6 -6v-19c0 -4 -2 -6 -6 -6h-363v-304h342c4 0 7 -2 7 -6v-19c0 -4 -3 -6 -7 -6h-342
v-318h378c4 0 6 -2 6 -6v-20c0 -3 -2 -6 -4 -7c-37 -25 -92 -64 -92 -121c0 -32 17 -46 51 -46z" />
    <glyph glyph-name="F" unicode="F" horiz-adv-x="545" 
d="M511 709v-19c0 -4 -3 -6 -7 -6h-373v-315h345c4 0 6 -3 6 -6v-19c0 -4 -2 -6 -6 -6h-345v-332c0 -4 -3 -6 -6 -6h-21c-4 0 -7 2 -7 6v703c0 4 3 6 7 6h400c4 0 7 -2 7 -6z" />
    <glyph glyph-name="G" unicode="G" horiz-adv-x="634" 
d="M564 86c-67 -64 -153 -96 -243 -96c-158 0 -249 98 -249 238v260c0 141 90 237 246 237c81 0 164 -26 230 -78c4 -2 4 -6 1 -9l-11 -15c-2 -3 -5 -4 -9 -2c-58 47 -135 73 -211 73c-140 0 -213 -85 -213 -206v-260c0 -121 74 -206 216 -206c79 0 154 27 213 80v236h-210
c-4 0 -6 2 -6 6v19c0 4 2 6 6 6h237c3 0 6 -2 6 -6v-269c0 -3 -1 -6 -3 -8z" />
    <glyph glyph-name="Gbreve" unicode="&#x11e;" horiz-adv-x="634" 
d="M564 86c-67 -64 -153 -96 -243 -96c-158 0 -249 98 -249 238v260c0 141 90 237 246 237c81 0 164 -26 230 -78c4 -2 4 -6 1 -9l-11 -15c-2 -3 -5 -4 -9 -2c-58 47 -135 73 -211 73c-140 0 -213 -85 -213 -206v-260c0 -121 74 -206 216 -206c79 0 154 27 213 80v236h-210
c-4 0 -6 2 -6 6v19c0 4 2 6 6 6h237c3 0 6 -2 6 -6v-269c0 -3 -1 -6 -3 -8zM469 929c-10 -81 -64 -142 -152 -142c-87 0 -141 61 -151 142c-1 3 2 6 6 7l15 4c4 1 7 -1 8 -5c8 -71 49 -120 122 -120s115 49 123 120c1 4 4 6 7 5l16 -4c4 -1 6 -4 6 -7z" />
    <glyph glyph-name="uni0122" unicode="&#x122;" horiz-adv-x="634" 
d="M564 86c-67 -64 -153 -96 -243 -96c-158 0 -249 98 -249 238v260c0 141 90 237 246 237c81 0 164 -26 230 -78c4 -2 4 -6 1 -9l-11 -15c-2 -3 -5 -4 -9 -2c-58 47 -135 73 -211 73c-140 0 -213 -85 -213 -206v-260c0 -121 74 -206 216 -206c79 0 154 27 213 80v236h-210
c-4 0 -6 2 -6 6v19c0 4 2 6 6 6h237c3 0 6 -2 6 -6v-269c0 -3 -1 -6 -3 -8zM288 -226h-12c-4 0 -7 2 -6 7l41 140c1 3 2 5 6 5h22c4 0 6 -2 5 -7l-50 -140c-1 -3 -3 -5 -6 -5z" />
    <glyph glyph-name="Gdotaccent" unicode="&#x120;" horiz-adv-x="634" 
d="M564 86c-67 -64 -153 -96 -243 -96c-158 0 -249 98 -249 238v260c0 141 90 237 246 237c81 0 164 -26 230 -78c4 -2 4 -6 1 -9l-11 -15c-2 -3 -5 -4 -9 -2c-58 47 -135 73 -211 73c-140 0 -213 -85 -213 -206v-260c0 -121 74 -206 216 -206c79 0 154 27 213 80v236h-210
c-4 0 -6 2 -6 6v19c0 4 2 6 6 6h237c3 0 6 -2 6 -6v-269c0 -3 -1 -6 -3 -8zM345 860c0 -17 -12 -29 -28 -29c-17 0 -29 12 -29 29c0 16 12 28 29 28c16 0 28 -12 28 -28z" />
    <glyph glyph-name="H" unicode="H" horiz-adv-x="673" 
d="M542 380v329c0 4 3 6 7 6h20c4 0 7 -2 7 -6v-703c0 -4 -3 -6 -7 -6h-20c-4 0 -7 2 -7 6v343h-411v-343c0 -4 -3 -6 -6 -6h-21c-4 0 -7 2 -7 6v703c0 4 3 6 7 6h21c3 0 6 -2 6 -6v-329h411z" />
    <glyph glyph-name="Hbar" unicode="&#x126;" horiz-adv-x="677" 
d="M578 591h69c4 0 6 -3 6 -7v-15c0 -4 -2 -6 -6 -6h-69v-557c0 -4 -3 -6 -7 -6h-21c-3 0 -6 2 -6 6v343h-411v-343c0 -4 -3 -6 -6 -6h-21c-4 0 -7 2 -7 6v557h-68c-4 0 -6 2 -6 6v15c0 4 2 7 6 7h68v118c0 4 3 6 7 6h21c3 0 6 -2 6 -6v-118h411v118c0 4 3 6 6 6h21
c4 0 7 -2 7 -6v-118zM133 380h411v183h-411v-183z" />
    <glyph glyph-name="I" unicode="I" horiz-adv-x="228" 
d="M131 709v-703c0 -4 -3 -6 -6 -6h-21c-4 0 -7 2 -7 6v703c0 4 3 6 7 6h21c3 0 6 -2 6 -6z" />
    <glyph glyph-name="IJ" unicode="&#x132;" horiz-adv-x="733" 
d="M131 709v-703c0 -4 -3 -6 -6 -6h-21c-4 0 -7 2 -7 6v703c0 4 3 6 7 6h21c3 0 6 -2 6 -6zM641 204c0 -144 -65 -214 -189 -214c-76 0 -133 30 -188 81c-3 2 -3 6 -1 9l11 15c2 4 5 4 9 1c51 -47 102 -74 169 -74c105 0 156 55 156 182v505c0 4 2 6 6 6h21c4 0 6 -2 6 -6
v-505z" />
    <glyph glyph-name="Iacute" unicode="&#xcd;" horiz-adv-x="228" 
d="M131 709v-703c0 -4 -3 -6 -6 -6h-21c-4 0 -7 2 -7 6v703c0 4 3 6 7 6h21c3 0 6 -2 6 -6zM228 927l-116 -134c-2 -3 -5 -4 -8 -4h-18c-5 0 -6 4 -3 8l107 133c1 3 5 4 7 4h28c5 0 7 -3 3 -7z" />
    <glyph glyph-name="Icircumflex" unicode="&#xce;" horiz-adv-x="228" 
d="M14 789h-20c-5 0 -7 4 -4 8l103 133c1 3 5 4 7 4h22c3 0 7 -1 8 -4l112 -133c3 -5 1 -8 -4 -8h-20c-3 0 -6 1 -8 4l-99 116l-90 -116c-1 -3 -5 -4 -7 -4zM130 709v-703c0 -4 -3 -6 -6 -6h-21c-4 0 -7 2 -7 6v703c0 4 3 6 7 6h21c3 0 6 -2 6 -6z" />
    <glyph glyph-name="Idieresis" unicode="&#xcf;" horiz-adv-x="227" 
d="M124 0h-21c-4 0 -6 2 -6 6v703c0 4 2 6 6 6h21c4 0 6 -2 6 -6v-703c0 -4 -2 -6 -6 -6zM58 861c0 -16 -11 -26 -26 -26s-25 10 -25 26c0 15 10 25 25 25s26 -10 26 -25zM221 861c0 -16 -10 -26 -26 -26c-15 0 -25 10 -25 26c0 15 10 25 25 25c16 0 26 -10 26 -25z" />
    <glyph glyph-name="Idotaccent" unicode="&#x130;" horiz-adv-x="228" 
d="M131 709v-703c0 -4 -3 -6 -6 -6h-21c-4 0 -7 2 -7 6v703c0 4 3 6 7 6h21c3 0 6 -2 6 -6zM143 860c0 -17 -12 -29 -28 -29c-17 0 -29 12 -29 29c0 16 12 28 29 28c16 0 28 -12 28 -28z" />
    <glyph glyph-name="Igrave" unicode="&#xcc;" horiz-adv-x="228" 
d="M131 709v-703c0 -4 -3 -6 -6 -6h-21c-4 0 -7 2 -7 6v703c0 4 3 6 7 6h21c3 0 6 -2 6 -6zM123 793l-116 134c-4 4 -2 7 3 7h28c2 0 6 -1 7 -4l107 -133c3 -4 2 -8 -3 -8h-18c-3 0 -6 1 -8 4z" />
    <glyph glyph-name="Imacron" unicode="&#x12a;" horiz-adv-x="228" 
d="M-7 854v17c0 3 2 6 6 6h230c4 0 6 -3 6 -6v-17c0 -4 -2 -6 -6 -6h-230c-4 0 -6 2 -6 6zM131 709v-703c0 -4 -3 -6 -6 -6h-21c-4 0 -7 2 -7 6v703c0 4 3 6 7 6h21c3 0 6 -2 6 -6z" />
    <glyph glyph-name="Iogonek" unicode="&#x12e;" horiz-adv-x="227" 
d="M118 -168c16 0 35 3 51 12c4 1 8 0 9 -4l5 -16c1 -3 0 -6 -3 -7c-19 -10 -41 -15 -65 -15c-47 0 -78 27 -78 77c0 43 26 90 61 123c-1 3 -1 6 -1 11v696c0 4 2 6 6 6h21c4 0 6 -2 6 -6v-704c0 -3 -1 -6 -4 -8c-37 -34 -58 -79 -58 -113s18 -52 50 -52z" />
    <glyph glyph-name="J" unicode="J" horiz-adv-x="490" 
d="M398 204c0 -144 -65 -214 -189 -214c-76 0 -133 30 -188 81c-3 2 -3 6 -1 9l11 15c2 4 5 4 9 1c51 -47 102 -74 169 -74c105 0 156 55 156 182v505c0 4 2 6 6 6h21c4 0 6 -2 6 -6v-505z" />
    <glyph glyph-name="K" unicode="K" horiz-adv-x="603" 
d="M125 0h-21c-4 0 -7 2 -7 6v703c0 4 3 6 7 6h21c3 0 6 -2 6 -6v-393l399 395c3 3 6 4 9 4h28c5 0 8 -4 4 -8l-318 -315l337 -384c4 -5 1 -8 -4 -8h-28c-3 0 -6 1 -8 4l-320 365l-99 -97v-266c0 -4 -3 -6 -6 -6z" />
    <glyph glyph-name="uni0136" unicode="&#x136;" horiz-adv-x="603" 
d="M125 0h-21c-4 0 -7 2 -7 6v703c0 4 3 6 7 6h21c3 0 6 -2 6 -6v-393l399 395c3 3 6 4 9 4h28c5 0 8 -4 4 -8l-318 -315l337 -384c4 -5 1 -8 -4 -8h-28c-3 0 -6 1 -8 4l-320 365l-99 -97v-266c0 -4 -3 -6 -6 -6zM292 -226h-12c-4 0 -7 2 -6 7l41 140c1 3 2 5 6 5h22
c4 0 6 -2 5 -7l-50 -140c-1 -3 -3 -5 -6 -5z" />
    <glyph glyph-name="L" unicode="L" horiz-adv-x="494" 
d="M475 0h-371c-4 0 -7 2 -7 6v703c0 4 3 6 7 6h21c4 0 6 -2 6 -6v-678h344c4 0 6 -2 6 -6v-19c0 -4 -2 -6 -6 -6z" />
    <glyph glyph-name="Lacute" unicode="&#x139;" horiz-adv-x="494" 
d="M474 0h-371c-4 0 -7 2 -7 6v703c0 4 3 6 7 6h21c4 0 6 -2 6 -6v-678h344c4 0 6 -2 6 -6v-19c0 -4 -2 -6 -6 -6zM235 927l-116 -134c-2 -3 -5 -4 -8 -4h-18c-5 0 -6 4 -3 8l107 133c1 3 5 4 7 4h28c5 0 7 -3 3 -7z" />
    <glyph glyph-name="Lcaron" unicode="&#x13d;" horiz-adv-x="494" 
d="M324 543h-14c-4 0 -7 3 -6 7l42 160c1 3 3 5 7 5h22c4 0 6 -3 5 -7l-50 -160c-1 -3 -2 -5 -6 -5zM475 0h-371c-4 0 -7 2 -7 6v703c0 4 3 6 7 6h21c4 0 6 -2 6 -6v-678h344c4 0 6 -2 6 -6v-19c0 -4 -2 -6 -6 -6z" />
    <glyph glyph-name="uni013B" unicode="&#x13b;" horiz-adv-x="494" 
d="M475 0h-371c-4 0 -7 2 -7 6v703c0 4 3 6 7 6h21c4 0 6 -2 6 -6v-678h344c4 0 6 -2 6 -6v-19c0 -4 -2 -6 -6 -6zM257 -226h-12c-4 0 -7 2 -6 7l41 140c1 3 2 5 6 5h22c4 0 6 -2 5 -7l-50 -140c-1 -3 -3 -5 -6 -5z" />
    <glyph glyph-name="Ldot" unicode="&#x13f;" horiz-adv-x="494" 
d="M475 0h-371c-4 0 -7 2 -7 6v703c0 4 3 6 7 6h21c4 0 6 -2 6 -6v-678h344c4 0 6 -2 6 -6v-19c0 -4 -2 -6 -6 -6zM328 356c0 -16 -11 -27 -27 -27s-27 11 -27 27s11 27 27 27s27 -11 27 -27z" />
    <glyph glyph-name="Lslash" unicode="&#x141;" horiz-adv-x="497" 
d="M134 324v-293h344c4 0 6 -2 6 -6v-19c0 -4 -2 -6 -6 -6h-371c-4 0 -6 2 -6 6v297l-77 -52c-5 -3 -8 -1 -8 4v21c0 3 1 5 4 7l81 54v372c0 4 2 6 6 6h21c4 0 6 -2 6 -6v-350l165 111c5 3 8 1 8 -4v-21c0 -3 -2 -5 -4 -7z" />
    <glyph glyph-name="M" unicode="M" horiz-adv-x="840" 
d="M125 0h-21c-4 0 -7 2 -7 6v703c0 4 3 6 7 6h28c3 0 6 -1 8 -4l280 -495l281 495c1 3 4 4 7 4h28c4 0 7 -2 7 -6v-703c0 -4 -3 -6 -7 -6h-21c-3 0 -6 2 -6 6l1 657v1l-274 -485c-1 -2 -5 -4 -8 -4h-16c-3 0 -6 2 -8 4l-274 485v-1l1 -657c0 -4 -3 -6 -6 -6z" />
    <glyph glyph-name="N" unicode="N" horiz-adv-x="699" 
d="M125 0h-21c-4 0 -7 2 -7 6v703c0 4 3 6 7 6h25c2 0 6 -1 7 -4l433 -659l-1 657c0 4 3 6 7 6h20c4 0 7 -2 7 -6v-703c0 -4 -3 -6 -7 -6h-24c-3 0 -7 1 -8 4l-433 657l1 -655c0 -4 -3 -6 -6 -6z" />
    <glyph glyph-name="Nacute" unicode="&#x143;" horiz-adv-x="699" 
d="M125 0h-21c-4 0 -7 2 -7 6v703c0 4 3 6 7 6h25c2 0 6 -1 7 -4l433 -659l-1 657c0 4 3 6 7 6h20c4 0 7 -2 7 -6v-703c0 -4 -3 -6 -7 -6h-24c-3 0 -7 1 -8 4l-433 657l1 -655c0 -4 -3 -6 -6 -6zM454 927l-116 -134c-2 -3 -5 -4 -8 -4h-18c-5 0 -6 4 -3 8l107 133
c1 3 5 4 7 4h28c5 0 7 -3 3 -7z" />
    <glyph glyph-name="Ncaron" unicode="&#x147;" horiz-adv-x="699" 
d="M125 0h-21c-4 0 -7 2 -7 6v703c0 4 3 6 7 6h25c2 0 6 -1 7 -4l433 -659l-1 657c0 4 3 6 7 6h20c4 0 7 -2 7 -6v-703c0 -4 -3 -6 -7 -6h-24c-3 0 -7 1 -8 4l-433 657l1 -655c0 -4 -3 -6 -6 -6zM205 934h21c3 0 6 -1 9 -4l115 -114l115 114c3 3 6 4 9 4h21c5 0 7 -4 3 -8
l-129 -133c-3 -3 -6 -4 -8 -4h-22c-2 0 -6 1 -8 4l-130 133c-3 4 -1 8 4 8z" />
    <glyph glyph-name="uni0145" unicode="&#x145;" horiz-adv-x="699" 
d="M125 0h-21c-4 0 -7 2 -7 6v703c0 4 3 6 7 6h25c2 0 6 -1 7 -4l433 -659l-1 657c0 4 3 6 7 6h20c4 0 7 -2 7 -6v-703c0 -4 -3 -6 -7 -6h-24c-3 0 -7 1 -8 4l-433 657l1 -655c0 -4 -3 -6 -6 -6zM322 -226h-12c-4 0 -7 2 -6 7l41 140c1 3 2 5 6 5h22c4 0 6 -2 5 -7l-50 -140
c-1 -3 -3 -5 -6 -5z" />
    <glyph glyph-name="Eng" unicode="&#x14a;" horiz-adv-x="699" 
d="M568 53v656c0 4 3 6 7 6h20c4 0 7 -2 7 -6v-717c0 -143 -35 -191 -125 -191c-13 0 -30 1 -44 3c-4 1 -6 3 -6 7v18c0 4 2 6 6 5c15 -1 31 -2 40 -2c76 0 96 45 96 164l-439 664l1 -654c0 -4 -3 -6 -6 -6h-21c-4 0 -7 2 -7 6v703c0 4 3 6 7 6h25c2 0 6 -1 7 -4z" />
    <glyph glyph-name="Ntilde" unicode="&#xd1;" horiz-adv-x="699" 
d="M125 0h-21c-4 0 -7 2 -7 6v703c0 4 3 6 7 6h25c2 0 6 -1 7 -4l433 -659l-1 657c0 4 3 6 7 6h20c4 0 7 -2 7 -6v-703c0 -4 -3 -6 -7 -6h-24c-3 0 -7 1 -8 4l-433 657l1 -655c0 -4 -3 -6 -6 -6zM486 875c-9 -27 -36 -53 -68 -53c-23 0 -46 11 -68 23s-42 23 -65 23
s-37 -16 -47 -36c-2 -4 -5 -4 -8 -3l-12 6c-4 2 -5 5 -4 9c10 26 35 51 70 51c26 0 48 -13 70 -24c21 -10 40 -22 61 -22c22 0 36 14 47 37c2 3 4 4 8 3l12 -6c3 -2 5 -4 4 -8z" />
    <glyph glyph-name="O" unicode="O" horiz-adv-x="665" 
d="M593 224c0 -135 -104 -234 -260 -234c-157 0 -261 99 -261 234v259c0 144 103 242 261 242c157 0 260 -98 260 -242v-259zM105 224c0 -117 89 -202 228 -202c138 0 227 85 227 202v259c0 126 -88 211 -227 211c-140 0 -228 -85 -228 -211v-259z" />
    <glyph glyph-name="Oacute" unicode="&#xd3;" horiz-adv-x="665" 
d="M593 224c0 -135 -104 -234 -260 -234c-157 0 -261 99 -261 234v259c0 144 103 242 261 242c157 0 260 -98 260 -242v-259zM105 224c0 -117 89 -202 228 -202c138 0 227 85 227 202v259c0 126 -88 211 -227 211c-140 0 -228 -85 -228 -211v-259zM446 927l-116 -134
c-2 -3 -5 -4 -8 -4h-18c-5 0 -6 4 -3 8l107 133c1 3 5 4 7 4h28c5 0 7 -3 3 -7z" />
    <glyph glyph-name="Ocircumflex" unicode="&#xd4;" horiz-adv-x="665" 
d="M593 224c0 -135 -104 -234 -260 -234c-157 0 -261 99 -261 234v259c0 144 103 242 261 242c157 0 260 -98 260 -242v-259zM105 224c0 -117 89 -202 228 -202c138 0 227 85 227 202v259c0 126 -88 211 -227 211c-140 0 -228 -85 -228 -211v-259zM209 789h-21
c-5 0 -7 4 -4 8l130 133c2 3 6 4 8 4h22c2 0 5 -1 8 -4l129 -133c4 -4 2 -8 -3 -8h-21c-3 0 -6 1 -9 4l-115 114l-115 -114c-3 -3 -6 -4 -9 -4z" />
    <glyph glyph-name="Odieresis" unicode="&#xd6;" horiz-adv-x="665" 
d="M593 224c0 -135 -104 -234 -260 -234c-157 0 -261 99 -261 234v259c0 144 103 242 261 242c157 0 260 -98 260 -242v-259zM105 224c0 -117 89 -202 228 -202c138 0 227 85 227 202v259c0 126 -88 211 -227 211c-140 0 -228 -85 -228 -211v-259zM259 861
c0 -16 -10 -26 -26 -26c-15 0 -25 10 -25 26c0 15 10 25 25 25c16 0 26 -10 26 -25zM458 861c0 -16 -10 -26 -26 -26c-15 0 -25 10 -25 26c0 15 10 25 25 25c16 0 26 -10 26 -25z" />
    <glyph glyph-name="Ograve" unicode="&#xd2;" horiz-adv-x="665" 
d="M593 224c0 -135 -104 -234 -260 -234c-157 0 -261 99 -261 234v259c0 144 103 242 261 242c157 0 260 -98 260 -242v-259zM105 224c0 -117 89 -202 228 -202c138 0 227 85 227 202v259c0 126 -88 211 -227 211c-140 0 -228 -85 -228 -211v-259zM341 793l-116 134
c-4 4 -2 7 3 7h28c2 0 6 -1 7 -4l107 -133c3 -4 2 -8 -3 -8h-18c-3 0 -6 1 -8 4z" />
    <glyph glyph-name="Ohungarumlaut" unicode="&#x150;" horiz-adv-x="665" 
d="M593 224c0 -135 -104 -234 -260 -234c-157 0 -261 99 -261 234v259c0 144 103 242 261 242c157 0 260 -98 260 -242v-259zM105 224c0 -117 89 -202 228 -202c138 0 227 85 227 202v259c0 126 -88 211 -227 211c-140 0 -228 -85 -228 -211v-259zM237 789h-18
c-5 0 -6 4 -4 8l108 133c1 3 5 4 7 4h27c5 0 7 -3 4 -7l-117 -134c-2 -3 -5 -4 -7 -4zM396 789h-17c-5 0 -7 4 -4 8l109 133c1 3 4 4 7 4h27c5 0 7 -3 4 -7l-118 -134c-2 -3 -5 -4 -8 -4z" />
    <glyph glyph-name="Omacron" unicode="&#x14c;" horiz-adv-x="665" 
d="M593 224c0 -135 -104 -234 -260 -234c-157 0 -261 99 -261 234v259c0 144 103 242 261 242c157 0 260 -98 260 -242v-259zM105 224c0 -117 89 -202 228 -202c138 0 227 85 227 202v259c0 126 -88 211 -227 211c-140 0 -228 -85 -228 -211v-259zM459 840h-254
c-3 0 -6 3 -6 7v16c0 4 3 7 6 7h254c4 0 6 -3 6 -7v-16c0 -4 -2 -7 -6 -7z" />
    <glyph glyph-name="Oslash" unicode="&#xd8;" horiz-adv-x="673" 
d="M135 -52h-18c-5 0 -7 3 -5 8l47 90c-56 43 -87 106 -87 180v257c0 142 103 242 264 242c61 0 113 -14 155 -39l41 78c1 4 4 5 7 5h18c5 0 7 -3 4 -8l-47 -91c56 -43 87 -109 87 -187v-257c0 -134 -105 -235 -265 -235c-60 0 -111 15 -154 40l-40 -78c-1 -3 -5 -5 -7 -5z
M106 226c0 -60 25 -112 69 -149l301 580c-37 23 -85 36 -140 36c-141 0 -230 -86 -230 -210v-257zM198 60c37 -23 83 -37 138 -37c141 0 231 88 231 203v257c0 64 -25 119 -69 156z" />
    <glyph glyph-name="Otilde" unicode="&#xd5;" horiz-adv-x="665" 
d="M593 224c0 -135 -104 -234 -260 -234c-157 0 -261 99 -261 234v259c0 144 103 242 261 242c157 0 260 -98 260 -242v-259zM105 224c0 -117 89 -202 228 -202c138 0 227 85 227 202v259c0 126 -88 211 -227 211c-140 0 -228 -85 -228 -211v-259zM469 875
c-9 -27 -36 -53 -68 -53c-23 0 -46 11 -68 23s-42 23 -65 23s-37 -16 -47 -36c-2 -4 -5 -4 -8 -3l-12 6c-4 2 -5 5 -4 9c10 26 35 51 70 51c26 0 48 -13 70 -24c21 -10 40 -22 61 -22c22 0 36 14 47 37c2 3 4 4 8 3l12 -6c3 -2 5 -4 4 -8z" />
    <glyph glyph-name="OE" unicode="&#x152;" horiz-adv-x="999" 
d="M543 0c-4 0 -6 2 -6 6v107c-35 -74 -115 -123 -211 -123c-149 0 -254 98 -254 244v240c0 154 104 251 254 251c96 0 177 -49 211 -125v109c0 4 2 6 6 6h387c4 0 6 -2 6 -6v-19c0 -4 -2 -7 -6 -7h-360v-303h340c4 0 6 -2 6 -6v-19c0 -4 -2 -7 -6 -7h-340v-316h375
c4 0 6 -3 6 -7v-19c0 -4 -2 -6 -6 -6h-402zM106 234c0 -127 89 -213 220 -213c125 0 210 86 210 204v258c0 126 -84 211 -210 211c-132 0 -220 -85 -220 -220v-240z" />
    <glyph glyph-name="P" unicode="P" horiz-adv-x="611" 
d="M103 715h222c157 0 244 -83 244 -219c0 -138 -88 -218 -244 -218h-195v-272c0 -4 -2 -6 -6 -6h-21c-4 0 -6 2 -6 6v703c0 4 2 6 6 6zM130 310h192c141 0 214 66 214 186s-73 188 -214 188h-192v-374z" />
    <glyph glyph-name="Thorn" unicode="&#xde;" horiz-adv-x="625" 
d="M125 0h-21c-4 0 -7 2 -7 6v703c0 4 3 6 7 6h21c4 0 6 -2 6 -6v-120h194c157 0 244 -83 244 -218c0 -139 -89 -218 -244 -218h-194v-147c0 -4 -2 -6 -6 -6zM131 557v-372h192c140 0 212 67 212 186s-73 186 -212 186h-192z" />
    <glyph glyph-name="Q" unicode="Q" horiz-adv-x="666" 
d="M594 -21l-12 -12c-3 -3 -6 -2 -9 1l-71 74c-44 -31 -102 -52 -169 -52c-157 0 -261 103 -261 236v257c0 142 103 242 261 242c157 0 260 -100 260 -242v-257c0 -65 -24 -122 -69 -164l70 -74c3 -3 3 -6 0 -9zM105 226c0 -115 89 -205 228 -205c58 0 108 19 146 46
l-117 122c-3 4 -3 5 0 9l12 12c3 3 6 3 9 0l118 -124c37 36 59 85 59 140v257c0 124 -88 211 -227 211c-140 0 -228 -87 -228 -211v-257z" />
    <glyph glyph-name="R" unicode="R" horiz-adv-x="618" 
d="M568 0h-27c-3 0 -7 1 -8 4l-231 300h-171v-298c0 -4 -3 -6 -6 -6h-21c-4 0 -7 2 -7 6v703c0 4 3 6 7 6h219c147 0 238 -76 238 -206c0 -122 -82 -197 -220 -204l231 -297c2 -4 1 -8 -4 -8zM323 684h-192v-349h192c129 0 205 61 205 174c0 112 -76 175 -205 175z" />
    <glyph glyph-name="Racute" unicode="&#x154;" horiz-adv-x="618" 
d="M568 0h-27c-3 0 -7 1 -8 4l-231 300h-171v-298c0 -4 -3 -6 -6 -6h-21c-4 0 -7 2 -7 6v703c0 4 3 6 7 6h219c147 0 238 -76 238 -206c0 -122 -82 -197 -220 -204l231 -297c2 -4 1 -8 -4 -8zM323 684h-192v-349h192c129 0 205 61 205 174c0 112 -76 175 -205 175zM398 927
l-116 -134c-2 -3 -5 -4 -8 -4h-18c-5 0 -6 4 -3 8l107 133c1 3 5 4 7 4h28c5 0 7 -3 3 -7z" />
    <glyph glyph-name="Rcaron" unicode="&#x158;" horiz-adv-x="618" 
d="M568 0h-27c-3 0 -7 1 -8 4l-231 300h-171v-298c0 -4 -3 -6 -6 -6h-21c-4 0 -7 2 -7 6v703c0 4 3 6 7 6h219c147 0 238 -76 238 -206c0 -122 -82 -197 -220 -204l231 -297c2 -4 1 -8 -4 -8zM323 684h-192v-349h192c129 0 205 61 205 174c0 112 -76 175 -205 175zM160 934
h21c3 0 6 -1 9 -4l115 -114l115 114c3 3 6 4 9 4h21c5 0 7 -4 3 -8l-129 -133c-3 -3 -6 -4 -8 -4h-22c-2 0 -6 1 -8 4l-130 133c-3 4 -1 8 4 8z" />
    <glyph glyph-name="uni0156" unicode="&#x156;" horiz-adv-x="618" 
d="M568 0h-27c-3 0 -7 1 -8 4l-231 300h-171v-298c0 -4 -3 -6 -6 -6h-21c-4 0 -7 2 -7 6v703c0 4 3 6 7 6h219c147 0 238 -76 238 -206c0 -122 -82 -197 -220 -204l231 -297c2 -4 1 -8 -4 -8zM323 684h-192v-349h192c129 0 205 61 205 174c0 112 -76 175 -205 175zM289 -226
h-12c-4 0 -7 2 -6 7l41 140c1 3 2 5 6 5h22c4 0 6 -2 5 -7l-50 -140c-1 -3 -3 -5 -6 -5z" />
    <glyph glyph-name="S" unicode="S" horiz-adv-x="593" 
d="M546 179c0 -122 -99 -189 -245 -189c-100 0 -169 29 -246 94c-3 3 -3 6 -1 9l12 15c3 3 6 4 9 2c72 -60 138 -88 226 -88c124 0 211 52 211 157c0 91 -57 133 -218 170c-153 35 -237 94 -237 203c0 119 108 173 235 173c94 0 166 -27 233 -80c4 -2 3 -6 1 -8l-10 -16
c-3 -4 -6 -4 -9 -2c-62 50 -135 74 -219 75c-105 0 -197 -45 -197 -144c0 -91 71 -136 210 -169c177 -42 245 -95 245 -202z" />
    <glyph glyph-name="Sacute" unicode="&#x15a;" horiz-adv-x="593" 
d="M546 179c0 -122 -99 -189 -245 -189c-100 0 -169 29 -246 94c-3 3 -3 6 -1 9l12 15c3 3 6 4 9 2c72 -60 138 -88 226 -88c124 0 211 52 211 157c0 91 -57 133 -218 170c-153 35 -237 94 -237 203c0 119 108 173 235 173c94 0 166 -27 233 -80c4 -2 3 -6 1 -8l-10 -16
c-3 -4 -6 -4 -9 -2c-62 50 -135 74 -219 75c-105 0 -197 -45 -197 -144c0 -91 71 -136 210 -169c177 -42 245 -95 245 -202zM395 927l-116 -134c-2 -3 -5 -4 -8 -4h-18c-5 0 -6 4 -3 8l107 133c1 3 5 4 7 4h28c5 0 7 -3 3 -7z" />
    <glyph glyph-name="Scaron" unicode="&#x160;" horiz-adv-x="593" 
d="M546 179c0 -122 -99 -189 -245 -189c-100 0 -169 29 -246 94c-3 3 -3 6 -1 9l12 15c3 3 6 4 9 2c72 -60 138 -88 226 -88c124 0 211 52 211 157c0 91 -57 133 -218 170c-153 35 -237 94 -237 203c0 119 108 173 235 173c94 0 166 -27 233 -80c4 -2 3 -6 1 -8l-10 -16
c-3 -4 -6 -4 -9 -2c-62 50 -135 74 -219 75c-105 0 -197 -45 -197 -144c0 -91 71 -136 210 -169c177 -42 245 -95 245 -202zM149 934h21c3 0 6 -1 9 -4l115 -114l115 114c3 3 6 4 9 4h21c5 0 7 -4 3 -8l-129 -133c-3 -3 -6 -4 -8 -4h-22c-2 0 -6 1 -8 4l-130 133
c-3 4 -1 8 4 8z" />
    <glyph glyph-name="Scedilla" unicode="&#x15e;" horiz-adv-x="593" 
d="M546 179c0 -116 -89 -182 -224 -188l-19 -51c57 0 93 -22 93 -67c0 -46 -38 -77 -100 -77c-19 0 -41 3 -60 10c-4 1 -5 5 -5 7v12c0 4 2 6 7 5c20 -7 40 -10 57 -10c47 0 73 20 73 54c0 32 -23 48 -86 48c-3 0 -6 1 -7 4c-1 1 -2 5 -1 7l22 57c-97 1 -165 30 -241 94
c-3 3 -3 6 -1 9l12 15c3 3 6 4 9 2c72 -60 138 -88 226 -88c124 0 211 52 211 157c0 91 -57 133 -218 170c-153 35 -237 94 -237 203c0 119 108 173 235 173c94 0 166 -27 233 -80c4 -2 3 -6 1 -8l-10 -16c-3 -4 -6 -4 -9 -2c-62 50 -135 74 -219 75
c-105 0 -197 -45 -197 -144c0 -91 71 -136 210 -169c177 -42 245 -95 245 -202z" />
    <glyph glyph-name="uni0218" unicode="&#x218;" horiz-adv-x="593" 
d="M546 179c0 -122 -99 -189 -245 -189c-100 0 -169 29 -246 94c-3 3 -3 6 -1 9l12 15c3 3 6 4 9 2c72 -60 138 -88 226 -88c124 0 211 52 211 157c0 91 -57 133 -218 170c-153 35 -237 94 -237 203c0 119 108 173 235 173c94 0 166 -27 233 -80c4 -2 3 -6 1 -8l-10 -16
c-3 -4 -6 -4 -9 -2c-62 50 -135 74 -219 75c-105 0 -197 -45 -197 -144c0 -91 71 -136 210 -169c177 -42 245 -95 245 -202zM277 -226h-12c-4 0 -7 2 -6 7l41 140c1 3 2 5 6 5h22c4 0 6 -2 5 -7l-50 -140c-1 -3 -3 -5 -6 -5z" />
    <glyph glyph-name="T" unicode="T" horiz-adv-x="534" 
d="M18 715h497c4 0 7 -2 7 -6v-19c0 -4 -3 -6 -7 -6h-233v-678c0 -4 -3 -6 -6 -6h-21c-4 0 -7 2 -7 6v678h-230c-4 0 -6 2 -6 6v19c0 4 2 6 6 6z" />
    <glyph glyph-name="Tbar" unicode="&#x166;" horiz-adv-x="549" 
d="M283 0h-21c-4 0 -6 2 -6 6v327h-149c-4 0 -6 2 -6 6v15c0 4 2 7 6 7h149v323h-230c-4 0 -6 2 -6 6v19c0 4 2 6 6 6h496c4 0 7 -2 7 -6v-19c0 -4 -3 -6 -7 -6h-233v-323h149c4 0 6 -3 6 -7v-15c0 -4 -2 -6 -6 -6h-149v-327c0 -4 -2 -6 -6 -6z" />
    <glyph glyph-name="Tcaron" unicode="&#x164;" horiz-adv-x="534" 
d="M18 715h497c4 0 7 -2 7 -6v-19c0 -4 -3 -6 -7 -6h-233v-678c0 -4 -3 -6 -6 -6h-21c-4 0 -7 2 -7 6v678h-230c-4 0 -6 2 -6 6v19c0 4 2 6 6 6zM120 934h21c3 0 6 -1 9 -4l115 -114l115 114c3 3 6 4 9 4h21c5 0 7 -4 3 -8l-129 -133c-3 -3 -6 -4 -8 -4h-22c-2 0 -6 1 -8 4
l-130 133c-3 4 -1 8 4 8z" />
    <glyph glyph-name="uni0162" unicode="&#x162;" horiz-adv-x="534" 
d="M237 -226h-12c-4 0 -7 2 -6 7l41 140c1 3 2 5 6 5h22c4 0 6 -2 5 -7l-50 -140c-1 -3 -3 -5 -6 -5zM18 715h497c4 0 7 -2 7 -6v-19c0 -4 -3 -6 -7 -6h-233v-678c0 -4 -3 -6 -6 -6h-21c-4 0 -7 2 -7 6v678h-230c-4 0 -6 2 -6 6v19c0 4 2 6 6 6z" />
    <glyph glyph-name="uni021A" unicode="&#x21a;" horiz-adv-x="534" 
d="M18 715h497c4 0 7 -2 7 -6v-19c0 -4 -3 -6 -7 -6h-233v-678c0 -4 -3 -6 -6 -6h-21c-4 0 -7 2 -7 6v678h-230c-4 0 -6 2 -6 6v19c0 4 2 6 6 6zM237 -226h-12c-4 0 -7 2 -6 7l41 140c1 3 2 5 6 5h22c4 0 6 -2 5 -7l-50 -140c-1 -3 -3 -5 -6 -5z" />
    <glyph glyph-name="U" unicode="U" horiz-adv-x="673" 
d="M582 241c0 -148 -90 -249 -246 -249c-155 0 -245 101 -245 249v468c0 4 3 6 7 6h21c4 0 6 -2 6 -6v-467c0 -132 74 -219 211 -219s212 87 212 219v467c0 4 2 6 6 6h21c4 0 7 -2 7 -6v-468z" />
    <glyph glyph-name="Uacute" unicode="&#xda;" horiz-adv-x="673" 
d="M582 241c0 -148 -90 -249 -246 -249c-155 0 -245 101 -245 249v468c0 4 3 6 7 6h21c4 0 6 -2 6 -6v-467c0 -132 74 -219 211 -219s212 87 212 219v467c0 4 2 6 6 6h21c4 0 7 -2 7 -6v-468zM436 927l-116 -134c-2 -3 -5 -4 -8 -4h-18c-5 0 -6 4 -3 8l107 133c1 3 5 4 7 4
h28c5 0 7 -3 3 -7z" />
    <glyph glyph-name="Ucircumflex" unicode="&#xdb;" horiz-adv-x="673" 
d="M582 241c0 -148 -90 -249 -246 -249c-155 0 -245 101 -245 249v468c0 4 3 6 7 6h21c4 0 6 -2 6 -6v-467c0 -132 74 -219 211 -219s212 87 212 219v467c0 4 2 6 6 6h21c4 0 7 -2 7 -6v-468zM213 789h-21c-5 0 -7 4 -4 8l130 133c2 3 6 4 8 4h22c2 0 5 -1 8 -4l129 -133
c4 -4 2 -8 -3 -8h-21c-3 0 -6 1 -9 4l-115 114l-115 -114c-3 -3 -6 -4 -9 -4z" />
    <glyph glyph-name="Udieresis" unicode="&#xdc;" horiz-adv-x="673" 
d="M582 241c0 -148 -90 -249 -246 -249c-155 0 -245 101 -245 249v468c0 4 3 6 7 6h21c4 0 6 -2 6 -6v-467c0 -132 74 -219 211 -219s212 87 212 219v467c0 4 2 6 6 6h21c4 0 7 -2 7 -6v-468zM263 861c0 -16 -10 -26 -26 -26c-15 0 -25 10 -25 26c0 15 10 25 25 25
c16 0 26 -10 26 -25zM462 861c0 -16 -10 -26 -26 -26c-15 0 -25 10 -25 26c0 15 10 25 25 25c16 0 26 -10 26 -25z" />
    <glyph glyph-name="Ugrave" unicode="&#xd9;" horiz-adv-x="673" 
d="M582 241c0 -148 -90 -249 -246 -249c-155 0 -245 101 -245 249v468c0 4 3 6 7 6h21c4 0 6 -2 6 -6v-467c0 -132 74 -219 211 -219s212 87 212 219v467c0 4 2 6 6 6h21c4 0 7 -2 7 -6v-468zM350 793l-116 134c-4 4 -2 7 3 7h28c2 0 6 -1 7 -4l107 -133c3 -4 2 -8 -3 -8
h-18c-3 0 -6 1 -8 4z" />
    <glyph glyph-name="Uhungarumlaut" unicode="&#x170;" horiz-adv-x="673" 
d="M582 241c0 -148 -90 -249 -246 -249c-155 0 -245 101 -245 249v468c0 4 3 6 7 6h21c4 0 6 -2 6 -6v-467c0 -132 74 -219 211 -219s212 87 212 219v467c0 4 2 6 6 6h21c4 0 7 -2 7 -6v-468zM230 789h-18c-5 0 -6 4 -4 8l108 133c1 3 5 4 7 4h27c5 0 7 -3 4 -7l-117 -134
c-2 -3 -5 -4 -7 -4zM389 789h-17c-5 0 -7 4 -4 8l109 133c1 3 4 4 7 4h27c5 0 7 -3 4 -7l-118 -134c-2 -3 -5 -4 -8 -4z" />
    <glyph glyph-name="Umacron" unicode="&#x16a;" horiz-adv-x="673" 
d="M582 241c0 -148 -90 -249 -246 -249c-155 0 -245 101 -245 249v468c0 4 3 6 7 6h21c4 0 6 -2 6 -6v-467c0 -132 74 -219 211 -219s212 87 212 219v467c0 4 2 6 6 6h21c4 0 7 -2 7 -6v-468zM463 840h-254c-3 0 -6 3 -6 7v16c0 4 3 7 6 7h254c4 0 6 -3 6 -7v-16
c0 -4 -2 -7 -6 -7z" />
    <glyph glyph-name="Uogonek" unicode="&#x172;" horiz-adv-x="673" 
d="M483 -180c-21 -11 -46 -18 -78 -18c-44 0 -73 26 -73 71c0 43 30 91 77 130v1c-22 -8 -47 -12 -72 -12c-144 0 -246 97 -246 232v485c0 4 3 6 7 6h21c4 0 6 -2 6 -6v-485c0 -115 86 -201 212 -201s211 86 211 201v485c0 4 3 6 7 6h21c4 0 6 -2 6 -6v-485
c0 -97 -45 -154 -110 -198c-71 -47 -108 -104 -108 -147c0 -33 16 -48 47 -48c22 0 42 4 60 14c4 3 7 1 8 -3l5 -14c2 -3 1 -7 -1 -8z" />
    <glyph glyph-name="Uring" unicode="&#x16e;" horiz-adv-x="673" 
d="M582 241c0 -148 -90 -249 -246 -249c-155 0 -245 101 -245 249v468c0 4 3 6 7 6h21c4 0 6 -2 6 -6v-467c0 -132 74 -219 211 -219s212 87 212 219v467c0 4 2 6 6 6h21c4 0 7 -2 7 -6v-468zM434 865c0 -58 -39 -92 -97 -92c-57 0 -97 35 -97 92c0 58 40 93 97 93
c58 0 97 -35 97 -93zM265 865c0 -43 27 -68 73 -68c45 0 71 25 71 68s-26 69 -71 69c-46 0 -73 -26 -73 -69z" />
    <glyph glyph-name="V" unicode="V" horiz-adv-x="602" 
d="M317 0h-31c-3 0 -6 2 -8 5l-268 703c-1 4 1 7 5 7h22c3 0 6 -2 8 -5l255 -672h2l256 672c1 3 4 5 7 5h22c4 0 6 -3 5 -7l-268 -703c-1 -3 -5 -5 -7 -5z" />
    <glyph glyph-name="W" unicode="W" horiz-adv-x="932" 
d="M253 0h-27c-4 0 -5 2 -7 5l-204 703c-1 4 1 7 5 7h23c4 0 5 -2 6 -5l190 -668h1c21 67 42 140 208 654c1 3 3 6 6 6h23c4 0 5 -3 7 -6l208 -654c19 68 38 138 190 668c1 3 3 5 7 5h22c4 0 7 -3 6 -7l-205 -703c-1 -3 -3 -5 -6 -5h-27c-4 0 -6 2 -7 5l-206 648h-1
c-19 -66 -40 -133 -206 -648c-1 -3 -3 -5 -6 -5z" />
    <glyph glyph-name="Wacute" unicode="&#x1e82;" horiz-adv-x="932" 
d="M253 0h-27c-4 0 -5 2 -7 5l-204 703c-1 4 1 7 5 7h23c4 0 5 -2 6 -5l190 -668h1c21 67 42 140 208 654c1 3 3 6 6 6h23c4 0 5 -3 7 -6l208 -654c19 68 38 138 190 668c1 3 3 5 7 5h22c4 0 7 -3 6 -7l-205 -703c-1 -3 -3 -5 -6 -5h-27c-4 0 -6 2 -7 5l-206 648h-1
c-19 -66 -40 -133 -206 -648c-1 -3 -3 -5 -6 -5zM579 927l-116 -134c-2 -3 -5 -4 -8 -4h-18c-5 0 -6 4 -3 8l107 133c1 3 5 4 7 4h28c5 0 7 -3 3 -7z" />
    <glyph glyph-name="Wcircumflex" unicode="&#x174;" horiz-adv-x="932" 
d="M253 0h-27c-4 0 -5 2 -7 5l-204 703c-1 4 1 7 5 7h23c4 0 5 -2 6 -5l190 -668h1c21 67 42 140 208 654c1 3 3 6 6 6h23c4 0 5 -3 7 -6l208 -654c19 68 38 138 190 668c1 3 3 5 7 5h22c4 0 7 -3 6 -7l-205 -703c-1 -3 -3 -5 -6 -5h-27c-4 0 -6 2 -7 5l-206 648h-1
c-19 -66 -40 -133 -206 -648c-1 -3 -3 -5 -6 -5zM342 789h-21c-5 0 -7 4 -4 8l130 133c2 3 6 4 8 4h22c2 0 5 -1 8 -4l129 -133c4 -4 2 -8 -3 -8h-21c-3 0 -6 1 -9 4l-115 114l-115 -114c-3 -3 -6 -4 -9 -4z" />
    <glyph glyph-name="Wdieresis" unicode="&#x1e84;" horiz-adv-x="932" 
d="M602 861c0 -16 -11 -26 -26 -26s-26 10 -26 26c0 15 11 25 26 25s26 -10 26 -25zM381 861c0 -16 -10 -26 -25 -26c-16 0 -26 10 -26 26c0 15 10 25 26 25c15 0 25 -10 25 -25zM253 0h-27c-4 0 -5 2 -7 5l-204 703c-1 4 1 7 5 7h23c4 0 5 -2 6 -5l190 -668h1
c21 67 42 140 208 654c1 3 3 6 6 6h23c4 0 5 -3 7 -6l208 -654c19 68 38 138 190 668c1 3 3 5 7 5h22c4 0 7 -3 6 -7l-205 -703c-1 -3 -3 -5 -6 -5h-27c-4 0 -6 2 -7 5l-206 648h-1c-19 -66 -40 -133 -206 -648c-1 -3 -3 -5 -6 -5z" />
    <glyph glyph-name="Wgrave" unicode="&#x1e80;" horiz-adv-x="932" 
d="M253 0h-27c-4 0 -5 2 -7 5l-204 703c-1 4 1 7 5 7h23c4 0 5 -2 6 -5l190 -668h1c21 67 42 140 208 654c1 3 3 6 6 6h23c4 0 5 -3 7 -6l208 -654c19 68 38 138 190 668c1 3 3 5 7 5h22c4 0 7 -3 6 -7l-205 -703c-1 -3 -3 -5 -6 -5h-27c-4 0 -6 2 -7 5l-206 648h-1
c-19 -66 -40 -133 -206 -648c-1 -3 -3 -5 -6 -5zM474 793l-116 134c-4 4 -2 7 3 7h28c2 0 6 -1 7 -4l107 -133c3 -4 2 -8 -3 -8h-18c-3 0 -6 1 -8 4z" />
    <glyph glyph-name="X" unicode="X" horiz-adv-x="572" 
d="M307 361l241 -353c3 -4 2 -8 -3 -8h-27c-2 0 -6 1 -7 4l-224 331l-226 -331c-1 -3 -4 -4 -7 -4h-26c-5 0 -7 4 -4 8l242 353l-231 346c-3 4 -1 8 4 8h26c2 0 6 -1 7 -4l215 -324l213 324c2 3 5 4 8 4h26c4 0 6 -4 3 -8z" />
    <glyph glyph-name="Y" unicode="Y" horiz-adv-x="536" 
d="M278 0h-21c-4 0 -6 2 -6 6v277l-241 424c-2 5 0 8 5 8h24c3 0 6 -1 7 -4l222 -395l222 395c1 3 5 4 8 4h23c5 0 7 -3 5 -8l-241 -424v-277c0 -4 -3 -6 -7 -6z" />
    <glyph glyph-name="Yacute" unicode="&#xdd;" horiz-adv-x="536" 
d="M278 0h-21c-4 0 -6 2 -6 6v277l-241 424c-2 5 0 8 5 8h24c3 0 6 -1 7 -4l222 -395l222 395c1 3 5 4 8 4h23c5 0 7 -3 5 -8l-241 -424v-277c0 -4 -3 -6 -7 -6zM371 927l-116 -134c-2 -3 -5 -4 -8 -4h-18c-5 0 -6 4 -3 8l107 133c1 3 5 4 7 4h28c5 0 7 -3 3 -7z" />
    <glyph glyph-name="Ycircumflex" unicode="&#x176;" horiz-adv-x="536" 
d="M278 0h-21c-4 0 -6 2 -6 6v277l-241 424c-2 5 0 8 5 8h24c3 0 6 -1 7 -4l222 -395l222 395c1 3 5 4 8 4h23c5 0 7 -3 5 -8l-241 -424v-277c0 -4 -3 -6 -7 -6zM144 789h-21c-5 0 -7 4 -4 8l130 133c2 3 6 4 8 4h22c2 0 5 -1 8 -4l129 -133c4 -4 2 -8 -3 -8h-21
c-3 0 -6 1 -9 4l-115 114l-115 -114c-3 -3 -6 -4 -9 -4z" />
    <glyph glyph-name="Ydieresis" unicode="&#x178;" horiz-adv-x="536" 
d="M278 0h-21c-4 0 -6 2 -6 6v277l-241 424c-2 5 0 8 5 8h24c3 0 6 -1 7 -4l222 -395l222 395c1 3 5 4 8 4h23c5 0 7 -3 5 -8l-241 -424v-277c0 -4 -3 -6 -7 -6zM194 861c0 -16 -10 -26 -26 -26c-15 0 -25 10 -25 26c0 15 10 25 25 25c16 0 26 -10 26 -25zM393 861
c0 -16 -10 -26 -26 -26c-15 0 -25 10 -25 26c0 15 10 25 25 25c16 0 26 -10 26 -25z" />
    <glyph glyph-name="Ygrave" unicode="&#x1ef2;" horiz-adv-x="536" 
d="M278 0h-21c-4 0 -6 2 -6 6v277l-241 424c-2 5 0 8 5 8h24c3 0 6 -1 7 -4l222 -395l222 395c1 3 5 4 8 4h23c5 0 7 -3 5 -8l-241 -424v-277c0 -4 -3 -6 -7 -6zM286 793l-116 134c-4 4 -2 7 3 7h28c2 0 6 -1 7 -4l107 -133c3 -4 2 -8 -3 -8h-18c-3 0 -6 1 -8 4z" />
    <glyph glyph-name="Z" unicode="Z" horiz-adv-x="553" 
d="M513 0h-475c-3 0 -6 2 -6 6v12c0 2 1 5 3 7l433 659h-415c-4 0 -6 2 -6 6v19c0 4 2 6 6 6h453c4 0 6 -2 6 -6v-13c0 -3 -1 -5 -2 -8l-432 -657h435c3 0 6 -2 6 -6v-19c0 -4 -3 -6 -6 -6z" />
    <glyph glyph-name="Zacute" unicode="&#x179;" horiz-adv-x="553" 
d="M513 0h-475c-3 0 -6 2 -6 6v12c0 2 1 5 3 7l433 659h-415c-4 0 -6 2 -6 6v19c0 4 2 6 6 6h453c4 0 6 -2 6 -6v-13c0 -3 -1 -5 -2 -8l-432 -657h435c3 0 6 -2 6 -6v-19c0 -4 -3 -6 -6 -6zM374 927l-116 -134c-2 -3 -5 -4 -8 -4h-18c-5 0 -6 4 -3 8l107 133c1 3 5 4 7 4h28
c5 0 7 -3 3 -7z" />
    <glyph glyph-name="Zcaron" unicode="&#x17d;" horiz-adv-x="553" 
d="M513 0h-475c-3 0 -6 2 -6 6v12c0 2 1 5 3 7l433 659h-415c-4 0 -6 2 -6 6v19c0 4 2 6 6 6h453c4 0 6 -2 6 -6v-13c0 -3 -1 -5 -2 -8l-432 -657h435c3 0 6 -2 6 -6v-19c0 -4 -3 -6 -6 -6zM129 934h21c3 0 6 -1 9 -4l115 -114l115 114c3 3 6 4 9 4h21c5 0 7 -4 3 -8
l-129 -133c-3 -3 -6 -4 -8 -4h-22c-2 0 -6 1 -8 4l-130 133c-3 4 -1 8 4 8z" />
    <glyph glyph-name="Zdotaccent" unicode="&#x17b;" horiz-adv-x="553" 
d="M513 0h-475c-3 0 -6 2 -6 6v12c0 2 1 5 3 7l433 659h-415c-4 0 -6 2 -6 6v19c0 4 2 6 6 6h453c4 0 6 -2 6 -6v-13c0 -3 -1 -5 -2 -8l-432 -657h435c3 0 6 -2 6 -6v-19c0 -4 -3 -6 -6 -6zM302 860c0 -17 -12 -29 -28 -29c-17 0 -29 12 -29 29c0 16 12 28 29 28
c16 0 28 -12 28 -28z" />
    <glyph glyph-name="a" unicode="a" horiz-adv-x="500" 
d="M66 473c43 30 107 51 179 51c126 0 185 -72 185 -184v-308c0 -2 -1 -6 -5 -7c-42 -18 -107 -35 -181 -35c-117 0 -205 59 -205 160c0 100 76 156 205 156c59 0 114 -10 154 -19v52c0 95 -43 155 -154 155c-63 0 -122 -20 -160 -44c-4 -2 -7 -1 -9 1l-9 14c-1 3 -2 6 0 8z
M71 150c0 -80 72 -131 173 -131c65 0 117 14 154 28v212c-39 9 -97 18 -154 18c-113 0 -173 -46 -173 -127z" />
    <glyph glyph-name="aacute" unicode="&#xe1;" horiz-adv-x="500" 
d="M66 473c43 30 107 51 179 51c126 0 185 -72 185 -184v-308c0 -2 -1 -6 -5 -7c-42 -18 -107 -35 -181 -35c-117 0 -205 59 -205 160c0 100 76 156 205 156c59 0 114 -10 154 -19v52c0 95 -43 155 -154 155c-63 0 -122 -20 -160 -44c-4 -2 -7 -1 -9 1l-9 14c-1 3 -2 6 0 8z
M71 150c0 -80 72 -131 173 -131c65 0 117 14 154 28v212c-39 9 -97 18 -154 18c-113 0 -173 -46 -173 -127zM223 599h-15c-5 0 -8 3 -5 8l83 134c1 2 5 4 7 4h25c5 0 6 -3 3 -8l-90 -134c-2 -2 -5 -4 -8 -4z" />
    <glyph glyph-name="abreve" unicode="&#x103;" horiz-adv-x="500" 
d="M66 473c43 30 107 51 179 51c126 0 185 -72 185 -184v-308c0 -2 -1 -6 -5 -7c-42 -18 -107 -35 -181 -35c-117 0 -205 59 -205 160c0 100 76 156 205 156c59 0 114 -10 154 -19v52c0 95 -43 155 -154 155c-63 0 -122 -20 -160 -44c-4 -2 -7 -1 -9 1l-9 14c-1 3 -2 6 0 8z
M71 150c0 -80 72 -131 173 -131c65 0 117 14 154 28v212c-39 9 -97 18 -154 18c-113 0 -173 -46 -173 -127zM397 735c-9 -78 -62 -136 -145 -136s-135 58 -144 136c-1 4 1 6 5 7l16 2c4 0 6 -1 7 -5c9 -67 48 -113 116 -113c69 0 107 46 116 113c1 4 3 6 8 5l15 -2
c4 0 7 -3 6 -7z" />
    <glyph glyph-name="acircumflex" unicode="&#xe2;" horiz-adv-x="500" 
d="M66 473c43 30 107 51 179 51c126 0 185 -72 185 -184v-308c0 -2 -1 -6 -5 -7c-42 -18 -107 -35 -181 -35c-117 0 -205 59 -205 160c0 100 76 156 205 156c59 0 114 -10 154 -19v52c0 95 -43 155 -154 155c-63 0 -122 -20 -160 -44c-4 -2 -7 -1 -9 1l-9 14c-1 3 -2 6 0 8z
M71 150c0 -80 72 -131 173 -131c65 0 117 14 154 28v212c-39 9 -97 18 -154 18c-113 0 -173 -46 -173 -127zM144 599h-20c-5 0 -7 3 -4 8l114 134c2 2 5 4 8 4h16c3 0 6 -2 8 -4l113 -134c4 -5 2 -8 -3 -8h-21c-2 0 -6 2 -7 4l-98 117l-98 -117c-2 -2 -5 -4 -8 -4z" />
    <glyph glyph-name="adieresis" unicode="&#xe4;" horiz-adv-x="500" 
d="M66 473c43 30 107 51 179 51c126 0 185 -72 185 -184v-308c0 -2 -1 -6 -5 -7c-42 -18 -107 -35 -181 -35c-117 0 -205 59 -205 160c0 100 76 156 205 156c59 0 114 -10 154 -19v52c0 95 -43 155 -154 155c-63 0 -122 -20 -160 -44c-4 -2 -7 -1 -9 1l-9 14c-1 3 -2 6 0 8z
M71 150c0 -80 72 -131 173 -131c65 0 117 14 154 28v212c-39 9 -97 18 -154 18c-113 0 -173 -46 -173 -127zM185 652c0 -15 -10 -25 -25 -25s-25 10 -25 25c0 16 10 26 25 26s25 -10 25 -26zM358 652c0 -15 -10 -25 -25 -25s-26 10 -26 25c0 16 11 26 26 26s25 -10 25 -26z
" />
    <glyph glyph-name="agrave" unicode="&#xe0;" horiz-adv-x="500" 
d="M66 473c43 30 107 51 179 51c126 0 185 -72 185 -184v-308c0 -2 -1 -6 -5 -7c-42 -18 -107 -35 -181 -35c-117 0 -205 59 -205 160c0 100 76 156 205 156c59 0 114 -10 154 -19v52c0 95 -43 155 -154 155c-63 0 -122 -20 -160 -44c-4 -2 -7 -1 -9 1l-9 14c-1 3 -2 6 0 8z
M71 150c0 -80 72 -131 173 -131c65 0 117 14 154 28v212c-39 9 -97 18 -154 18c-113 0 -173 -46 -173 -127zM277 599h-15c-3 0 -6 2 -8 4l-90 134c-3 5 -2 8 3 8h25c2 0 6 -2 7 -4l83 -134c3 -5 0 -8 -5 -8z" />
    <glyph glyph-name="amacron" unicode="&#x101;" horiz-adv-x="500" 
d="M66 473c43 30 107 51 179 51c126 0 185 -72 185 -184v-308c0 -2 -1 -6 -5 -7c-42 -18 -107 -35 -181 -35c-117 0 -205 59 -205 160c0 100 76 156 205 156c59 0 114 -10 154 -19v52c0 95 -43 155 -154 155c-63 0 -122 -20 -160 -44c-4 -2 -7 -1 -9 1l-9 14c-1 3 -2 6 0 8z
M71 150c0 -80 72 -131 173 -131c65 0 117 14 154 28v212c-39 9 -97 18 -154 18c-113 0 -173 -46 -173 -127zM121 656v14c0 4 2 7 6 7h234c4 0 7 -3 7 -7v-14c0 -4 -3 -7 -7 -7h-234c-4 0 -6 3 -6 7z" />
    <glyph glyph-name="aogonek" unicode="&#x105;" horiz-adv-x="500" 
d="M430 341v-308c0 -3 -1 -6 -5 -8c-60 -26 -118 -94 -118 -145c0 -34 17 -49 49 -49c20 0 40 3 56 14c4 2 7 0 8 -4l6 -14c1 -3 1 -6 -4 -8c-17 -10 -41 -17 -70 -17c-46 0 -75 24 -75 74c0 41 32 94 83 131c-34 -10 -74 -17 -116 -17c-117 0 -205 58 -205 160
c0 100 76 156 205 156c59 0 113 -10 154 -19v53c0 94 -43 154 -154 154c-65 0 -125 -20 -164 -44c-3 -2 -6 -1 -8 1l-9 14c-2 3 -2 7 1 9c44 29 107 50 182 50c125 0 184 -72 184 -183zM71 150c0 -81 72 -131 173 -131c64 0 117 12 154 27v213c-39 10 -97 18 -154 18
c-113 0 -173 -45 -173 -127z" />
    <glyph glyph-name="aring" unicode="&#xe5;" horiz-adv-x="500" 
d="M66 473c43 30 107 51 179 51c126 0 185 -72 185 -184v-308c0 -2 -1 -6 -5 -7c-42 -18 -107 -35 -181 -35c-117 0 -205 59 -205 160c0 100 76 156 205 156c59 0 114 -10 154 -19v52c0 95 -43 155 -154 155c-63 0 -122 -20 -160 -44c-4 -2 -7 -1 -9 1l-9 14c-1 3 -2 6 0 8z
M71 150c0 -80 72 -131 173 -131c65 0 117 14 154 28v212c-39 9 -97 18 -154 18c-113 0 -173 -46 -173 -127zM342 669c0 -57 -40 -92 -96 -92c-57 0 -97 35 -97 92c0 56 40 92 97 92c56 0 96 -36 96 -92zM174 669c0 -40 30 -68 72 -68s71 28 71 68s-29 68 -71 68
s-72 -28 -72 -68z" />
    <glyph glyph-name="atilde" unicode="&#xe3;" horiz-adv-x="500" 
d="M66 473c43 30 107 51 179 51c126 0 185 -72 185 -184v-308c0 -2 -1 -6 -5 -7c-42 -18 -107 -35 -181 -35c-117 0 -205 59 -205 160c0 100 76 156 205 156c59 0 114 -10 154 -19v52c0 95 -43 155 -154 155c-63 0 -122 -20 -160 -44c-4 -2 -7 -1 -9 1l-9 14c-1 3 -2 6 0 8z
M71 150c0 -80 72 -131 173 -131c65 0 117 14 154 28v212c-39 9 -97 18 -154 18c-113 0 -173 -46 -173 -127zM380 675c-9 -27 -35 -53 -68 -53c-23 0 -46 12 -68 23c-22 12 -42 23 -65 23c-22 0 -38 -15 -47 -36c-2 -4 -5 -4 -8 -3l-12 6c-4 3 -5 5 -3 9c10 25 34 51 69 51
c26 0 48 -13 71 -24c20 -10 39 -22 61 -22c21 0 36 13 47 37c1 3 4 5 7 3l12 -6c3 -2 5 -4 4 -8z" />
    <glyph glyph-name="ae" unicode="&#xe6;" horiz-adv-x="835" 
d="M579 -9c-64 0 -116 25 -151 66c-42 -36 -110 -67 -187 -67c-114 0 -202 60 -202 160c0 97 77 152 202 152c58 0 111 -10 151 -18v58c0 93 -45 152 -151 152c-63 0 -122 -20 -161 -44c-3 -2 -6 -1 -8 1l-8 14c-1 3 -2 6 1 9c43 29 106 50 178 50c89 0 146 -42 168 -112
c25 72 93 112 178 112c114 0 195 -69 195 -188v-77c0 -4 -3 -6 -7 -6h-353v-89c0 -96 67 -143 156 -143c84 0 138 34 175 70c3 3 6 3 9 -1l11 -13c2 -2 3 -6 -1 -8c-41 -39 -103 -78 -195 -78zM72 150c0 -80 71 -131 169 -131c71 0 129 28 170 61c-11 22 -19 52 -19 83v92
c-39 9 -94 18 -150 18c-111 0 -170 -44 -170 -123zM424 334v-53h328v54c0 101 -66 159 -164 159c-99 0 -164 -57 -164 -160z" />
    <glyph glyph-name="b" unicode="b" horiz-adv-x="532" 
d="M108 478c43 28 98 46 156 46c131 0 211 -69 211 -214v-107c0 -147 -81 -213 -212 -213c-64 0 -128 13 -182 35c-3 1 -5 4 -5 7v677c0 4 3 6 6 6h20c4 0 6 -2 6 -6v-231zM263 19c114 0 179 55 179 184v107c0 129 -64 184 -179 184c-56 0 -111 -18 -155 -48v-400
c45 -16 99 -27 155 -27z" />
    <glyph glyph-name="c" unicode="c" horiz-adv-x="463" 
d="M431 52c-52 -41 -107 -62 -174 -62c-125 0 -199 82 -199 185v164c0 103 74 185 199 185c60 0 111 -18 160 -53c4 -3 4 -6 2 -9l-9 -14c-3 -2 -5 -4 -9 -1c-46 33 -91 47 -145 47c-107 0 -166 -70 -166 -155v-164c0 -86 60 -156 166 -156c58 0 108 19 158 56c4 3 7 2 9 -1
l10 -13c2 -3 2 -7 -2 -9z" />
    <glyph glyph-name="cacute" unicode="&#x107;" horiz-adv-x="463" 
d="M431 52c-52 -41 -107 -62 -174 -62c-125 0 -199 82 -199 185v164c0 103 74 185 199 185c60 0 111 -18 160 -53c4 -3 4 -6 2 -9l-9 -14c-3 -2 -5 -4 -9 -1c-46 33 -91 47 -145 47c-107 0 -166 -70 -166 -155v-164c0 -86 60 -156 166 -156c58 0 108 19 158 56c4 3 7 2 9 -1
l10 -13c2 -3 2 -7 -2 -9zM227 599h-15c-5 0 -8 3 -5 8l83 134c1 2 5 4 7 4h25c5 0 6 -3 3 -8l-90 -134c-2 -2 -5 -4 -8 -4z" />
    <glyph glyph-name="ccaron" unicode="&#x10d;" horiz-adv-x="463" 
d="M431 52c-52 -41 -107 -62 -174 -62c-125 0 -199 82 -199 185v164c0 103 74 185 199 185c60 0 111 -18 160 -53c4 -3 4 -6 2 -9l-9 -14c-3 -2 -5 -4 -9 -1c-46 33 -91 47 -145 47c-107 0 -166 -70 -166 -155v-164c0 -86 60 -156 166 -156c58 0 108 19 158 56c4 3 7 2 9 -1
l10 -13c2 -3 2 -7 -2 -9zM124 745h20c3 0 6 -2 8 -4l98 -117l98 117c1 2 5 4 7 4h21c5 0 7 -3 3 -8l-113 -134c-2 -2 -5 -4 -8 -4h-16c-3 0 -6 2 -8 4l-114 134c-3 5 -1 8 4 8z" />
    <glyph glyph-name="ccedilla" unicode="&#xe7;" horiz-adv-x="463" 
d="M433 61c2 -3 2 -7 -2 -9c-49 -39 -100 -59 -162 -62l-18 -49c56 0 91 -23 91 -68s-37 -76 -98 -76c-19 0 -40 3 -59 9c-4 2 -5 5 -5 8v11c0 4 2 6 7 5c19 -6 39 -9 55 -9c46 0 71 20 71 53s-22 49 -82 49c-4 0 -6 1 -8 4c-1 1 -1 5 0 7l21 56c-117 6 -186 86 -186 185
v164c0 103 74 185 199 185c60 0 111 -18 160 -53c4 -3 4 -6 2 -9l-9 -14c-3 -2 -5 -4 -9 -1c-46 33 -91 47 -145 47c-107 0 -166 -70 -166 -155v-164c0 -86 60 -156 166 -156c58 0 108 19 158 56c4 3 7 2 9 -1z" />
    <glyph glyph-name="cdotaccent" unicode="&#x10b;" horiz-adv-x="463" 
d="M431 52c-52 -41 -107 -62 -174 -62c-125 0 -199 82 -199 185v164c0 103 74 185 199 185c60 0 111 -18 160 -53c4 -3 4 -6 2 -9l-9 -14c-3 -2 -5 -4 -9 -1c-46 33 -91 47 -145 47c-107 0 -166 -70 -166 -155v-164c0 -86 60 -156 166 -156c58 0 108 19 158 56c4 3 7 2 9 -1
l10 -13c2 -3 2 -7 -2 -9zM276 652c0 -16 -11 -27 -27 -27s-27 11 -27 27s11 28 27 28s27 -12 27 -28z" />
    <glyph glyph-name="d" unicode="d" horiz-adv-x="532" 
d="M424 478v231c0 4 2 6 6 6h19c4 0 7 -2 7 -6v-677c0 -3 -2 -6 -5 -7c-54 -22 -118 -35 -182 -35c-131 0 -212 66 -212 213v107c0 145 80 214 211 214c58 0 113 -18 156 -46zM89 203c0 -130 66 -184 180 -184c56 0 110 11 155 27v400c-44 30 -99 48 -155 48
c-115 0 -180 -55 -180 -184v-107z" />
    <glyph glyph-name="eth" unicode="&#xf0;" horiz-adv-x="536" 
d="M448 706l-82 -64c63 -58 101 -148 101 -293v-171c0 -106 -71 -188 -205 -188c-133 0 -205 82 -205 188v134c0 105 73 187 202 187c87 0 145 -34 176 -88c-8 101 -40 167 -92 212l-112 -87c-3 -2 -6 -3 -8 0l-8 10c-2 2 -2 6 0 9l107 84c-41 29 -92 48 -150 62
c-3 1 -6 2 -5 7l2 16c1 4 4 6 8 5c65 -14 124 -35 170 -71l86 67c3 2 7 2 8 -1l7 -9c2 -3 2 -7 0 -9zM89 178c0 -89 58 -159 173 -159c117 0 173 70 173 159v134c1 91 -56 158 -173 158c-115 0 -173 -70 -173 -158v-134z" />
    <glyph glyph-name="dcaron" unicode="&#x10f;" horiz-adv-x="552" 
d="M268 524c58 0 113 -18 156 -46v231c0 4 2 6 6 6h19c4 0 7 -2 7 -6v-677c0 -3 -2 -6 -5 -7c-54 -22 -118 -35 -182 -35c-131 0 -212 66 -212 213v107c0 145 80 214 211 214zM512 566l37 144c1 4 3 5 7 5h19c4 0 6 -3 5 -7l-43 -144c-1 -2 -3 -5 -7 -5h-12c-4 0 -7 3 -6 7z
M89 203c0 -130 66 -184 180 -184c56 0 110 11 155 28v399c-44 30 -99 48 -155 48c-115 0 -180 -55 -180 -184v-107z" />
    <glyph glyph-name="dcroat" unicode="&#x111;" horiz-adv-x="532" 
d="M456 630h76c4 0 6 -2 6 -6v-14c0 -4 -2 -6 -6 -6h-76v-572c0 -3 -2 -6 -5 -7c-54 -22 -118 -35 -182 -35c-131 0 -212 66 -212 213v104c0 146 80 215 211 215c58 0 113 -18 156 -46v128h-178c-4 0 -6 2 -6 6v14c0 4 2 6 6 6h178v79c0 4 2 6 6 6h19c4 0 7 -2 7 -6v-79z
M89 203c0 -130 66 -184 180 -184c56 0 110 11 155 28v397c-44 29 -99 48 -155 48c-115 0 -180 -56 -180 -185v-104z" />
    <glyph glyph-name="e" unicode="e" horiz-adv-x="507" 
d="M456 334v-90c0 -4 -3 -6 -6 -6h-360v-66c0 -97 77 -153 168 -153c78 0 132 36 170 70c3 2 6 2 8 -1l11 -13c3 -3 3 -6 -1 -8c-42 -39 -104 -77 -189 -77c-105 0 -199 67 -199 182v162c0 121 82 190 199 190s199 -69 199 -190zM424 334c0 102 -67 160 -167 160
c-101 0 -167 -57 -167 -160v-68h334v68z" />
    <glyph glyph-name="eacute" unicode="&#xe9;" horiz-adv-x="507" 
d="M456 334v-90c0 -4 -3 -6 -6 -6h-360v-66c0 -97 77 -153 168 -153c78 0 132 36 170 70c3 2 6 2 8 -1l11 -13c3 -3 3 -6 -1 -8c-42 -39 -104 -77 -189 -77c-105 0 -199 67 -199 182v162c0 121 82 190 199 190s199 -69 199 -190zM424 334c0 102 -67 160 -167 160
c-101 0 -167 -57 -167 -160v-68h334v68zM230 599h-15c-5 0 -8 3 -5 8l83 134c1 2 5 4 7 4h25c5 0 6 -3 3 -8l-90 -134c-2 -2 -5 -4 -8 -4z" />
    <glyph glyph-name="ecaron" unicode="&#x11b;" horiz-adv-x="507" 
d="M456 334v-90c0 -4 -3 -6 -6 -6h-360v-66c0 -97 77 -153 168 -153c78 0 132 36 170 70c3 2 6 2 8 -1l11 -13c3 -3 3 -6 -1 -8c-42 -39 -104 -77 -189 -77c-105 0 -199 67 -199 182v162c0 121 82 190 199 190s199 -69 199 -190zM424 334c0 102 -67 160 -167 160
c-101 0 -167 -57 -167 -160v-68h334v68zM132 745h20c3 0 6 -2 8 -4l98 -117l98 117c1 2 5 4 7 4h21c5 0 7 -3 3 -8l-113 -134c-2 -2 -5 -4 -8 -4h-16c-3 0 -6 2 -8 4l-114 134c-3 5 -1 8 4 8z" />
    <glyph glyph-name="ecircumflex" unicode="&#xea;" horiz-adv-x="507" 
d="M456 334v-90c0 -4 -3 -6 -6 -6h-360v-66c0 -97 77 -153 168 -153c78 0 132 36 170 70c3 2 6 2 8 -1l11 -13c3 -3 3 -6 -1 -8c-42 -39 -104 -77 -189 -77c-105 0 -199 67 -199 182v162c0 121 82 190 199 190s199 -69 199 -190zM424 334c0 102 -67 160 -167 160
c-101 0 -167 -57 -167 -160v-68h334v68zM151 599h-20c-5 0 -7 3 -4 8l114 134c2 2 5 4 8 4h16c3 0 6 -2 8 -4l113 -134c4 -5 2 -8 -3 -8h-21c-2 0 -6 2 -7 4l-98 117l-98 -117c-2 -2 -5 -4 -8 -4z" />
    <glyph glyph-name="edieresis" unicode="&#xeb;" horiz-adv-x="507" 
d="M456 334v-90c0 -4 -3 -6 -6 -6h-360v-66c0 -97 77 -153 168 -153c78 0 132 36 170 70c3 2 6 2 8 -1l11 -13c3 -3 3 -6 -1 -8c-42 -39 -104 -77 -189 -77c-105 0 -199 67 -199 182v162c0 121 82 190 199 190s199 -69 199 -190zM424 334c0 102 -67 160 -167 160
c-101 0 -167 -57 -167 -160v-68h334v68zM196 652c0 -15 -10 -25 -25 -25s-25 10 -25 25c0 16 10 26 25 26s25 -10 25 -26zM369 652c0 -15 -10 -25 -25 -25s-26 10 -26 25c0 16 11 26 26 26s25 -10 25 -26z" />
    <glyph glyph-name="edotaccent" unicode="&#x117;" horiz-adv-x="507" 
d="M456 334v-90c0 -4 -3 -6 -6 -6h-360v-66c0 -97 77 -153 168 -153c78 0 132 36 170 70c3 2 6 2 8 -1l11 -13c3 -3 3 -6 -1 -8c-42 -39 -104 -77 -189 -77c-105 0 -199 67 -199 182v162c0 121 82 190 199 190s199 -69 199 -190zM424 334c0 102 -67 160 -167 160
c-101 0 -167 -57 -167 -160v-68h334v68zM284 652c0 -16 -11 -27 -27 -27s-27 11 -27 27s11 28 27 28s27 -12 27 -28z" />
    <glyph glyph-name="egrave" unicode="&#xe8;" horiz-adv-x="507" 
d="M456 334v-90c0 -4 -3 -6 -6 -6h-360v-66c0 -97 77 -153 168 -153c78 0 132 36 170 70c3 2 6 2 8 -1l11 -13c3 -3 3 -6 -1 -8c-42 -39 -104 -77 -189 -77c-105 0 -199 67 -199 182v162c0 121 82 190 199 190s199 -69 199 -190zM424 334c0 102 -67 160 -167 160
c-101 0 -167 -57 -167 -160v-68h334v68zM285 599h-15c-3 0 -6 2 -8 4l-90 134c-3 5 -2 8 3 8h25c2 0 6 -2 7 -4l83 -134c3 -5 0 -8 -5 -8z" />
    <glyph glyph-name="emacron" unicode="&#x113;" horiz-adv-x="507" 
d="M456 334v-90c0 -4 -3 -6 -6 -6h-360v-66c0 -97 77 -153 168 -153c78 0 132 36 170 70c3 2 6 2 8 -1l11 -13c3 -3 3 -6 -1 -8c-42 -39 -104 -77 -189 -77c-105 0 -199 67 -199 182v162c0 121 82 190 199 190s199 -69 199 -190zM424 334c0 102 -67 160 -167 160
c-101 0 -167 -57 -167 -160v-68h334v68zM134 656v14c0 4 2 7 6 7h234c4 0 7 -3 7 -7v-14c0 -4 -3 -7 -7 -7h-234c-4 0 -6 3 -6 7z" />
    <glyph glyph-name="eogonek" unicode="&#x119;" horiz-adv-x="506" 
d="M398 -180c-20 -11 -44 -19 -73 -19c-46 0 -75 26 -75 74c0 42 28 89 74 128c-21 -8 -43 -12 -67 -12c-106 0 -199 67 -199 181v163c0 120 82 189 199 189c116 0 198 -69 198 -189v-91c0 -4 -3 -6 -6 -6h-359v-66c0 -96 77 -151 167 -151c77 0 132 35 170 69c3 3 6 3 8 -1
l11 -12c2 -3 3 -6 -1 -9c-16 -15 -37 -29 -59 -43c-73 -48 -107 -106 -107 -145c0 -34 17 -49 49 -49c20 0 40 3 57 14c3 2 7 1 8 -3l6 -14c2 -3 1 -6 -1 -8zM90 334v-68h334v69c0 101 -68 159 -168 159c-101 0 -166 -57 -166 -160z" />
    <glyph glyph-name="f" unicode="f" horiz-adv-x="306" 
d="M289 693c-19 2 -44 3 -57 3c-81 0 -123 -50 -123 -134v-49h175c3 0 6 -3 6 -6v-17c0 -4 -3 -7 -6 -7h-175v-477c0 -4 -2 -6 -6 -6h-20c-3 0 -6 2 -6 6v556c0 102 58 163 153 163c14 0 41 -1 61 -3c4 -1 6 -3 6 -7v-17c0 -4 -3 -6 -8 -5z" />
    <glyph glyph-name="g" unicode="g" horiz-adv-x="530" 
d="M454 -15c0 -108 -60 -185 -196 -185c-76 0 -136 30 -188 80c-2 2 -2 4 0 8l10 14c2 3 5 4 8 1c45 -42 97 -73 170 -73c115 0 165 62 164 156v70c-45 -23 -102 -37 -154 -37c-130 0 -211 67 -211 199v108c0 138 85 198 211 198c61 0 131 -14 181 -36c4 -1 5 -4 5 -7v-496z
M89 218c0 -119 70 -169 180 -169c55 0 110 15 153 38v381c-43 15 -106 26 -155 26c-112 0 -178 -53 -178 -168v-108z" />
    <glyph glyph-name="gbreve" unicode="&#x11f;" horiz-adv-x="530" 
d="M454 -15c0 -108 -60 -185 -196 -185c-76 0 -136 30 -188 80c-2 2 -2 4 0 8l10 14c2 3 5 4 8 1c45 -42 97 -73 170 -73c115 0 165 62 164 156v70c-45 -23 -102 -37 -154 -37c-130 0 -211 67 -211 199v108c0 138 85 198 211 198c61 0 131 -14 181 -36c4 -1 5 -4 5 -7v-496z
M89 218c0 -119 70 -169 180 -169c55 0 110 15 153 38v381c-43 15 -106 26 -155 26c-112 0 -178 -53 -178 -168v-108zM407 735c-9 -78 -62 -136 -145 -136s-135 58 -144 136c-1 4 1 6 5 7l16 2c4 0 6 -1 7 -5c9 -67 48 -113 116 -113c69 0 107 46 116 113c1 4 3 6 8 5l15 -2
c4 0 7 -3 6 -7z" />
    <glyph glyph-name="uni0123" unicode="&#x123;" horiz-adv-x="530" 
d="M454 -15c0 -108 -60 -185 -196 -185c-76 0 -136 30 -188 80c-2 2 -2 4 0 8l10 14c2 3 5 4 8 1c45 -42 97 -73 170 -73c115 0 165 62 164 156v70c-45 -23 -102 -37 -154 -37c-130 0 -211 67 -211 199v108c0 138 85 198 211 198c61 0 131 -14 181 -36c4 -1 5 -4 5 -7v-496z
M89 218c0 -119 70 -169 180 -169c55 0 110 15 153 38v381c-43 15 -106 26 -155 26c-112 0 -178 -53 -178 -168v-108zM256 599h-20c-4 0 -7 3 -5 8l48 144c1 3 3 5 6 5h13c4 0 7 -3 5 -8l-41 -143c-1 -3 -2 -6 -6 -6z" />
    <glyph glyph-name="gdotaccent" unicode="&#x121;" horiz-adv-x="530" 
d="M454 -15c0 -108 -60 -185 -196 -185c-76 0 -136 30 -188 80c-2 2 -2 4 0 8l10 14c2 3 5 4 8 1c45 -42 97 -73 170 -73c115 0 165 62 164 156v70c-45 -23 -102 -37 -154 -37c-130 0 -211 67 -211 199v108c0 138 85 198 211 198c61 0 131 -14 181 -36c4 -1 5 -4 5 -7v-496z
M89 218c0 -119 70 -169 180 -169c55 0 110 15 153 38v381c-43 15 -106 26 -155 26c-112 0 -178 -53 -178 -168v-108zM287 652c0 -16 -11 -27 -27 -27s-27 11 -27 27s11 28 27 28s27 -12 27 -28z" />
    <glyph glyph-name="h" unicode="h" 
d="M109 486c47 23 101 38 157 38c130 0 210 -65 210 -203v-315c0 -4 -2 -6 -6 -6h-19c-4 0 -7 2 -7 6v315c0 119 -64 173 -179 173c-56 0 -111 -15 -156 -39v-449c0 -4 -2 -6 -6 -6h-20c-3 0 -6 2 -6 6v703c0 4 3 6 6 6h20c4 0 6 -2 6 -6v-223z" />
    <glyph glyph-name="hbar" unicode="&#x127;" 
d="M109 484c47 23 100 38 156 38c131 0 211 -66 211 -203v-313c0 -4 -2 -6 -6 -6h-20c-3 0 -6 2 -6 6v312c0 120 -65 174 -180 174c-56 0 -110 -16 -155 -39v-447c0 -4 -3 -6 -6 -6h-20c-4 0 -6 2 -6 6v598h-76c-4 0 -6 2 -6 6v14c0 4 2 6 6 6h76v79c0 4 2 6 6 6h20
c3 0 6 -2 6 -6v-79h178c3 0 6 -2 6 -6v-14c0 -4 -3 -6 -6 -6h-178v-120z" />
    <glyph glyph-name="i" unicode="i" horiz-adv-x="186" 
d="M103 0h-20c-4 0 -6 2 -6 6v501c0 4 2 7 6 7h20c4 0 6 -3 6 -7v-501c0 -4 -2 -6 -6 -6zM119 652c0 -15 -11 -25 -26 -25s-26 10 -26 25c0 16 11 26 26 26s26 -10 26 -26z" />
    <glyph glyph-name="dotlessi" unicode="&#x131;" horiz-adv-x="186" 
d="M103 0h-20c-3 0 -6 2 -6 6v501c0 4 3 7 6 7h20c4 0 6 -3 6 -7v-501c0 -4 -2 -6 -6 -6z" />
    <glyph glyph-name="iacute" unicode="&#xed;" horiz-adv-x="186" 
d="M103 0h-20c-3 0 -6 2 -6 6v501c0 4 3 7 6 7h20c4 0 6 -3 6 -7v-501c0 -4 -2 -6 -6 -6zM89 599h-15c-5 0 -8 3 -5 8l83 134c1 2 5 4 7 4h25c5 0 6 -3 3 -8l-90 -134c-2 -2 -5 -4 -8 -4z" />
    <glyph glyph-name="icircumflex" unicode="&#xee;" horiz-adv-x="186" 
d="M102 0h-19c-4 0 -6 2 -6 6v501c0 4 2 7 6 7h19c4 0 7 -3 7 -7v-501c0 -4 -3 -6 -7 -6zM-1 599h-19c-5 0 -6 4 -4 8l100 134c1 2 5 4 7 4h20c3 0 6 -2 8 -4l100 -134c2 -4 1 -8 -4 -8h-19c-3 0 -7 2 -8 4l-87 120l-86 -120c-2 -2 -5 -4 -8 -4z" />
    <glyph glyph-name="idieresis" unicode="&#xef;" horiz-adv-x="186" 
d="M102 0h-19c-4 0 -6 2 -6 6v501c0 4 2 7 6 7h19c4 0 7 -3 7 -7v-501c0 -4 -3 -6 -7 -6zM54 652c0 -14 -10 -25 -25 -25s-25 11 -25 25c0 15 10 26 25 26s25 -11 25 -26zM181 652c0 -14 -10 -25 -25 -25s-25 11 -25 25c0 15 10 26 25 26s25 -11 25 -26z" />
    <glyph glyph-name="idotaccent" horiz-adv-x="186" 
d="M103 0h-20c-3 0 -6 2 -6 6v501c0 4 3 7 6 7h20c4 0 6 -3 6 -7v-501c0 -4 -2 -6 -6 -6zM120 652c0 -16 -11 -27 -27 -27s-27 11 -27 27s11 28 27 28s27 -12 27 -28z" />
    <glyph glyph-name="igrave" unicode="&#xec;" horiz-adv-x="186" 
d="M103 0h-20c-3 0 -6 2 -6 6v501c0 4 3 7 6 7h20c4 0 6 -3 6 -7v-501c0 -4 -2 -6 -6 -6zM117 599h-15c-3 0 -6 2 -8 4l-90 134c-3 5 -2 8 3 8h25c2 0 6 -2 7 -4l83 -134c3 -5 0 -8 -5 -8z" />
    <glyph glyph-name="ij" unicode="&#x133;" horiz-adv-x="453" 
d="M103 0h-20c-4 0 -6 2 -6 6v501c0 4 2 7 6 7h20c4 0 6 -3 6 -7v-501c0 -4 -2 -6 -6 -6zM119 652c0 -15 -11 -25 -26 -25s-26 10 -26 25c0 16 11 26 26 26s26 -10 26 -26zM376 -35c0 -117 -50 -165 -126 -165c-17 0 -35 1 -51 4c-4 1 -6 4 -6 8v16c0 4 1 7 6 6
c17 -3 37 -4 49 -4c58 0 96 34 96 135v542c0 4 2 7 6 7h20c4 0 6 -3 6 -7v-542zM386 652c0 -15 -11 -25 -26 -25s-26 10 -26 25c0 16 11 26 26 26s26 -10 26 -26z" />
    <glyph glyph-name="imacron" unicode="&#x12b;" horiz-adv-x="186" 
d="M185 645h-183c-4 0 -6 2 -6 6v15c0 4 2 6 6 6h183c3 0 6 -2 6 -6v-15c0 -4 -3 -6 -6 -6zM103 0h-19c-4 0 -7 2 -7 6v501c0 4 3 7 7 7h19c4 0 6 -3 6 -7v-501c0 -4 -2 -6 -6 -6z" />
    <glyph glyph-name="iogonek" unicode="&#x12f;" horiz-adv-x="186" 
d="M170 -176c-22 -14 -50 -22 -77 -22c-50 0 -82 26 -82 80c0 43 26 87 69 121l-1 1c-1 2 -2 4 -2 7v496c0 4 3 7 6 7h20c4 0 6 -3 6 -7v-502c0 -3 -1 -6 -4 -8c-47 -40 -65 -78 -65 -111c0 -38 20 -55 57 -55c17 0 41 5 63 19c3 2 6 1 7 -3l6 -14c1 -4 0 -7 -3 -9zM120 652
c0 -16 -11 -26 -27 -26s-26 10 -26 26s10 27 26 27s27 -11 27 -27z" />
    <glyph glyph-name="j" unicode="j" horiz-adv-x="194" 
d="M117 -35c0 -117 -50 -165 -126 -165c-17 0 -35 1 -51 4c-4 1 -6 4 -6 8v16c0 4 1 7 6 6c17 -3 37 -4 49 -4c58 0 96 34 96 135v542c0 4 2 7 6 7h20c4 0 6 -3 6 -7v-542zM127 652c0 -15 -11 -25 -26 -25s-26 10 -26 25c0 16 11 26 26 26s26 -10 26 -26z" />
    <glyph glyph-name="uni0237" unicode="&#x237;" horiz-adv-x="194" 
d="M117 -35c0 -117 -50 -165 -126 -165c-16 0 -35 2 -51 4c-4 1 -6 4 -6 8v16c0 4 2 7 6 6c17 -3 37 -4 48 -4c60 0 97 33 97 132v545c0 4 2 7 6 7h20c4 0 6 -3 6 -7v-542z" />
    <glyph glyph-name="k" unicode="k" horiz-adv-x="476" 
d="M459 0h-26c-3 0 -6 1 -8 4l-237 267l-79 -69v-196c0 -4 -2 -6 -6 -6h-20c-3 0 -6 2 -6 6v703c0 4 3 6 6 6h20c4 0 6 -2 6 -6v-467l304 269c2 3 5 3 8 3h27c5 0 6 -4 3 -8l-240 -214l251 -284c4 -5 2 -8 -3 -8z" />
    <glyph glyph-name="uni0137" unicode="&#x137;" horiz-adv-x="476" 
d="M459 0h-26c-3 0 -6 1 -8 4l-237 267l-79 -69v-196c0 -4 -2 -6 -6 -6h-20c-3 0 -6 2 -6 6v703c0 4 3 6 6 6h20c4 0 6 -2 6 -6v-467l304 269c2 3 5 3 8 3h27c5 0 6 -4 3 -8l-240 -214l251 -284c4 -5 2 -8 -3 -8zM229 -229h-13c-4 0 -7 2 -6 7l38 143c1 3 3 6 6 6h20
c4 0 6 -3 5 -8l-43 -143c-2 -3 -3 -5 -7 -5z" />
    <glyph glyph-name="l" unicode="l" horiz-adv-x="270" 
d="M258 -6c-17 -2 -42 -4 -58 -4c-77 0 -127 48 -127 165v554c0 4 2 6 6 6h20c4 0 6 -2 6 -6v-557c0 -95 37 -132 96 -132c14 0 37 1 57 4c4 0 6 -1 6 -5v-17c0 -4 -2 -7 -6 -8z" />
    <glyph glyph-name="lacute" unicode="&#x13a;" horiz-adv-x="270" 
d="M257 -6c-17 -2 -42 -4 -58 -4c-77 0 -127 48 -127 165v554c0 4 2 6 6 6h20c4 0 6 -2 6 -6v-557c0 -95 37 -132 96 -132c14 0 37 1 57 4c4 0 6 -1 6 -5v-17c0 -4 -2 -7 -6 -8zM211 927l-116 -134c-2 -3 -5 -4 -8 -4h-18c-5 0 -6 4 -3 8l107 133c1 3 5 4 7 4h28
c5 0 7 -3 3 -7z" />
    <glyph glyph-name="lcaron" unicode="&#x13e;" horiz-adv-x="282" 
d="M258 -6c-17 -2 -42 -4 -58 -4c-77 0 -127 48 -127 165v554c0 4 3 6 7 6h19c4 0 6 -2 6 -6v-557c0 -95 38 -132 97 -132c13 0 36 1 55 4c4 0 7 -1 7 -5v-17c0 -4 -3 -7 -6 -8zM225 569h-13c-4 0 -7 3 -6 7l41 134c2 3 3 5 7 5h19c4 0 7 -3 5 -7l-47 -134
c-1 -3 -3 -5 -6 -5z" />
    <glyph glyph-name="uni013C" unicode="&#x13c;" horiz-adv-x="270" 
d="M258 -6c-17 -2 -42 -4 -58 -4c-77 0 -127 48 -127 165v554c0 4 2 6 6 6h20c4 0 6 -2 6 -6v-557c0 -95 37 -132 96 -132c14 0 37 1 57 4c4 0 6 -1 6 -5v-17c0 -4 -2 -7 -6 -8zM154 -229h-13c-4 0 -7 2 -6 7l38 143c1 3 3 6 6 6h20c4 0 6 -3 5 -8l-43 -143
c-2 -3 -3 -5 -7 -5z" />
    <glyph glyph-name="ldot" unicode="&#x140;" horiz-adv-x="284" 
d="M258 -6c-17 -2 -42 -4 -58 -4c-77 0 -127 48 -127 165v554c0 4 3 6 6 6h20c4 0 6 -2 6 -6v-557c0 -95 38 -132 97 -132c13 0 35 1 55 4c4 0 7 -1 7 -5v-17c0 -4 -3 -7 -6 -8zM257 332c0 -15 -10 -26 -26 -26c-15 0 -26 11 -26 26c0 16 11 26 26 26c16 0 26 -10 26 -26z
" />
    <glyph glyph-name="lslash" unicode="&#x142;" horiz-adv-x="346" 
d="M300 -6c-17 -2 -41 -4 -57 -4c-77 0 -127 48 -127 165v148l-83 -60c-5 -4 -8 0 -8 4v19c0 3 1 6 4 8l87 63v372c0 4 2 6 6 6h20c3 0 6 -2 6 -6v-349l146 106c4 4 7 0 7 -5v-19c0 -2 -1 -5 -4 -7l-149 -109v-174c0 -95 37 -132 96 -132c14 0 36 1 56 4c4 0 6 -1 6 -5v-17
c0 -4 -2 -7 -6 -8z" />
    <glyph glyph-name="m" unicode="m" horiz-adv-x="803" 
d="M377 474c44 30 97 50 160 50c118 0 194 -68 194 -189v-329c0 -4 -3 -6 -7 -6h-19c-4 0 -6 2 -6 6v330c0 101 -60 158 -163 158c-56 0 -106 -18 -142 -43c18 -30 28 -69 28 -115v-330c0 -4 -3 -6 -6 -6h-20c-4 0 -6 2 -6 6v330c0 98 -42 158 -148 158
c-50 0 -92 -11 -134 -28v-460c0 -4 -2 -6 -6 -6h-20c-3 0 -6 2 -6 6v473c0 3 2 6 5 8c50 23 102 37 160 37c61 0 104 -17 136 -50z" />
    <glyph glyph-name="n" unicode="n" horiz-adv-x="547" 
d="M102 0h-20c-3 0 -6 2 -6 6v472c0 3 2 6 5 8c54 24 117 38 182 38c133 0 212 -67 212 -202v-316c0 -4 -2 -6 -6 -6h-19c-4 0 -7 2 -7 6v315c0 116 -65 173 -180 173c-55 0 -111 -12 -155 -29v-459c0 -4 -2 -6 -6 -6z" />
    <glyph glyph-name="nacute" unicode="&#x144;" horiz-adv-x="547" 
d="M102 0h-20c-3 0 -6 2 -6 6v472c0 3 2 6 5 8c54 24 117 38 182 38c133 0 212 -67 212 -202v-316c0 -4 -2 -6 -6 -6h-19c-4 0 -7 2 -7 6v315c0 116 -65 173 -180 173c-55 0 -111 -12 -155 -29v-459c0 -4 -2 -6 -6 -6zM245 599h-15c-5 0 -8 3 -5 8l83 134c1 2 5 4 7 4h25
c5 0 6 -3 3 -8l-90 -134c-2 -2 -5 -4 -8 -4z" />
    <glyph glyph-name="ncaron" unicode="&#x148;" horiz-adv-x="547" 
d="M102 0h-20c-3 0 -6 2 -6 6v472c0 3 2 6 5 8c54 24 117 38 182 38c133 0 212 -67 212 -202v-316c0 -4 -2 -6 -6 -6h-19c-4 0 -7 2 -7 6v315c0 116 -65 173 -180 173c-55 0 -111 -12 -155 -29v-459c0 -4 -2 -6 -6 -6zM145 745h20c3 0 6 -2 8 -4l98 -117l98 117c1 2 5 4 7 4
h21c5 0 7 -3 3 -8l-113 -134c-2 -2 -5 -4 -8 -4h-16c-3 0 -6 2 -8 4l-114 134c-3 5 -1 8 4 8z" />
    <glyph glyph-name="uni0146" unicode="&#x146;" horiz-adv-x="547" 
d="M102 0h-20c-3 0 -6 2 -6 6v472c0 3 2 6 5 8c54 24 117 38 182 38c133 0 212 -67 212 -202v-316c0 -4 -2 -6 -6 -6h-19c-4 0 -7 2 -7 6v315c0 116 -65 173 -180 173c-55 0 -111 -12 -155 -29v-459c0 -4 -2 -6 -6 -6zM248 -229h-13c-4 0 -7 2 -6 7l38 143c1 3 3 6 6 6h20
c4 0 6 -3 5 -8l-43 -143c-2 -3 -3 -5 -7 -5z" />
    <glyph glyph-name="eng" unicode="&#x14b;" horiz-adv-x="547" 
d="M475 -34c0 -119 -49 -166 -125 -166c-17 0 -34 1 -51 5c-4 1 -6 3 -6 7v16c0 4 2 7 6 6c18 -3 37 -4 49 -4c57 0 95 36 95 136v355c0 116 -65 173 -180 173c-55 0 -111 -12 -155 -29v-459c0 -4 -2 -6 -6 -6h-20c-3 0 -6 2 -6 6v472c0 3 2 5 4 8c55 24 118 38 183 38
c133 0 212 -67 212 -202v-356z" />
    <glyph glyph-name="ntilde" unicode="&#xf1;" horiz-adv-x="547" 
d="M102 0h-20c-3 0 -6 2 -6 6v472c0 3 2 6 5 8c54 24 117 38 182 38c133 0 212 -67 212 -202v-316c0 -4 -2 -6 -6 -6h-19c-4 0 -7 2 -7 6v315c0 116 -65 173 -180 173c-55 0 -111 -12 -155 -29v-459c0 -4 -2 -6 -6 -6zM408 675c-9 -27 -35 -53 -68 -53c-23 0 -46 12 -68 23
c-22 12 -42 23 -65 23c-22 0 -38 -15 -47 -36c-2 -4 -5 -4 -8 -3l-12 6c-4 3 -5 5 -3 9c10 25 34 51 69 51c26 0 48 -13 71 -24c20 -10 39 -22 61 -22c21 0 36 13 47 37c1 3 4 5 7 3l12 -6c3 -2 5 -4 4 -8z" />
    <glyph glyph-name="o" unicode="o" horiz-adv-x="532" 
d="M474 178c0 -106 -72 -188 -208 -188c-135 0 -208 82 -208 188v158c0 105 73 188 208 188c136 0 208 -83 208 -188v-158zM90 178c0 -89 59 -159 176 -159c118 0 176 70 176 159v158c0 88 -58 158 -176 158c-117 0 -176 -70 -176 -158v-158z" />
    <glyph glyph-name="oacute" unicode="&#xf3;" horiz-adv-x="532" 
d="M474 178c0 -106 -72 -188 -208 -188c-135 0 -208 82 -208 188v158c0 105 73 188 208 188c136 0 208 -83 208 -188v-158zM90 178c0 -89 59 -159 176 -159c118 0 176 70 176 159v158c0 88 -58 158 -176 158c-117 0 -176 -70 -176 -158v-158zM239 599h-15c-5 0 -8 3 -5 8
l83 134c1 2 5 4 7 4h25c5 0 6 -3 3 -8l-90 -134c-2 -2 -5 -4 -8 -4z" />
    <glyph glyph-name="ocircumflex" unicode="&#xf4;" horiz-adv-x="532" 
d="M474 178c0 -106 -72 -188 -208 -188c-135 0 -208 82 -208 188v158c0 105 73 188 208 188c136 0 208 -83 208 -188v-158zM90 178c0 -89 59 -159 176 -159c118 0 176 70 176 159v158c0 88 -58 158 -176 158c-117 0 -176 -70 -176 -158v-158zM160 599h-20c-5 0 -7 3 -4 8
l114 134c2 2 5 4 8 4h16c3 0 6 -2 8 -4l113 -134c4 -5 2 -8 -3 -8h-21c-2 0 -6 2 -7 4l-98 117l-98 -117c-2 -2 -5 -4 -8 -4z" />
    <glyph glyph-name="odieresis" unicode="&#xf6;" horiz-adv-x="532" 
d="M474 178c0 -106 -72 -188 -208 -188c-135 0 -208 82 -208 188v158c0 105 73 188 208 188c136 0 208 -83 208 -188v-158zM90 178c0 -89 59 -159 176 -159c118 0 176 70 176 159v158c0 88 -58 158 -176 158c-117 0 -176 -70 -176 -158v-158zM205 652c0 -15 -10 -25 -25 -25
s-25 10 -25 25c0 16 10 26 25 26s25 -10 25 -26zM378 652c0 -15 -10 -25 -25 -25s-26 10 -26 25c0 16 11 26 26 26s25 -10 25 -26z" />
    <glyph glyph-name="ograve" unicode="&#xf2;" horiz-adv-x="532" 
d="M474 178c0 -106 -72 -188 -208 -188c-135 0 -208 82 -208 188v158c0 105 73 188 208 188c136 0 208 -83 208 -188v-158zM90 178c0 -89 59 -159 176 -159c118 0 176 70 176 159v158c0 88 -58 158 -176 158c-117 0 -176 -70 -176 -158v-158zM290 599h-15c-3 0 -6 2 -8 4
l-90 134c-3 5 -2 8 3 8h25c2 0 6 -2 7 -4l83 -134c3 -5 0 -8 -5 -8z" />
    <glyph glyph-name="ohungarumlaut" unicode="&#x151;" horiz-adv-x="532" 
d="M474 178c0 -106 -72 -188 -208 -188c-135 0 -208 82 -208 188v158c0 105 73 188 208 188c136 0 208 -83 208 -188v-158zM90 178c0 -89 59 -159 176 -159c118 0 176 70 176 159v158c0 88 -58 158 -176 158c-117 0 -176 -70 -176 -158v-158zM196 599h-14c-5 0 -7 3 -5 8
l76 134c2 2 5 4 8 4h22c5 0 6 -3 3 -8l-82 -134c-2 -2 -5 -4 -8 -4zM315 599h-14c-5 0 -7 3 -5 8l78 134c1 2 5 4 7 4h22c5 0 7 -3 4 -8l-84 -134c-1 -2 -5 -4 -8 -4z" />
    <glyph glyph-name="omacron" unicode="&#x14d;" horiz-adv-x="532" 
d="M474 178c0 -106 -72 -188 -208 -188c-135 0 -208 82 -208 188v158c0 105 73 188 208 188c136 0 208 -83 208 -188v-158zM90 178c0 -89 59 -159 176 -159c118 0 176 70 176 159v158c0 88 -58 158 -176 158c-117 0 -176 -70 -176 -158v-158zM143 656v14c0 4 2 7 6 7h234
c4 0 7 -3 7 -7v-14c0 -4 -3 -7 -7 -7h-234c-4 0 -6 3 -6 7z" />
    <glyph glyph-name="oslash" unicode="&#xf8;" horiz-adv-x="532" 
d="M83 -53h-18c-5 0 -6 3 -4 8l54 87c-37 34 -57 82 -57 136v158c0 105 73 188 208 188c52 0 93 -12 125 -32l51 83c2 2 5 4 8 4h18c5 0 6 -3 4 -8l-59 -95c41 -34 61 -84 61 -140v-158c0 -106 -72 -188 -208 -188c-54 0 -97 13 -129 36l-47 -75c-1 -3 -5 -4 -7 -4zM91 178
c0 -42 13 -80 40 -108l245 395c-28 19 -64 29 -110 29c-117 0 -175 -70 -175 -158v-158zM266 19c119 0 176 70 176 159v158c0 44 -15 84 -45 112l-245 -396c28 -20 66 -33 114 -33z" />
    <glyph glyph-name="otilde" unicode="&#xf5;" horiz-adv-x="532" 
d="M474 178c0 -106 -72 -188 -208 -188c-135 0 -208 82 -208 188v158c0 105 73 188 208 188c136 0 208 -83 208 -188v-158zM90 178c0 -89 59 -159 176 -159c118 0 176 70 176 159v158c0 88 -58 158 -176 158c-117 0 -176 -70 -176 -158v-158zM402 675
c-9 -27 -35 -53 -68 -53c-23 0 -46 12 -68 23c-22 12 -42 23 -65 23c-22 0 -38 -15 -47 -36c-2 -4 -5 -4 -8 -3l-12 6c-4 3 -5 5 -3 9c10 25 34 51 69 51c26 0 48 -13 71 -24c20 -10 39 -22 61 -22c21 0 36 13 47 37c1 3 4 5 7 3l12 -6c3 -2 5 -4 4 -8z" />
    <glyph glyph-name="oe" unicode="&#x153;" horiz-adv-x="891" 
d="M641 -10c-80 0 -155 40 -184 111c-27 -67 -90 -111 -191 -111c-135 0 -208 82 -208 188v158c0 105 73 188 208 188c100 0 165 -47 191 -113c28 74 97 113 184 113c116 0 199 -69 199 -190v-90c0 -4 -3 -6 -7 -6h-359v-66c0 -96 77 -153 167 -153c79 0 132 37 170 72
c3 2 6 2 9 -1l11 -13c3 -3 3 -6 -1 -9c-43 -39 -104 -78 -189 -78zM90 178c0 -89 59 -159 176 -159c118 0 176 67 176 159v158c0 88 -58 158 -176 158c-117 0 -176 -70 -176 -158v-158zM474 334v-68h334v68c0 102 -67 160 -167 160c-102 0 -167 -57 -167 -160z" />
    <glyph glyph-name="p" unicode="p" horiz-adv-x="532" 
d="M80 488c55 23 118 36 183 36c131 0 212 -66 212 -214v-106c0 -145 -80 -214 -211 -214c-58 0 -114 17 -156 45v-219c0 -4 -2 -6 -6 -6h-20c-3 0 -6 2 -6 6v665c0 3 2 6 4 7zM263 19c115 0 179 56 179 185v106c0 130 -65 185 -179 185c-56 0 -110 -11 -155 -28v-399
c44 -30 99 -49 155 -49z" />
    <glyph glyph-name="thorn" unicode="&#xfe;" horiz-adv-x="533" 
d="M109 492c45 20 106 32 157 32c126 0 209 -64 209 -192v-150c0 -127 -83 -192 -209 -192c-51 0 -111 12 -157 32v-206c0 -4 -2 -7 -6 -7h-20c-3 0 -6 3 -6 7v892c0 4 3 6 6 6h20c4 0 6 -2 6 -6v-216zM265 19c111 0 178 55 178 166v143c0 112 -65 168 -180 166
c-51 0 -110 -13 -154 -32v-410c46 -20 106 -33 156 -33z" />
    <glyph glyph-name="q" unicode="q" horiz-adv-x="532" 
d="M57 310c0 148 81 214 212 214c64 0 128 -13 182 -35c3 -1 5 -5 5 -8v-665c0 -4 -3 -6 -7 -6h-19c-4 0 -6 2 -6 6v219c-43 -27 -98 -45 -156 -45c-131 0 -211 69 -211 214v106zM89 204c0 -129 65 -185 180 -185c56 0 111 19 155 48v401c-45 16 -99 27 -155 27
c-114 0 -180 -55 -180 -185v-106z" />
    <glyph glyph-name="r" unicode="r" horiz-adv-x="373" 
d="M102 0h-20c-3 0 -6 2 -6 6v476c0 3 2 6 5 7c48 23 111 35 168 35c34 0 69 -4 101 -9c5 -1 6 -3 6 -7v-17c0 -4 -2 -6 -6 -5c-31 5 -66 8 -99 8c-48 0 -100 -9 -143 -26v-462c0 -4 -2 -6 -6 -6z" />
    <glyph glyph-name="racute" unicode="&#x155;" horiz-adv-x="373" 
d="M102 0h-20c-3 0 -6 2 -6 6v476c0 3 2 6 5 7c48 23 111 35 168 35c34 0 69 -4 101 -9c5 -1 6 -3 6 -7v-17c0 -4 -2 -6 -6 -5c-31 5 -66 8 -99 8c-48 0 -100 -9 -143 -26v-462c0 -4 -2 -6 -6 -6zM190 599h-15c-5 0 -8 3 -5 8l83 134c1 2 5 4 7 4h25c5 0 6 -3 3 -8l-90 -134
c-2 -2 -5 -4 -8 -4z" />
    <glyph glyph-name="rcaron" unicode="&#x159;" horiz-adv-x="373" 
d="M102 0h-20c-3 0 -6 2 -6 6v476c0 3 2 6 5 7c48 23 111 35 168 35c34 0 69 -4 101 -9c5 -1 6 -3 6 -7v-17c0 -4 -2 -6 -6 -5c-31 5 -66 8 -99 8c-48 0 -100 -9 -143 -26v-462c0 -4 -2 -6 -6 -6zM94 745h20c3 0 6 -2 8 -4l98 -117l98 117c1 2 5 4 7 4h21c5 0 7 -3 3 -8
l-113 -134c-2 -2 -5 -4 -8 -4h-16c-3 0 -6 2 -8 4l-114 134c-3 5 -1 8 4 8z" />
    <glyph glyph-name="uni0157" unicode="&#x157;" horiz-adv-x="373" 
d="M102 0h-20c-3 0 -6 2 -6 6v476c0 3 2 6 5 7c48 23 111 35 168 35c34 0 69 -4 101 -9c5 -1 6 -3 6 -7v-17c0 -4 -2 -6 -6 -5c-31 5 -66 8 -99 8c-48 0 -100 -9 -143 -26v-462c0 -4 -2 -6 -6 -6zM69 -229h-13c-4 0 -7 2 -6 7l38 143c1 3 3 6 6 6h20c4 0 6 -3 5 -8l-43 -143
c-2 -3 -3 -5 -7 -5z" />
    <glyph glyph-name="s" unicode="s" horiz-adv-x="461" 
d="M422 134c0 -85 -67 -144 -189 -144c-74 0 -136 22 -190 64c-4 2 -4 6 -2 9l10 15c2 3 5 4 8 1c52 -39 108 -60 174 -60c93 0 157 40 157 114c0 82 -83 99 -157 114c-82 17 -184 47 -184 147c0 82 76 130 176 130c73 0 126 -20 176 -49c3 -2 4 -5 2 -8l-9 -15
c-1 -3 -5 -4 -8 -2c-46 26 -103 44 -162 44c-83 0 -144 -37 -144 -100c0 -78 81 -101 159 -117c90 -19 183 -42 183 -143z" />
    <glyph glyph-name="sacute" unicode="&#x15b;" horiz-adv-x="461" 
d="M422 134c0 -85 -67 -144 -189 -144c-74 0 -136 22 -190 64c-4 2 -4 6 -2 9l10 15c2 3 5 4 8 1c52 -39 108 -60 174 -60c93 0 157 40 157 114c0 82 -83 99 -157 114c-82 17 -184 47 -184 147c0 82 76 130 176 130c73 0 126 -20 176 -49c3 -2 4 -5 2 -8l-9 -15
c-1 -3 -5 -4 -8 -2c-46 26 -103 44 -162 44c-83 0 -144 -37 -144 -100c0 -78 81 -101 159 -117c90 -19 183 -42 183 -143zM206 599h-15c-5 0 -8 3 -5 8l83 134c1 2 5 4 7 4h25c5 0 6 -3 3 -8l-90 -134c-2 -2 -5 -4 -8 -4z" />
    <glyph glyph-name="scaron" unicode="&#x161;" horiz-adv-x="461" 
d="M422 134c0 -85 -67 -144 -189 -144c-74 0 -136 22 -190 64c-4 2 -4 6 -2 9l10 15c2 3 5 4 8 1c52 -39 108 -60 174 -60c93 0 157 40 157 114c0 82 -83 99 -157 114c-82 17 -184 47 -184 147c0 82 76 130 176 130c73 0 126 -20 176 -49c3 -2 4 -5 2 -8l-9 -15
c-1 -3 -5 -4 -8 -2c-46 26 -103 44 -162 44c-83 0 -144 -37 -144 -100c0 -78 81 -101 159 -117c90 -19 183 -42 183 -143zM108 745h20c3 0 6 -2 8 -4l98 -117l98 117c1 2 5 4 7 4h21c5 0 7 -3 3 -8l-113 -134c-2 -2 -5 -4 -8 -4h-16c-3 0 -6 2 -8 4l-114 134c-3 5 -1 8 4 8z
" />
    <glyph glyph-name="scedilla" unicode="&#x15f;" horiz-adv-x="461" 
d="M319 -127c0 -45 -37 -76 -98 -76c-19 0 -40 3 -59 9c-4 2 -5 5 -5 8v11c0 4 2 6 7 5c19 -6 39 -9 55 -9c46 0 71 20 71 53s-22 48 -82 49c-4 0 -6 1 -8 4c-1 1 -1 5 0 7l21 56c-69 3 -127 24 -178 64c-4 2 -4 6 -2 9l10 15c2 3 5 4 8 1c52 -39 108 -60 174 -60
c93 0 157 40 157 114c0 82 -83 99 -157 114c-82 17 -184 47 -184 147c0 82 76 130 176 130c73 0 126 -20 176 -49c3 -2 4 -5 2 -8l-9 -15c-1 -3 -5 -4 -8 -2c-46 26 -103 44 -162 44c-83 0 -144 -37 -144 -100c0 -78 81 -101 159 -117c90 -19 183 -42 183 -143
c0 -82 -62 -140 -176 -144l-18 -49c56 0 91 -23 91 -68z" />
    <glyph glyph-name="uni0219" unicode="&#x219;" horiz-adv-x="461" 
d="M422 134c0 -85 -67 -144 -189 -144c-74 0 -136 22 -190 64c-4 2 -4 6 -2 9l10 15c2 3 5 4 8 1c52 -39 108 -60 174 -60c93 0 157 40 157 114c0 82 -83 99 -157 114c-82 17 -184 47 -184 147c0 82 76 130 176 130c73 0 126 -20 176 -49c3 -2 4 -5 2 -8l-9 -15
c-1 -3 -5 -4 -8 -2c-46 26 -103 44 -162 44c-83 0 -144 -37 -144 -100c0 -78 81 -101 159 -117c90 -19 183 -42 183 -143zM203 -229h-13c-4 0 -7 2 -6 7l38 143c1 3 3 6 6 6h20c4 0 6 -3 5 -8l-43 -143c-2 -3 -3 -5 -7 -5z" />
    <glyph glyph-name="germandbls" unicode="&#xdf;" horiz-adv-x="536" 
d="M458 538c0 -85 -41 -137 -107 -158c95 -23 135 -92 135 -186c0 -130 -79 -203 -218 -203c-28 0 -72 7 -108 23c-4 1 -5 4 -5 7v19c0 4 2 6 7 4c34 -14 77 -22 104 -22c122 0 188 60 188 173c0 87 -41 169 -176 169h-106c-4 0 -6 2 -6 6v17c0 4 2 6 6 6h106
c115 0 148 78 148 145c0 104 -55 158 -162 158c-101 0 -155 -58 -155 -170v-520c0 -4 -2 -6 -6 -6h-20c-3 0 -6 2 -6 6v520c0 130 70 199 187 199c122 0 194 -65 194 -187z" />
    <glyph glyph-name="t" unicode="t" horiz-adv-x="303" 
d="M105 155c0 -84 42 -133 122 -133c15 0 40 1 60 3c4 0 6 -2 6 -6v-17c0 -4 -2 -6 -6 -7c-19 -2 -46 -3 -60 -3c-96 0 -154 59 -154 162v483c0 4 2 6 6 6h19c4 0 6 -2 7 -6v-124h169c3 0 6 -3 6 -6v-17c0 -4 -3 -7 -6 -7h-169v-328z" />
    <glyph glyph-name="tbar" unicode="&#x167;" horiz-adv-x="306" 
d="M290 -5c-20 -2 -46 -3 -61 -3c-95 0 -153 59 -153 162v113h-50c-4 0 -7 2 -7 6v14c0 4 3 6 7 6h50v344c0 4 2 6 6 6h18c4 0 6 -2 6 -6l2 -124h168c4 0 7 -3 7 -6v-17c0 -4 -3 -7 -7 -7h-168v-190h125c4 0 6 -2 6 -6v-14c0 -4 -2 -6 -6 -6h-125v-112
c0 -84 42 -133 122 -133c14 0 40 1 60 3c4 0 6 -2 6 -6v-17c0 -4 -2 -6 -6 -7z" />
    <glyph glyph-name="tcaron" unicode="&#x165;" horiz-adv-x="303" 
d="M287 -5c-19 -2 -46 -3 -60 -3c-96 0 -154 59 -154 162v483c0 4 2 6 6 6h18c4 0 6 -2 7 -6l1 -124h169c3 0 6 -3 6 -6v-17c0 -4 -3 -7 -6 -7h-169v-328c0 -84 42 -133 122 -133c15 0 40 1 60 3c4 0 6 -2 6 -6v-17c0 -4 -2 -6 -6 -7zM224 589h-12c-4 0 -7 2 -6 7l42 143
c1 3 3 6 7 6h19c4 0 7 -3 5 -8l-48 -143c-2 -3 -3 -5 -7 -5z" />
    <glyph glyph-name="uni0163" unicode="&#x163;" horiz-adv-x="303" 
d="M130 -229h-13c-4 0 -7 2 -6 7l38 143c1 3 3 6 6 6h20c4 0 6 -3 5 -8l-43 -143c-2 -3 -3 -5 -7 -5zM105 155c0 -84 42 -133 122 -133c15 0 40 1 60 3c4 0 6 -2 6 -6v-17c0 -4 -2 -6 -6 -7c-19 -2 -46 -3 -60 -3c-96 0 -154 59 -154 162v483c0 4 2 6 6 6h19c4 0 6 -2 7 -6
v-124h169c3 0 6 -3 6 -6v-17c0 -4 -3 -7 -6 -7h-169v-328z" />
    <glyph glyph-name="uni021B" unicode="&#x21b;" horiz-adv-x="303" 
d="M105 155c0 -84 42 -133 122 -133c15 0 40 1 60 3c4 0 6 -2 6 -6v-17c0 -4 -2 -6 -6 -7c-19 -2 -46 -3 -60 -3c-96 0 -154 59 -154 162v483c0 4 2 6 6 6h19c4 0 6 -2 7 -6v-124h169c3 0 6 -3 6 -6v-17c0 -4 -3 -7 -6 -7h-169v-328zM160 -229h-13c-4 0 -7 2 -6 7l38 143
c1 3 3 6 6 6h20c4 0 6 -3 5 -8l-43 -143c-2 -3 -3 -5 -7 -5z" />
    <glyph glyph-name="u" unicode="u" horiz-adv-x="540" 
d="M439 514h19c4 0 6 -3 6 -7v-471c0 -3 -1 -7 -5 -8c-52 -24 -114 -38 -178 -38c-129 0 -208 68 -208 202v315c0 4 2 7 6 7h20c4 0 6 -3 6 -7v-315c0 -116 64 -173 176 -173c55 0 107 13 151 30v458c0 4 3 7 7 7z" />
    <glyph glyph-name="uacute" unicode="&#xfa;" horiz-adv-x="540" 
d="M439 514h19c4 0 6 -3 6 -7v-471c0 -3 -1 -7 -5 -8c-52 -24 -114 -38 -178 -38c-129 0 -208 68 -208 202v315c0 4 2 7 6 7h20c4 0 6 -3 6 -7v-315c0 -116 64 -173 176 -173c55 0 107 13 151 30v458c0 4 3 7 7 7zM242 599h-15c-5 0 -8 3 -5 8l83 134c1 2 5 4 7 4h25
c5 0 6 -3 3 -8l-90 -134c-2 -2 -5 -4 -8 -4z" />
    <glyph glyph-name="ucircumflex" unicode="&#xfb;" horiz-adv-x="540" 
d="M439 514h19c4 0 6 -3 6 -7v-471c0 -3 -1 -7 -5 -8c-52 -24 -114 -38 -178 -38c-129 0 -208 68 -208 202v315c0 4 2 7 6 7h20c4 0 6 -3 6 -7v-315c0 -116 64 -173 176 -173c55 0 107 13 151 30v458c0 4 3 7 7 7zM163 599h-20c-5 0 -7 3 -4 8l114 134c2 2 5 4 8 4h16
c3 0 6 -2 8 -4l113 -134c4 -5 2 -8 -3 -8h-21c-2 0 -6 2 -7 4l-98 117l-98 -117c-2 -2 -5 -4 -8 -4z" />
    <glyph glyph-name="udieresis" unicode="&#xfc;" horiz-adv-x="540" 
d="M439 514h19c4 0 6 -3 6 -7v-471c0 -3 -1 -7 -5 -8c-52 -24 -114 -38 -178 -38c-129 0 -208 68 -208 202v315c0 4 2 7 6 7h20c4 0 6 -3 6 -7v-315c0 -116 64 -173 176 -173c55 0 107 13 151 30v458c0 4 3 7 7 7zM208 652c0 -15 -10 -25 -25 -25s-25 10 -25 25
c0 16 10 26 25 26s25 -10 25 -26zM381 652c0 -15 -10 -25 -25 -25s-26 10 -26 25c0 16 11 26 26 26s25 -10 25 -26z" />
    <glyph glyph-name="ugrave" unicode="&#xf9;" horiz-adv-x="540" 
d="M439 514h19c4 0 6 -3 6 -7v-471c0 -3 -1 -7 -5 -8c-52 -24 -114 -38 -178 -38c-129 0 -208 68 -208 202v315c0 4 2 7 6 7h20c4 0 6 -3 6 -7v-315c0 -116 64 -173 176 -173c55 0 107 13 151 30v458c0 4 3 7 7 7zM298 599h-15c-3 0 -6 2 -8 4l-90 134c-3 5 -2 8 3 8h25
c2 0 6 -2 7 -4l83 -134c3 -5 0 -8 -5 -8z" />
    <glyph glyph-name="uhungarumlaut" unicode="&#x171;" horiz-adv-x="540" 
d="M439 514h19c4 0 6 -3 6 -7v-471c0 -3 -1 -7 -5 -8c-52 -24 -114 -38 -178 -38c-129 0 -208 68 -208 202v315c0 4 2 7 6 7h20c4 0 6 -3 6 -7v-315c0 -116 64 -173 176 -173c55 0 107 13 151 30v458c0 4 3 7 7 7zM199 599h-14c-5 0 -7 3 -5 8l76 134c2 2 5 4 8 4h22
c5 0 6 -3 3 -8l-82 -134c-2 -2 -5 -4 -8 -4zM318 599h-14c-5 0 -7 3 -5 8l78 134c1 2 5 4 7 4h22c5 0 7 -3 4 -8l-84 -134c-1 -2 -5 -4 -8 -4z" />
    <glyph glyph-name="umacron" unicode="&#x16b;" horiz-adv-x="540" 
d="M439 514h19c4 0 6 -3 6 -7v-471c0 -3 -1 -7 -5 -8c-52 -24 -114 -38 -178 -38c-129 0 -208 68 -208 202v315c0 4 2 7 6 7h20c4 0 6 -3 6 -7v-315c0 -116 64 -173 176 -173c55 0 107 13 151 30v458c0 4 3 7 7 7zM146 656v14c0 4 2 7 6 7h234c4 0 7 -3 7 -7v-14
c0 -4 -3 -7 -7 -7h-234c-4 0 -6 3 -6 7z" />
    <glyph glyph-name="uogonek" unicode="&#x173;" horiz-adv-x="540" 
d="M443 -176c-22 -14 -50 -22 -76 -22c-51 0 -83 26 -83 76c0 45 38 93 103 128c-34 -11 -71 -16 -103 -16c-133 0 -211 66 -211 197v320c0 4 2 7 6 7h20c3 0 6 -3 6 -7v-320c0 -113 63 -168 178 -168c51 0 105 12 149 27v461c0 4 3 7 6 7h20c4 0 6 -3 6 -7v-475
c0 -3 -1 -6 -5 -7c-71 -32 -145 -88 -145 -143c0 -35 19 -51 55 -51c19 0 41 5 63 19c3 1 6 1 7 -3l7 -15c1 -3 1 -6 -3 -8z" />
    <glyph glyph-name="uring" unicode="&#x16f;" horiz-adv-x="540" 
d="M439 514h19c4 0 6 -3 6 -7v-471c0 -3 -1 -7 -5 -8c-52 -24 -114 -38 -178 -38c-129 0 -208 68 -208 202v315c0 4 2 7 6 7h20c4 0 6 -3 6 -7v-315c0 -116 64 -173 176 -173c55 0 107 13 151 30v458c0 4 3 7 7 7zM366 679c0 -57 -40 -92 -96 -92c-57 0 -97 35 -97 92
c0 56 40 92 97 92c56 0 96 -36 96 -92zM198 679c0 -40 30 -68 72 -68s71 28 71 68s-29 68 -71 68s-72 -28 -72 -68z" />
    <glyph glyph-name="v" unicode="v" horiz-adv-x="474" 
d="M248 0h-25c-3 0 -6 2 -7 5l-196 501c-2 4 1 8 5 8h21c3 0 6 -3 7 -5l183 -471l182 471c1 2 5 5 8 5h21c4 0 6 -4 5 -8l-196 -501c-2 -3 -5 -5 -8 -5z" />
    <glyph glyph-name="w" unicode="w" horiz-adv-x="740" 
d="M214 0h-26c-3 0 -5 2 -6 5l-160 501c-1 5 1 8 5 8h21c4 0 6 -2 7 -5l146 -468h1l150 456c1 3 3 5 6 5h24c4 0 6 -2 7 -5l150 -456l147 468c1 3 3 5 6 5h21c4 0 7 -3 5 -8l-159 -501c-1 -3 -3 -5 -7 -5h-25c-4 0 -6 2 -7 5l-149 455h-1l-150 -455c-1 -3 -2 -5 -6 -5z" />
    <glyph glyph-name="wacute" unicode="&#x1e83;" horiz-adv-x="740" 
d="M214 0h-26c-3 0 -5 2 -6 5l-160 501c-1 5 1 8 5 8h21c4 0 6 -2 7 -5l146 -468h1l150 456c1 3 3 5 6 5h24c4 0 6 -2 7 -5l150 -456l147 468c1 3 3 5 6 5h21c4 0 7 -3 5 -8l-159 -501c-1 -3 -3 -5 -7 -5h-25c-4 0 -6 2 -7 5l-149 455h-1l-150 -455c-1 -3 -2 -5 -6 -5z
M343 599h-15c-5 0 -8 3 -5 8l83 134c1 2 5 4 7 4h25c5 0 6 -3 3 -8l-90 -134c-2 -2 -5 -4 -8 -4z" />
    <glyph glyph-name="wcircumflex" unicode="&#x175;" horiz-adv-x="740" 
d="M214 0h-26c-3 0 -5 2 -6 5l-160 501c-1 5 1 8 5 8h21c4 0 6 -2 7 -5l146 -468h1l150 456c1 3 3 5 6 5h24c4 0 6 -2 7 -5l150 -456l147 468c1 3 3 5 6 5h21c4 0 7 -3 5 -8l-159 -501c-1 -3 -3 -5 -7 -5h-25c-4 0 -6 2 -7 5l-149 455h-1l-150 -455c-1 -3 -2 -5 -6 -5z
M264 599h-20c-5 0 -7 3 -4 8l114 134c2 2 5 4 8 4h16c3 0 6 -2 8 -4l113 -134c4 -5 2 -8 -3 -8h-21c-2 0 -6 2 -7 4l-98 117l-98 -117c-2 -2 -5 -4 -8 -4z" />
    <glyph glyph-name="wdieresis" unicode="&#x1e85;" horiz-adv-x="740" 
d="M291 652c0 -15 -10 -25 -25 -25s-26 10 -26 25c0 16 11 26 26 26s25 -10 25 -26zM501 652c0 -15 -11 -25 -26 -25s-25 10 -25 25c0 16 10 26 25 26s26 -10 26 -26zM214 0h-26c-3 0 -5 2 -6 5l-160 501c-1 5 1 8 5 8h21c4 0 6 -2 7 -5l146 -468h1l150 456c1 3 3 5 6 5h24
c4 0 6 -2 7 -5l150 -456l147 468c1 3 3 5 6 5h21c4 0 7 -3 5 -8l-159 -501c-1 -3 -3 -5 -7 -5h-25c-4 0 -6 2 -7 5l-149 455h-1l-150 -455c-1 -3 -2 -5 -6 -5z" />
    <glyph glyph-name="wgrave" unicode="&#x1e81;" horiz-adv-x="740" 
d="M214 0h-26c-3 0 -5 2 -6 5l-160 501c-1 5 1 8 5 8h21c4 0 6 -2 7 -5l146 -468h1l150 456c1 3 3 5 6 5h24c4 0 6 -2 7 -5l150 -456l147 468c1 3 3 5 6 5h21c4 0 7 -3 5 -8l-159 -501c-1 -3 -3 -5 -7 -5h-25c-4 0 -6 2 -7 5l-149 455h-1l-150 -455c-1 -3 -2 -5 -6 -5z
M394 599h-15c-3 0 -6 2 -8 4l-90 134c-3 5 -2 8 3 8h25c2 0 6 -2 7 -4l83 -134c3 -5 0 -8 -5 -8z" />
    <glyph glyph-name="x" unicode="x" horiz-adv-x="469" 
d="M254 263l193 -255c3 -4 1 -8 -4 -8h-25c-2 0 -6 1 -7 4l-177 235l-177 -235c-1 -3 -4 -4 -7 -4h-25c-5 0 -6 4 -4 8l193 255l-181 243c-2 4 -1 8 4 8h24c3 0 6 -2 7 -4l166 -224l166 224c1 2 5 4 7 4h24c5 0 7 -4 4 -8z" />
    <glyph glyph-name="y" unicode="y" horiz-adv-x="540" 
d="M431 86v421c0 4 2 7 6 7h20c4 0 6 -3 6 -7v-522c0 -108 -60 -185 -193 -185c-76 0 -135 31 -187 78c-2 2 -2 6 0 9l11 13c2 3 5 4 8 1c45 -39 96 -71 168 -71c112 0 162 62 161 156v69c-44 -23 -97 -36 -152 -36c-123 0 -207 63 -207 193v295c0 4 2 7 6 7h19
c4 0 7 -3 7 -7v-294c0 -113 70 -164 178 -164c55 0 105 14 149 37z" />
    <glyph glyph-name="yacute" unicode="&#xfd;" horiz-adv-x="540" 
d="M431 86v421c0 4 2 7 6 7h20c4 0 6 -3 6 -7v-522c0 -108 -60 -185 -193 -185c-76 0 -135 31 -187 78c-2 2 -2 6 0 9l11 13c2 3 5 4 8 1c45 -39 96 -71 168 -71c112 0 162 62 161 156v69c-44 -23 -97 -36 -152 -36c-123 0 -207 63 -207 193v295c0 4 2 7 6 7h19
c4 0 7 -3 7 -7v-294c0 -113 70 -164 178 -164c55 0 105 14 149 37zM244 599h-15c-5 0 -8 3 -5 8l83 134c1 2 5 4 7 4h25c5 0 6 -3 3 -8l-90 -134c-2 -2 -5 -4 -8 -4z" />
    <glyph glyph-name="ycircumflex" unicode="&#x177;" horiz-adv-x="540" 
d="M431 86v421c0 4 2 7 6 7h20c4 0 6 -3 6 -7v-522c0 -108 -60 -185 -193 -185c-76 0 -135 31 -187 78c-2 2 -2 6 0 9l11 13c2 3 5 4 8 1c45 -39 96 -71 168 -71c112 0 162 62 161 156v69c-44 -23 -97 -36 -152 -36c-123 0 -207 63 -207 193v295c0 4 2 7 6 7h19
c4 0 7 -3 7 -7v-294c0 -113 70 -164 178 -164c55 0 105 14 149 37zM165 599h-20c-5 0 -7 3 -4 8l114 134c2 2 5 4 8 4h16c3 0 6 -2 8 -4l113 -134c4 -5 2 -8 -3 -8h-21c-2 0 -6 2 -7 4l-98 117l-98 -117c-2 -2 -5 -4 -8 -4z" />
    <glyph glyph-name="ydieresis" unicode="&#xff;" horiz-adv-x="540" 
d="M431 86v421c0 4 2 7 6 7h20c4 0 6 -3 6 -7v-522c0 -108 -60 -185 -193 -185c-76 0 -135 31 -187 78c-2 2 -2 6 0 9l11 13c2 3 5 4 8 1c45 -39 96 -71 168 -71c112 0 162 62 161 156v69c-44 -23 -97 -36 -152 -36c-123 0 -207 63 -207 193v295c0 4 2 7 6 7h19
c4 0 7 -3 7 -7v-294c0 -113 70 -164 178 -164c55 0 105 14 149 37zM210 652c0 -15 -10 -25 -25 -25s-25 10 -25 25c0 16 10 26 25 26s25 -10 25 -26zM383 652c0 -15 -10 -25 -25 -25s-26 10 -26 25c0 16 11 26 26 26s25 -10 25 -26z" />
    <glyph glyph-name="ygrave" unicode="&#x1ef3;" horiz-adv-x="540" 
d="M431 86v421c0 4 2 7 6 7h20c4 0 6 -3 6 -7v-522c0 -108 -60 -185 -193 -185c-76 0 -135 31 -187 78c-2 2 -2 6 0 9l11 13c2 3 5 4 8 1c45 -39 96 -71 168 -71c112 0 162 62 161 156v69c-44 -23 -97 -36 -152 -36c-123 0 -207 63 -207 193v295c0 4 2 7 6 7h19
c4 0 7 -3 7 -7v-294c0 -113 70 -164 178 -164c55 0 105 14 149 37zM295 599h-15c-3 0 -6 2 -8 4l-90 134c-3 5 -2 8 3 8h25c2 0 6 -2 7 -4l83 -134c3 -5 0 -8 -5 -8z" />
    <glyph glyph-name="z" unicode="z" horiz-adv-x="447" 
d="M411 0h-376c-3 0 -6 2 -6 6v12c0 2 1 5 3 7l332 459h-314c-3 0 -6 3 -6 6v17c0 4 3 7 6 7h352c4 0 6 -3 6 -7v-10c0 -2 -1 -5 -2 -7l-333 -461h338c3 0 6 -2 6 -6v-17c0 -4 -3 -6 -6 -6z" />
    <glyph glyph-name="zacute" unicode="&#x17a;" horiz-adv-x="447" 
d="M411 0h-376c-3 0 -6 2 -6 6v12c0 2 1 5 3 7l332 459h-314c-3 0 -6 3 -6 6v17c0 4 3 7 6 7h352c4 0 6 -3 6 -7v-10c0 -2 -1 -5 -2 -7l-333 -461h338c3 0 6 -2 6 -6v-17c0 -4 -3 -6 -6 -6zM204 599h-15c-5 0 -8 3 -5 8l83 134c1 2 5 4 7 4h25c5 0 6 -3 3 -8l-90 -134
c-2 -2 -5 -4 -8 -4z" />
    <glyph glyph-name="zcaron" unicode="&#x17e;" horiz-adv-x="447" 
d="M411 0h-376c-3 0 -6 2 -6 6v12c0 2 1 5 3 7l332 459h-314c-3 0 -6 3 -6 6v17c0 4 3 7 6 7h352c4 0 6 -3 6 -7v-10c0 -2 -1 -5 -2 -7l-333 -461h338c3 0 6 -2 6 -6v-17c0 -4 -3 -6 -6 -6zM100 745h20c3 0 6 -2 8 -4l98 -117l98 117c1 2 5 4 7 4h21c5 0 7 -3 3 -8
l-113 -134c-2 -2 -5 -4 -8 -4h-16c-3 0 -6 2 -8 4l-114 134c-3 5 -1 8 4 8z" />
    <glyph glyph-name="zdotaccent" unicode="&#x17c;" horiz-adv-x="447" 
d="M411 0h-376c-3 0 -6 2 -6 6v12c0 2 1 5 3 7l332 459h-314c-3 0 -6 3 -6 6v17c0 4 3 7 6 7h352c4 0 6 -3 6 -7v-10c0 -2 -1 -5 -2 -7l-333 -461h338c3 0 6 -2 6 -6v-17c0 -4 -3 -6 -6 -6zM252 652c0 -16 -11 -27 -27 -27s-27 11 -27 27s11 28 27 28s27 -12 27 -28z" />
    <glyph glyph-name="a.ss01" horiz-adv-x="529" 
d="M422 66c-45 -48 -103 -76 -169 -76c-116 0 -196 68 -196 193v138c0 127 84 203 204 203c59 0 121 -13 187 -38c3 -1 5 -3 5 -6v-474c0 -4 -3 -6 -6 -6h-18c-4 0 -6 2 -6 6zM89 183c0 -107 64 -164 167 -164c61 0 115 26 165 81v365c-58 19 -111 29 -160 29
c-103 0 -172 -64 -172 -173v-138z" />
    <glyph glyph-name="aacute.ss01" horiz-adv-x="529" 
d="M238 603h-15c-5 0 -8 3 -5 8l83 134c1 2 5 4 7 4h25c5 0 6 -3 3 -8l-90 -134c-2 -2 -5 -4 -8 -4zM422 66c-45 -48 -103 -76 -169 -76c-116 0 -196 68 -196 193v138c0 127 84 203 204 203c59 0 121 -13 187 -38c3 -1 5 -3 5 -6v-474c0 -4 -3 -6 -6 -6h-18c-4 0 -6 2 -6 6z
M89 183c0 -107 64 -164 167 -164c61 0 115 26 165 81v365c-58 19 -111 29 -160 29c-103 0 -172 -64 -172 -173v-138z" />
    <glyph glyph-name="abreve.ss01" horiz-adv-x="529" 
d="M412 739c-9 -78 -62 -136 -145 -136s-135 58 -144 136c-1 4 1 6 5 7l16 2c4 0 6 -1 7 -5c9 -67 48 -113 116 -113c69 0 107 46 116 113c1 4 3 6 8 5l15 -2c4 0 7 -3 6 -7zM422 66c-45 -48 -103 -76 -169 -76c-116 0 -196 68 -196 193v138c0 127 84 203 204 203
c59 0 121 -13 187 -38c3 -1 5 -3 5 -6v-474c0 -4 -3 -6 -6 -6h-18c-4 0 -6 2 -6 6zM89 183c0 -107 64 -164 167 -164c61 0 115 26 165 81v365c-58 19 -111 29 -160 29c-103 0 -172 -64 -172 -173v-138z" />
    <glyph glyph-name="acircumflex.ss01" horiz-adv-x="529" 
d="M159 603h-20c-5 0 -7 3 -4 8l114 134c2 2 5 4 8 4h16c3 0 6 -2 8 -4l113 -134c4 -5 2 -8 -3 -8h-21c-2 0 -6 2 -7 4l-98 117l-98 -117c-2 -2 -5 -4 -8 -4zM422 66c-45 -48 -103 -76 -169 -76c-116 0 -196 68 -196 193v138c0 127 84 203 204 203c59 0 121 -13 187 -38
c3 -1 5 -3 5 -6v-474c0 -4 -3 -6 -6 -6h-18c-4 0 -6 2 -6 6zM89 183c0 -107 64 -164 167 -164c61 0 115 26 165 81v365c-58 19 -111 29 -160 29c-103 0 -172 -64 -172 -173v-138z" />
    <glyph glyph-name="adieresis.ss01" horiz-adv-x="529" 
d="M204 656c0 -15 -10 -25 -25 -25s-25 10 -25 25c0 16 10 26 25 26s25 -10 25 -26zM377 656c0 -15 -10 -25 -25 -25s-26 10 -26 25c0 16 11 26 26 26s25 -10 25 -26zM422 66c-45 -48 -103 -76 -169 -76c-116 0 -196 68 -196 193v138c0 127 84 203 204 203
c59 0 121 -13 187 -38c3 -1 5 -3 5 -6v-474c0 -4 -3 -6 -6 -6h-18c-4 0 -6 2 -6 6zM89 183c0 -107 64 -164 167 -164c61 0 115 26 165 81v365c-58 19 -111 29 -160 29c-103 0 -172 -64 -172 -173v-138z" />
    <glyph glyph-name="agrave.ss01" horiz-adv-x="529" 
d="M289 603h-15c-3 0 -6 2 -8 4l-90 134c-3 5 -2 8 3 8h25c2 0 6 -2 7 -4l83 -134c3 -5 0 -8 -5 -8zM422 66c-45 -48 -103 -76 -169 -76c-116 0 -196 68 -196 193v138c0 127 84 203 204 203c59 0 121 -13 187 -38c3 -1 5 -3 5 -6v-474c0 -4 -3 -6 -6 -6h-18c-4 0 -6 2 -6 6z
M89 183c0 -107 64 -164 167 -164c61 0 115 26 165 81v365c-58 19 -111 29 -160 29c-103 0 -172 -64 -172 -173v-138z" />
    <glyph glyph-name="amacron.ss01" horiz-adv-x="529" 
d="M142 660v14c0 4 2 7 6 7h234c4 0 7 -3 7 -7v-14c0 -4 -3 -7 -7 -7h-234c-4 0 -6 3 -6 7zM422 66c-45 -48 -103 -76 -169 -76c-116 0 -196 68 -196 193v138c0 127 84 203 204 203c59 0 121 -13 187 -38c3 -1 5 -3 5 -6v-474c0 -4 -3 -6 -6 -6h-18c-4 0 -6 2 -6 6zM89 183
c0 -107 64 -164 167 -164c61 0 115 26 165 81v365c-58 19 -111 29 -160 29c-103 0 -172 -64 -172 -173v-138z" />
    <glyph glyph-name="aogonek.ss01" horiz-adv-x="529" 
d="M474 -181c-21 -10 -45 -17 -74 -17c-45 0 -74 25 -74 70c0 47 37 99 97 136l-1 58c-46 -46 -103 -76 -170 -76c-114 0 -195 67 -195 193v138c0 127 83 203 205 203c57 0 120 -13 186 -38c3 -1 5 -3 5 -6v-471c0 -6 -3 -9 -12 -13c-55 -31 -85 -81 -85 -118
c0 -32 17 -47 48 -47c22 0 41 5 59 14c4 2 7 0 8 -4l5 -14c1 -3 1 -6 -2 -8zM89 183c0 -106 64 -163 166 -163c61 0 114 28 166 80v364c-58 20 -112 30 -159 30c-105 0 -173 -64 -173 -173v-138z" />
    <glyph glyph-name="aring.ss01" horiz-adv-x="529" 
d="M362 683c0 -57 -40 -92 -96 -92c-57 0 -97 35 -97 92c0 56 40 92 97 92c56 0 96 -36 96 -92zM194 683c0 -40 30 -68 72 -68s71 28 71 68s-29 68 -71 68s-72 -28 -72 -68zM422 66c-45 -48 -103 -76 -169 -76c-116 0 -196 68 -196 193v138c0 127 84 203 204 203
c59 0 121 -13 187 -38c3 -1 5 -3 5 -6v-474c0 -4 -3 -6 -6 -6h-18c-4 0 -6 2 -6 6zM89 183c0 -107 64 -164 167 -164c61 0 115 26 165 81v365c-58 19 -111 29 -160 29c-103 0 -172 -64 -172 -173v-138z" />
    <glyph glyph-name="atilde.ss01" horiz-adv-x="529" 
d="M401 679c-9 -27 -35 -53 -68 -53c-23 0 -46 12 -68 23c-22 12 -42 23 -65 23c-22 0 -38 -15 -47 -36c-2 -4 -5 -4 -8 -3l-12 6c-4 3 -5 5 -3 9c10 25 34 51 69 51c26 0 48 -13 71 -24c20 -10 39 -22 61 -22c21 0 36 13 47 37c1 3 4 5 7 3l12 -6c3 -2 5 -4 4 -8zM422 66
c-45 -48 -103 -76 -169 -76c-116 0 -196 68 -196 193v138c0 127 84 203 204 203c59 0 121 -13 187 -38c3 -1 5 -3 5 -6v-474c0 -4 -3 -6 -6 -6h-18c-4 0 -6 2 -6 6zM89 183c0 -107 64 -164 167 -164c61 0 115 26 165 81v365c-58 19 -111 29 -160 29
c-103 0 -172 -64 -172 -173v-138z" />
    <glyph glyph-name="ae.ss01" horiz-adv-x="864" 
d="M803 67c-44 -36 -102 -77 -186 -77c-79 0 -132 28 -167 81v-65c0 -4 -3 -6 -7 -6h-15c-4 0 -7 2 -7 6l-1 68c-44 -57 -99 -84 -175 -84c-108 0 -188 68 -188 193v138c0 127 83 203 203 203c51 0 127 -22 175 -81c30 35 88 81 182 81c114 0 196 -69 196 -190v-90
c0 -5 0 -6 -7 -6h-355v-122c36 -64 77 -97 166 -97c78 0 121 36 167 70c4 2 6 1 9 -1l10 -13c3 -2 4 -5 0 -8zM89 183c0 -107 63 -164 159 -164c72 0 126 32 171 97v293c-35 63 -112 85 -160 85c-102 0 -170 -64 -170 -173v-138zM451 408v-142h330v68
c0 102 -66 160 -164 160c-102 0 -146 -55 -166 -86z" />
    <glyph glyph-name="uni0410" unicode="&#x410;" horiz-adv-x="589" 
d="M39 0h-23c-4 0 -6 3 -5 7l263 703c1 3 4 5 6 5h28c3 0 6 -2 7 -5l263 -703c1 -4 -1 -7 -5 -7h-23c-3 0 -5 2 -7 5l-81 219h-335l-82 -219c-1 -3 -3 -5 -6 -5zM293 674l-155 -419h313l-155 419h-3z" />
    <glyph glyph-name="uni0411" unicode="&#x411;" horiz-adv-x="619" 
d="M131 426h202c161 0 236 -68 236 -213c0 -137 -86 -213 -231 -213h-234c-4 0 -7 2 -7 6v703c0 4 3 6 7 6h416c4 0 6 -2 6 -6v-19c0 -4 -2 -6 -6 -6h-389v-258zM131 31h207c127 0 197 64 197 182c0 125 -61 182 -201 182h-203v-364z" />
    <glyph glyph-name="uni0412" unicode="&#x412;" horiz-adv-x="620" 
d="M535 542c0 -81 -46 -137 -119 -158c96 -19 148 -86 148 -186c0 -125 -87 -198 -247 -198h-213c-4 0 -7 2 -7 6v703c0 4 3 6 7 6h213c162 0 218 -80 218 -173zM131 31h186c143 0 214 62 214 167c0 102 -60 170 -196 170h-204v-337zM501 542c0 74 -41 142 -184 142h-186
v-285h204c104 0 166 52 166 143z" />
    <glyph glyph-name="uni0413" unicode="&#x413;" horiz-adv-x="496" 
d="M125 0h-21c-4 0 -7 2 -7 6v703c0 4 3 6 7 6h374c4 0 6 -2 6 -6v-19c0 -4 -2 -6 -6 -6h-347v-678c0 -4 -3 -6 -6 -6z" />
    <glyph glyph-name="uni0403" unicode="&#x403;" horiz-adv-x="496" 
d="M125 0h-21c-4 0 -7 2 -7 6v703c0 4 3 6 7 6h374c4 0 6 -2 6 -6v-19c0 -4 -2 -6 -6 -6h-347v-678c0 -4 -3 -6 -6 -6zM369 927l-116 -134c-2 -3 -5 -4 -8 -4h-18c-5 0 -6 4 -3 8l107 133c1 3 5 4 7 4h28c5 0 7 -3 3 -7z" />
    <glyph glyph-name="uni0490" unicode="&#x490;" horiz-adv-x="475" 
d="M125 0h-21c-4 0 -7 2 -7 6v703c0 4 3 6 7 6h328v137c0 3 2 6 6 6h19c4 0 6 -3 6 -6v-162c0 -4 -2 -6 -6 -6h-326v-678c0 -4 -3 -6 -6 -6z" />
    <glyph glyph-name="uni0414" unicode="&#x414;" horiz-adv-x="646" 
d="M36 -138h-21c-4 0 -6 3 -6 7v156c0 4 2 6 6 6h36c80 38 103 170 117 678c0 4 3 6 6 6h353c4 0 7 -2 7 -6v-678h68c4 0 7 -2 7 -6v-156c0 -4 -3 -7 -7 -7h-20c-4 0 -7 3 -7 7v131h-533v-131c0 -4 -2 -7 -6 -7zM200 684c-9 -450 -34 -606 -100 -653h400v653h-300z" />
    <glyph glyph-name="uni0415" unicode="&#x415;" horiz-adv-x="563" 
d="M131 349v-318h378c4 0 6 -2 6 -6v-19c0 -4 -2 -6 -6 -6h-405c-4 0 -7 2 -7 6v703c0 4 3 6 7 6h390c4 0 6 -2 6 -6v-19c0 -4 -2 -6 -6 -6h-363v-304h342c4 0 7 -2 7 -6v-19c0 -4 -3 -6 -7 -6h-342z" />
    <glyph glyph-name="uni0401" unicode="&#x401;" horiz-adv-x="563" 
d="M233 861c0 -17 -11 -27 -27 -27s-26 10 -26 27c0 16 10 26 26 26s27 -10 27 -26zM432 861c0 -17 -11 -27 -27 -27s-26 10 -26 27c0 16 10 26 26 26s27 -10 27 -26zM131 349v-318h378c4 0 6 -2 6 -6v-19c0 -4 -2 -6 -6 -6h-405c-4 0 -7 2 -7 6v703c0 4 3 6 7 6h390
c4 0 6 -2 6 -6v-19c0 -4 -2 -6 -6 -6h-363v-304h342c4 0 7 -2 7 -6v-19c0 -4 -3 -6 -7 -6h-342z" />
    <glyph glyph-name="uni0416" unicode="&#x416;" horiz-adv-x="896" 
d="M874 0h-28c-3 0 -6 1 -7 4l-284 365l-90 -97v-266c0 -4 -3 -6 -6 -6h-21c-4 0 -7 2 -7 6v266l-90 97l-283 -365c-2 -3 -5 -4 -8 -4h-27c-5 0 -7 4 -4 8l300 386l-283 313c-4 5 -2 8 3 8h29c2 0 6 -1 7 -4l356 -395v393c0 4 3 6 7 6h21c3 0 6 -2 6 -6v-393l356 395
c1 3 5 4 8 4h29c5 0 6 -3 2 -8l-283 -313l301 -386c2 -4 1 -8 -4 -8z" />
    <glyph glyph-name="uni0417" unicode="&#x417;" horiz-adv-x="572" 
d="M492 535c0 -68 -38 -134 -124 -159c98 -26 142 -98 142 -180c0 -125 -96 -206 -238 -206c-104 0 -181 37 -235 88c-2 3 -3 6 0 9l12 16c2 3 5 4 8 0c47 -43 116 -82 215 -82c125 0 204 72 204 175c0 84 -55 163 -193 163h-114c-4 0 -6 2 -6 6v19c0 3 2 6 6 6h123
c114 0 166 73 166 144c0 88 -73 160 -188 160c-93 0 -155 -34 -200 -77c-4 -3 -6 -2 -9 1l-11 15c-2 3 -2 6 0 9c54 50 126 83 221 83c129 0 221 -82 221 -190z" />
    <glyph glyph-name="uni0418" unicode="&#x418;" horiz-adv-x="699" 
d="M595 0h-21c-3 0 -6 2 -6 6l1 655l-433 -657c-1 -3 -5 -4 -8 -4h-24c-4 0 -7 2 -7 6v703c0 4 3 6 7 6h20c4 0 7 -2 7 -6l-1 -657l433 659c1 3 5 4 7 4h25c4 0 7 -2 7 -6v-703c0 -4 -3 -6 -7 -6z" />
    <glyph glyph-name="uni0419" unicode="&#x419;" horiz-adv-x="699" 
d="M501 929c-10 -81 -64 -142 -152 -142c-87 0 -141 61 -151 142c-1 3 2 6 6 7l15 4c4 1 7 -1 8 -5c8 -71 49 -120 122 -120s115 49 123 120c1 4 4 6 7 5l16 -4c4 -1 6 -4 6 -7zM574 0h21c4 0 7 2 7 6v703c0 4 -3 6 -7 6h-25c-2 0 -6 -1 -7 -4l-433 -659l1 657
c0 4 -3 6 -7 6h-20c-4 0 -7 -2 -7 -6v-703c0 -4 3 -6 7 -6h24c3 0 7 1 8 4l433 657l-1 -655c0 -4 3 -6 6 -6z" />
    <glyph glyph-name="uni041A" unicode="&#x41a;" horiz-adv-x="603" 
d="M125 0h-21c-4 0 -7 2 -7 6v703c0 4 3 6 7 6h21c3 0 6 -2 6 -6v-393l399 395c3 3 6 4 9 4h28c5 0 8 -4 4 -8l-318 -315l337 -384c4 -5 1 -8 -4 -8h-28c-3 0 -6 1 -8 4l-320 365l-99 -97v-266c0 -4 -3 -6 -6 -6z" />
    <glyph glyph-name="uni040C" unicode="&#x40c;" horiz-adv-x="603" 
d="M415 927l-116 -134c-2 -3 -5 -4 -8 -4h-18c-5 0 -6 4 -3 8l107 133c1 3 5 4 7 4h28c5 0 7 -3 3 -7zM125 0h-21c-4 0 -7 2 -7 6v703c0 4 3 6 7 6h21c3 0 6 -2 6 -6v-393l399 395c3 3 6 4 9 4h28c5 0 8 -4 4 -8l-318 -315l337 -384c4 -5 1 -8 -4 -8h-28c-3 0 -6 1 -8 4
l-320 365l-99 -97v-266c0 -4 -3 -6 -6 -6z" />
    <glyph glyph-name="uni041B" unicode="&#x41b;" horiz-adv-x="633" 
d="M166 207c-22 -156 -67 -208 -153 -210c-3 0 -6 2 -6 6v19c0 4 3 6 6 6c67 3 102 46 120 185c13 103 22 261 27 496c0 4 3 6 6 6h364c3 0 6 -2 6 -6v-703c0 -4 -3 -6 -6 -6h-21c-4 0 -7 2 -7 6v678h-310c-4 -219 -13 -372 -26 -477z" />
    <glyph glyph-name="uni041C" unicode="&#x41c;" horiz-adv-x="840" 
d="M125 0h-21c-4 0 -7 2 -7 6v703c0 4 3 6 7 6h28c3 0 6 -1 8 -4l280 -495l281 495c1 3 4 4 7 4h28c4 0 7 -2 7 -6v-703c0 -4 -3 -6 -7 -6h-21c-3 0 -6 2 -6 6l1 657v1l-274 -485c-1 -2 -5 -4 -8 -4h-16c-3 0 -6 2 -8 4l-274 485v-1l1 -657c0 -4 -3 -6 -6 -6z" />
    <glyph glyph-name="uni041D" unicode="&#x41d;" horiz-adv-x="673" 
d="M542 380v329c0 4 3 6 7 6h20c4 0 7 -2 7 -6v-703c0 -4 -3 -6 -7 -6h-20c-4 0 -7 2 -7 6v343h-411v-343c0 -4 -3 -6 -6 -6h-21c-4 0 -7 2 -7 6v703c0 4 3 6 7 6h21c3 0 6 -2 6 -6v-329h411z" />
    <glyph glyph-name="uni041E" unicode="&#x41e;" horiz-adv-x="665" 
d="M593 224c0 -135 -104 -234 -260 -234c-157 0 -261 99 -261 234v259c0 144 103 242 261 242c157 0 260 -98 260 -242v-259zM105 224c0 -117 89 -202 228 -202c138 0 227 85 227 202v259c0 126 -88 211 -227 211c-140 0 -228 -85 -228 -211v-259z" />
    <glyph glyph-name="uni041F" unicode="&#x41f;" horiz-adv-x="673" 
d="M125 0h-21c-4 0 -7 2 -7 6v703c0 4 3 6 7 6h466c4 0 6 -2 6 -6v-703c0 -4 -2 -6 -6 -6h-21c-4 0 -7 2 -7 6v678h-411v-678c0 -4 -3 -6 -6 -6z" />
    <glyph glyph-name="uni0420" unicode="&#x420;" horiz-adv-x="611" 
d="M103 715h222c157 0 244 -83 244 -219c0 -138 -88 -218 -244 -218h-195v-272c0 -4 -2 -6 -6 -6h-21c-4 0 -6 2 -6 6v703c0 4 2 6 6 6zM130 310h192c141 0 214 66 214 186s-73 188 -214 188h-192v-374z" />
    <glyph glyph-name="uni0421" unicode="&#x421;" horiz-adv-x="576" 
d="M539 72c-64 -57 -144 -82 -224 -82c-155 0 -242 97 -242 237v261c0 140 88 237 240 237c75 0 149 -24 211 -74c4 -2 4 -6 1 -8l-11 -16c-2 -3 -5 -4 -9 -1c-55 44 -123 68 -193 68c-137 0 -206 -87 -206 -206v-261c0 -119 70 -206 208 -206c76 0 148 26 207 77
c3 3 6 2 8 -1l12 -16c2 -3 2 -6 -2 -9z" />
    <glyph glyph-name="uni0422" unicode="&#x422;" horiz-adv-x="534" 
d="M18 715h497c4 0 7 -2 7 -6v-19c0 -4 -3 -6 -7 -6h-233v-678c0 -4 -3 -6 -6 -6h-21c-4 0 -7 2 -7 6v678h-230c-4 0 -6 2 -6 6v19c0 4 2 6 6 6z" />
    <glyph glyph-name="uni0423" unicode="&#x423;" horiz-adv-x="513" 
d="M183 0h-24c-4 0 -5 4 -4 7l101 221l-246 480c-2 4 0 7 5 7h23c3 0 6 -1 7 -5l228 -446l199 446c1 3 4 5 7 5h24c4 0 6 -4 4 -7l-316 -703c-2 -3 -5 -5 -8 -5z" />
    <glyph glyph-name="uni040E" unicode="&#x40e;" horiz-adv-x="513" 
d="M183 0h-24c-4 0 -5 4 -4 7l101 221l-246 480c-2 4 0 7 5 7h23c3 0 6 -1 7 -5l228 -446l199 446c1 3 4 5 7 5h24c4 0 6 -4 4 -7l-316 -703c-2 -3 -5 -5 -8 -5zM408 929c-10 -81 -64 -142 -152 -142c-87 0 -141 61 -151 142c-1 3 2 6 6 7l15 4c4 1 7 -1 8 -5
c8 -71 49 -120 122 -120s115 49 123 120c1 4 4 6 7 5l16 -4c4 -1 6 -4 6 -7z" />
    <glyph glyph-name="uni0424" unicode="&#x424;" horiz-adv-x="843" 
d="M432 -62h-21c-3 0 -6 2 -6 6v89h-79c-126 0 -258 79 -258 269v110c0 189 133 268 258 268h79v82c0 4 3 7 6 7h21c4 0 7 -3 7 -7v-82h78c125 0 258 -79 258 -268v-110c0 -190 -132 -269 -258 -269h-78v-89c0 -4 -3 -6 -7 -6zM102 302c0 -168 113 -238 225 -238h78v584h-78
c-112 0 -225 -68 -225 -236v-110zM439 648v-584h77c112 0 226 70 226 238v110c0 168 -114 236 -226 236h-77z" />
    <glyph glyph-name="uni0425" unicode="&#x425;" horiz-adv-x="572" 
d="M307 361l241 -353c3 -4 2 -8 -3 -8h-27c-2 0 -6 1 -7 4l-224 331l-226 -331c-1 -3 -4 -4 -7 -4h-26c-5 0 -7 4 -4 8l242 353l-231 346c-3 4 -1 8 4 8h26c2 0 6 -1 7 -4l215 -324l213 324c2 3 5 4 8 4h26c4 0 6 -4 3 -8z" />
    <glyph glyph-name="uni0427" unicode="&#x427;" horiz-adv-x="611" 
d="M508 0h-21c-4 0 -7 2 -7 6v295c-59 -28 -117 -43 -172 -43c-156 0 -248 84 -248 221v230c0 4 2 6 6 6h21c4 0 6 -2 6 -6v-229c0 -119 79 -190 216 -190c54 0 113 16 171 43v376c0 4 3 6 7 6h21c4 0 6 -2 6 -6v-703c0 -4 -2 -6 -6 -6z" />
    <glyph glyph-name="uni0426" unicode="&#x426;" horiz-adv-x="678" 
d="M635 -131h-20c-4 0 -6 2 -6 6v125h-505c-4 0 -7 2 -7 6v703c0 4 3 6 7 6h21c3 0 6 -2 6 -6v-678h402v678c0 4 2 6 6 6h21c4 0 6 -2 6 -6v-678h69c4 0 7 -2 7 -6v-150c0 -4 -3 -6 -7 -6z" />
    <glyph glyph-name="uni0428" unicode="&#x428;" horiz-adv-x="952" 
d="M848 0h-745c-3 0 -6 2 -6 6v703c0 4 3 6 6 6h21c4 0 7 -2 7 -6v-678h328v678c0 4 3 6 6 6h21c4 0 7 -2 7 -6v-678h328v678c0 4 3 6 6 6h21c4 0 7 -2 7 -6v-703c0 -4 -3 -6 -7 -6z" />
    <glyph glyph-name="uni0429" unicode="&#x429;" horiz-adv-x="967" 
d="M924 -131h-21c-3 0 -6 2 -6 6v125h-793c-4 0 -7 2 -7 6v703c0 4 3 6 7 6h21c4 0 6 -2 6 -6v-678h328v678c0 4 3 6 7 6h21c3 0 6 -2 6 -6v-678h328v678c0 4 3 6 6 6h21c4 0 7 -2 7 -6v-678h69c3 0 6 -2 6 -6v-150c0 -4 -3 -6 -6 -6z" />
    <glyph glyph-name="uni040F" unicode="&#x40f;" horiz-adv-x="677" 
d="M553 715h21c3 0 6 -2 6 -6v-703c0 -4 -3 -6 -6 -6h-219v-125c0 -4 -2 -7 -6 -7h-20c-3 0 -6 3 -6 7v125h-219c-4 0 -7 2 -7 6v703c0 4 3 6 7 6h21c3 0 6 -2 6 -6v-678h415v678c0 4 3 6 7 6z" />
    <glyph glyph-name="uni042C" unicode="&#x42c;" horiz-adv-x="603" 
d="M317 0h-213c-4 0 -7 2 -7 6v703c0 4 3 6 7 6h21c3 0 6 -2 6 -6v-269h185c160 0 244 -81 244 -218c0 -142 -84 -222 -243 -222zM131 408v-376h186c142 0 209 67 209 190c0 119 -67 186 -209 186h-186z" />
    <glyph glyph-name="uni042A" unicode="&#x42a;" horiz-adv-x="673" 
d="M388 0h-213c-4 0 -7 2 -7 6v677h-148c-4 0 -6 3 -6 7v19c0 4 2 6 6 6h176c3 0 6 -2 6 -6v-270h185c160 0 243 -78 243 -215c0 -143 -84 -224 -242 -224zM202 408v-376h186c140 0 208 67 208 192c0 116 -66 184 -209 184h-185z" />
    <glyph glyph-name="uni042B" unicode="&#x42b;" horiz-adv-x="848" 
d="M317 0h-213c-4 0 -7 2 -7 6v703c0 4 3 6 7 6h21c3 0 6 -2 6 -6v-269h185c160 0 244 -80 244 -216c0 -142 -84 -224 -243 -224zM744 0h-21c-4 0 -6 2 -6 6v703c0 4 2 6 6 6h21c4 0 7 -2 7 -6v-703c0 -4 -3 -6 -7 -6zM131 408v-376h186c142 0 209 67 209 192
c0 118 -67 184 -209 184h-186z" />
    <glyph glyph-name="uni0409" unicode="&#x409;" horiz-adv-x="996" 
d="M165 195c-23 -147 -68 -198 -152 -198c-3 0 -6 2 -6 6v19c0 4 3 6 6 6c66 1 102 44 120 176c15 102 27 262 30 505c0 4 2 6 6 6h356c4 0 6 -2 6 -6v-270h179c159 0 243 -79 243 -218c0 -142 -85 -221 -243 -221h-206c-4 0 -6 2 -6 6v678h-303c-5 -227 -13 -383 -30 -489z
M531 407v-375h179c141 0 209 66 209 189c0 118 -67 186 -209 186h-179z" />
    <glyph glyph-name="uni040A" unicode="&#x40a;" horiz-adv-x="990" 
d="M125 0h-21c-4 0 -7 2 -7 6v703c0 4 3 6 7 6h21c4 0 6 -2 6 -6v-298h380v298c0 4 2 6 6 6h21c4 0 6 -2 6 -6v-298h155c163 0 251 -68 251 -205c0 -132 -95 -206 -246 -206h-187c-4 0 -6 2 -6 6v374h-380v-374c0 -4 -2 -6 -6 -6zM544 379v-347h160c133 0 212 60 212 174
c0 116 -73 173 -217 173h-155z" />
    <glyph glyph-name="uni0405" unicode="&#x405;" horiz-adv-x="601" 
d="M550 179c0 -122 -99 -189 -245 -189c-100 0 -169 29 -246 94c-3 3 -3 6 -1 9l12 15c3 3 6 4 9 2c72 -60 138 -88 226 -88c124 0 211 52 211 157c0 91 -57 133 -218 170c-153 35 -237 94 -237 203c0 119 108 173 235 173c94 0 166 -27 233 -80c4 -2 3 -6 1 -8l-10 -16
c-3 -4 -6 -4 -9 -2c-62 50 -135 74 -219 75c-105 0 -197 -45 -197 -144c0 -91 71 -136 210 -169c177 -42 245 -95 245 -202z" />
    <glyph glyph-name="uni0404" unicode="&#x404;" horiz-adv-x="582" 
d="M539 72c-64 -57 -144 -82 -224 -82c-155 0 -242 96 -242 237v261c0 140 88 237 240 237c75 0 149 -24 211 -74c4 -2 4 -6 1 -8l-11 -17c-2 -3 -5 -3 -9 -1c-55 45 -123 69 -193 69c-137 0 -206 -87 -206 -206v-115h338c3 0 6 -2 6 -6v-19c0 -4 -3 -6 -6 -6h-338v-115
c0 -119 70 -206 208 -206c76 0 148 26 207 77c3 3 6 2 8 -1l12 -16c2 -3 2 -6 -2 -9z" />
    <glyph glyph-name="uni042D" unicode="&#x42d;" horiz-adv-x="582" 
d="M43 72c-4 3 -4 6 -2 9l12 16c2 3 5 4 8 1c59 -51 131 -77 207 -77c138 0 208 87 208 206v115h-338c-3 0 -6 2 -6 6v19c0 4 3 6 6 6h338v115c0 119 -69 206 -206 206c-70 0 -138 -24 -193 -69c-4 -2 -7 -2 -9 1l-11 17c-3 2 -3 6 1 8c62 50 136 74 211 74
c152 0 240 -97 240 -237v-261c0 -141 -87 -237 -242 -237c-80 0 -160 25 -224 82z" />
    <glyph glyph-name="uni0406" unicode="&#x406;" horiz-adv-x="228" 
d="M131 709v-703c0 -4 -3 -6 -6 -6h-21c-4 0 -7 2 -7 6v703c0 4 3 6 7 6h21c3 0 6 -2 6 -6z" />
    <glyph glyph-name="uni0407" unicode="&#x407;" horiz-adv-x="227" 
d="M130 709v-703c0 -4 -2 -6 -6 -6h-21c-4 0 -6 2 -6 6v703c0 4 2 6 6 6h21c4 0 6 -2 6 -6zM59 861c0 -16 -10 -26 -26 -26c-15 0 -25 10 -25 26c0 15 10 25 25 25c16 0 26 -10 26 -25zM221 861c0 -16 -11 -26 -26 -26s-26 10 -26 26c0 15 11 25 26 25s26 -10 26 -25z" />
    <glyph glyph-name="uni0408" unicode="&#x408;" horiz-adv-x="490" 
d="M398 204c0 -144 -65 -214 -189 -214c-76 0 -133 30 -188 81c-3 2 -3 6 -1 9l11 15c2 4 5 4 9 1c51 -47 102 -74 169 -74c105 0 156 55 156 182v505c0 4 2 6 6 6h21c4 0 6 -2 6 -6v-505z" />
    <glyph glyph-name="uni040B" unicode="&#x40b;" horiz-adv-x="707" 
d="M276 485c47 22 99 37 155 37c132 0 212 -65 212 -202v-314c0 -4 -2 -6 -6 -6h-21c-4 0 -6 2 -6 6v312c0 119 -65 173 -180 173c-56 0 -109 -15 -154 -38v-447c0 -4 -3 -6 -6 -6h-21c-4 0 -7 2 -7 6v678h-224c-4 0 -6 2 -6 6v19c0 4 2 6 6 6h481c4 0 7 -2 7 -6v-19
c0 -4 -3 -6 -7 -6h-223v-199z" />
    <glyph glyph-name="uni042E" unicode="&#x42e;" horiz-adv-x="886" 
d="M814 222c0 -136 -106 -232 -254 -232c-149 0 -255 96 -255 232v128h-175v-344c0 -4 -2 -6 -6 -6h-21c-4 0 -6 2 -6 6v703c0 4 2 6 6 6h21c4 0 6 -2 6 -6v-328h175v105c0 144 106 239 255 239c148 0 254 -95 254 -239v-264zM339 222c0 -117 90 -201 221 -201
c130 0 220 84 220 201v264c0 126 -89 208 -220 208c-132 0 -221 -82 -221 -208v-264z" />
    <glyph glyph-name="uni042F" unicode="&#x42f;" horiz-adv-x="625" 
d="M58 501c0 133 89 214 242 214h221c4 0 6 -2 6 -6v-703c0 -4 -2 -6 -6 -6h-21c-4 0 -6 2 -6 6v279h-181l-227 -281c-2 -3 -5 -4 -8 -4h-27c-5 0 -7 4 -4 8l227 279c-135 8 -216 83 -216 214zM300 317h194v366h-194c-134 0 -208 -68 -208 -182c0 -120 74 -184 208 -184z
" />
    <glyph glyph-name="uni0402" unicode="&#x402;" horiz-adv-x="708" 
d="M282 485c47 22 99 37 155 37c131 0 211 -65 211 -202v-165c0 -117 -50 -165 -126 -165c-16 0 -37 2 -51 4c-4 1 -7 4 -7 8v17c0 4 3 7 7 6c17 -2 37 -4 49 -4c58 0 95 33 95 131v166c0 119 -65 173 -179 173c-56 0 -109 -15 -154 -38v-447c0 -4 -3 -6 -7 -6h-21
c-3 0 -6 2 -6 6v678h-230c-4 0 -6 2 -6 6v19c0 4 2 6 6 6h496c4 0 6 -2 6 -6v-19c0 -4 -2 -6 -6 -6h-232v-199z" />
    <glyph glyph-name="uni0414.loclBGR" horiz-adv-x="640" 
d="M38 -138h-21c-4 0 -6 3 -6 7v156c0 4 2 7 6 7h47l233 678c1 3 3 5 6 5h34c3 0 5 -2 6 -5l232 -678h47c3 0 6 -3 6 -7v-156c0 -4 -3 -7 -6 -7h-22c-4 0 -6 3 -6 7v131h-550v-131c0 -4 -2 -7 -6 -7zM319 673l-219 -641h440l-219 641h-2z" />
    <glyph glyph-name="uni041B.loclBGR" horiz-adv-x="596" 
d="M39 0h-23c-4 0 -6 3 -5 7l264 703c2 3 5 5 8 5h31c2 0 6 -2 7 -5l264 -703c1 -4 -1 -7 -5 -7h-23c-3 0 -6 2 -7 5l-251 671h-2l-251 -671c-1 -3 -4 -5 -7 -5z" />
    <glyph glyph-name="uni0430" unicode="&#x430;" horiz-adv-x="500" 
d="M66 473c43 30 107 51 179 51c126 0 185 -72 185 -184v-308c0 -2 -1 -6 -5 -7c-42 -18 -107 -35 -181 -35c-117 0 -205 59 -205 160c0 100 76 156 205 156c59 0 114 -10 154 -19v52c0 95 -43 155 -154 155c-63 0 -122 -20 -160 -44c-4 -2 -7 -1 -9 1l-9 14c-1 3 -2 6 0 8z
M71 150c0 -80 72 -131 173 -131c65 0 117 14 154 28v212c-39 9 -97 18 -154 18c-113 0 -173 -46 -173 -127z" />
    <glyph glyph-name="uni0431" unicode="&#x431;" horiz-adv-x="527" 
d="M104 433c47 36 108 55 170 55c123 0 197 -76 197 -208v-92c0 -121 -82 -198 -199 -198s-200 77 -200 198v316c0 109 80 176 180 196c28 6 115 16 164 42c3 1 7 0 8 -3l8 -16c2 -3 2 -6 -2 -7c-49 -26 -134 -37 -168 -45c-100 -22 -158 -79 -158 -168v-70zM272 19
c99 0 167 65 167 169v92c0 113 -61 178 -166 178c-62 0 -123 -20 -169 -56v-214c0 -104 68 -169 168 -169z" />
    <glyph glyph-name="uni0432" unicode="&#x432;" horiz-adv-x="517" 
d="M283 0h-200c-3 0 -6 2 -6 6v501c0 4 3 7 6 7h199c116 0 166 -61 166 -127c0 -61 -41 -106 -102 -117c74 -15 122 -58 122 -130c0 -80 -61 -140 -185 -140zM109 485v-204h172c80 0 135 39 135 105c0 54 -39 99 -135 99h-172zM109 253v-225h173c107 0 154 48 154 113
c0 73 -62 112 -154 112h-173z" />
    <glyph glyph-name="uni0433" unicode="&#x433;" horiz-adv-x="392" 
d="M103 0h-20c-3 0 -6 2 -6 6v501c0 4 3 7 6 7h288c4 0 6 -3 6 -7v-17c0 -3 -2 -6 -6 -6h-262v-478c0 -4 -2 -6 -6 -6z" />
    <glyph glyph-name="uni0453" unicode="&#x453;" horiz-adv-x="392" 
d="M103 0h-20c-3 0 -6 2 -6 6v501c0 4 3 7 6 7h288c4 0 6 -3 6 -7v-17c0 -3 -2 -6 -6 -6h-262v-478c0 -4 -2 -6 -6 -6zM214 599h-15c-5 0 -8 3 -5 8l83 134c1 2 5 4 7 4h25c5 0 6 -3 3 -8l-90 -134c-2 -2 -5 -4 -8 -4z" />
    <glyph glyph-name="uni0491" unicode="&#x491;" horiz-adv-x="392" 
d="M347 514v110c0 4 3 6 7 6h17c4 0 6 -2 6 -6v-134c0 -3 -2 -6 -6 -6h-262v-478c0 -4 -2 -6 -6 -6h-20c-3 0 -6 2 -6 6v501c0 4 3 7 6 7h264z" />
    <glyph glyph-name="uni0434" unicode="&#x434;" horiz-adv-x="538" 
d="M36 -138h-19c-4 0 -6 3 -6 7v154c0 4 2 6 6 6h23c52 24 79 121 92 478c0 4 3 7 6 7h304c4 0 6 -3 6 -7v-478h54c4 0 6 -2 6 -6v-154c0 -4 -2 -7 -6 -7h-19c-4 0 -6 3 -6 7v131h-435v-131c0 -4 -2 -7 -6 -7zM162 484c-10 -313 -39 -429 -82 -455h336v455h-254z" />
    <glyph glyph-name="uni0435" unicode="&#x435;" horiz-adv-x="507" 
d="M456 334v-90c0 -4 -3 -6 -6 -6h-360v-66c0 -97 77 -153 168 -153c78 0 132 36 170 70c3 2 6 2 8 -1l11 -13c3 -3 3 -6 -1 -8c-42 -39 -104 -77 -189 -77c-105 0 -199 67 -199 182v162c0 121 82 190 199 190s199 -69 199 -190zM424 334c0 102 -67 160 -167 160
c-101 0 -167 -57 -167 -160v-68h334v68z" />
    <glyph glyph-name="uni0451" unicode="&#x451;" horiz-adv-x="507" 
d="M196 652c0 -15 -10 -25 -25 -25s-25 10 -25 25c0 16 10 26 25 26s25 -10 25 -26zM369 652c0 -15 -10 -25 -25 -25s-26 10 -26 25c0 16 11 26 26 26s25 -10 25 -26zM456 334v-90c0 -4 -3 -6 -6 -6h-360v-66c0 -97 77 -153 168 -153c78 0 132 36 170 70c3 2 6 2 8 -1
l11 -13c3 -3 3 -6 -1 -8c-42 -39 -104 -77 -189 -77c-105 0 -199 67 -199 182v162c0 121 82 190 199 190s199 -69 199 -190zM424 334c0 102 -67 160 -167 160c-101 0 -167 -57 -167 -160v-68h334v68z" />
    <glyph glyph-name="uni0436" unicode="&#x436;" horiz-adv-x="717" 
d="M694 0h-24c-3 0 -6 1 -8 4l-209 261l-79 -83v-176c0 -4 -2 -6 -6 -6h-19c-4 0 -6 2 -6 6v176l-79 83l-209 -261c-2 -3 -5 -4 -8 -4h-24c-5 0 -6 4 -4 8l223 279l-206 219c-4 4 -2 8 3 8h25c2 0 6 -2 8 -4l271 -288v285c0 4 2 7 6 7h19c4 0 6 -3 6 -7v-285l271 288
c2 2 6 4 8 4h25c5 0 7 -4 3 -8l-206 -219l223 -279c2 -4 1 -8 -4 -8z" />
    <glyph glyph-name="uni0437" unicode="&#x437;" horiz-adv-x="473" 
d="M405 391c0 -55 -30 -98 -91 -119c69 -17 110 -64 110 -128c0 -89 -83 -154 -199 -154c-80 0 -139 27 -191 69c-3 3 -3 6 -1 9l11 13c3 3 5 4 9 1c46 -35 94 -63 172 -63c96 0 167 53 167 125c0 65 -54 112 -140 112h-122c-4 0 -6 2 -6 6v15c0 4 2 7 6 7h117
c79 0 126 47 126 107c0 66 -65 104 -147 104c-77 0 -131 -27 -164 -53c-3 -3 -6 -2 -8 1l-10 13c-3 3 -3 6 1 9c37 31 100 59 181 59c101 0 179 -53 179 -133z" />
    <glyph glyph-name="uni0438" unicode="&#x438;" horiz-adv-x="558" 
d="M108 0h-25c-3 0 -6 2 -6 6v501c0 4 3 7 6 7h20c4 0 6 -3 6 -7v-460l335 463c2 2 5 4 8 4h23c4 0 6 -3 6 -7v-501c0 -4 -2 -6 -6 -6h-19c-4 0 -7 2 -7 6l1 459h-1c-18 -26 -41 -62 -334 -461c-1 -3 -5 -4 -7 -4z" />
    <glyph glyph-name="uni0439" unicode="&#x439;" horiz-adv-x="558" 
d="M108 0h-25c-3 0 -6 2 -6 6v501c0 4 3 7 6 7h20c4 0 6 -3 6 -7v-460l335 463c2 2 5 4 8 4h23c4 0 6 -3 6 -7v-501c0 -4 -2 -6 -6 -6h-19c-4 0 -7 2 -7 6l1 459h-1c-18 -26 -41 -62 -334 -461c-1 -3 -5 -4 -7 -4zM424 739c-9 -78 -62 -136 -145 -136s-135 58 -144 136
c-1 4 1 6 5 7l16 2c4 0 6 -1 7 -5c9 -67 48 -113 116 -113c69 0 107 46 116 113c1 4 3 6 8 5l15 -2c4 0 7 -3 6 -7z" />
    <glyph glyph-name="uni045D" unicode="&#x45d;" horiz-adv-x="558" 
d="M108 0h-25c-3 0 -6 2 -6 6v501c0 4 3 7 6 7h20c4 0 6 -3 6 -7v-460l335 463c2 2 5 4 8 4h23c4 0 6 -3 6 -7v-501c0 -4 -2 -6 -6 -6h-19c-4 0 -7 2 -7 6l1 459h-1c-18 -26 -41 -62 -334 -461c-1 -3 -5 -4 -7 -4zM303 603h-15c-3 0 -6 2 -8 4l-90 134c-3 5 -2 8 3 8h25
c2 0 6 -2 7 -4l83 -134c3 -5 0 -8 -5 -8z" />
    <glyph glyph-name="uni043A" unicode="&#x43a;" horiz-adv-x="481" 
d="M465 0h-27c-2 0 -5 1 -7 4l-235 257l-87 -81v-174c0 -4 -3 -6 -6 -6h-20c-3 0 -6 2 -6 6v501c0 4 3 7 6 7h20c3 0 6 -3 6 -7v-287l310 291c2 3 5 3 8 3h26c5 0 7 -4 3 -8l-238 -224l250 -274c3 -5 2 -8 -3 -8z" />
    <glyph glyph-name="uni045C" unicode="&#x45c;" horiz-adv-x="481" 
d="M465 0h-27c-2 0 -5 1 -7 4l-235 257l-87 -81v-174c0 -4 -3 -6 -6 -6h-20c-3 0 -6 2 -6 6v501c0 4 3 7 6 7h20c3 0 6 -3 6 -7v-287l310 291c2 3 5 3 8 3h26c5 0 7 -4 3 -8l-238 -224l250 -274c3 -5 2 -8 -3 -8zM233 599h-15c-5 0 -8 3 -5 8l83 134c1 2 5 4 7 4h25
c5 0 6 -3 3 -8l-90 -134c-2 -2 -5 -4 -8 -4z" />
    <glyph glyph-name="uni043B" unicode="&#x43b;" horiz-adv-x="541" 
d="M146 184c-18 -146 -55 -184 -132 -186c-4 0 -6 2 -6 6v17c0 4 2 6 6 6c56 2 85 31 101 167c8 66 17 168 24 313c0 4 3 7 7 7h312c4 0 6 -3 6 -7v-501c0 -4 -2 -6 -6 -6h-19c-4 0 -7 2 -7 6v478h-262c-7 -133 -16 -231 -24 -300z" />
    <glyph glyph-name="uni043C" unicode="&#x43c;" horiz-adv-x="649" 
d="M103 0h-20c-3 0 -6 2 -6 6v501c0 4 3 7 6 7h23c3 0 6 -2 8 -4l211 -372l211 372c1 2 5 4 7 4h23c4 0 6 -3 6 -7v-501c0 -4 -2 -6 -6 -6h-19c-4 0 -6 2 -6 6v453l-200 -352c-2 -3 -5 -4 -8 -4h-17c-2 0 -6 1 -7 4l-200 352v-453c0 -4 -2 -6 -6 -6z" />
    <glyph glyph-name="uni043D" unicode="&#x43d;" horiz-adv-x="536" 
d="M103 0h-20c-3 0 -6 2 -6 6v501c0 4 3 7 6 7h20c4 0 6 -3 6 -7v-226h318v226c0 4 2 7 6 7h19c4 0 7 -3 7 -7v-501c0 -4 -3 -6 -7 -6h-19c-4 0 -6 2 -6 6v245h-318v-245c0 -4 -2 -6 -6 -6z" />
    <glyph glyph-name="uni043E" unicode="&#x43e;" horiz-adv-x="532" 
d="M474 178c0 -106 -72 -188 -208 -188c-135 0 -208 82 -208 188v158c0 105 73 188 208 188c136 0 208 -83 208 -188v-158zM90 178c0 -89 59 -159 176 -159c118 0 176 70 176 159v158c0 88 -58 158 -176 158c-117 0 -176 -70 -176 -158v-158z" />
    <glyph glyph-name="uni043F" unicode="&#x43f;" horiz-adv-x="535" 
d="M83 514h369c4 0 6 -3 6 -7v-501c0 -4 -2 -6 -6 -6h-19c-4 0 -7 2 -7 6v478h-317v-478c0 -4 -2 -6 -6 -6h-20c-4 0 -6 2 -6 6v501c0 4 2 7 6 7z" />
    <glyph glyph-name="uni0440" unicode="&#x440;" horiz-adv-x="532" 
d="M80 488c55 23 118 36 183 36c131 0 212 -66 212 -214v-106c0 -145 -80 -214 -211 -214c-58 0 -114 17 -156 45v-219c0 -4 -2 -6 -6 -6h-20c-3 0 -6 2 -6 6v665c0 3 2 6 4 7zM263 19c115 0 179 56 179 185v106c0 130 -65 185 -179 185c-56 0 -110 -11 -155 -28v-399
c44 -30 99 -49 155 -49z" />
    <glyph glyph-name="uni0441" unicode="&#x441;" horiz-adv-x="463" 
d="M431 52c-52 -41 -107 -62 -174 -62c-125 0 -199 82 -199 185v164c0 103 74 185 199 185c60 0 111 -18 160 -53c4 -3 4 -6 2 -9l-9 -14c-3 -2 -5 -4 -9 -1c-46 33 -91 47 -145 47c-107 0 -166 -70 -166 -155v-164c0 -86 60 -156 166 -156c58 0 108 19 158 56c4 3 7 2 9 -1
l10 -13c2 -3 2 -7 -2 -9z" />
    <glyph glyph-name="uni0442" unicode="&#x442;" horiz-adv-x="435" 
d="M228 0h-20c-4 0 -6 2 -6 6v478h-180c-4 0 -7 3 -7 6v17c0 4 3 7 7 7h392c4 0 6 -3 6 -7v-17c0 -3 -2 -6 -6 -6h-180v-478c0 -4 -3 -6 -6 -6z" />
    <glyph glyph-name="uni0443" unicode="&#x443;" horiz-adv-x="540" 
d="M431 86v421c0 4 2 7 6 7h20c4 0 6 -3 6 -7v-522c0 -108 -60 -185 -193 -185c-76 0 -135 31 -187 78c-2 2 -2 6 0 9l11 13c2 3 5 4 8 1c45 -39 96 -71 168 -71c112 0 162 62 161 156v69c-44 -23 -97 -36 -152 -36c-123 0 -207 63 -207 193v295c0 4 2 7 6 7h19
c4 0 7 -3 7 -7v-294c0 -113 70 -164 178 -164c55 0 105 14 149 37z" />
    <glyph glyph-name="uni045E" unicode="&#x45e;" horiz-adv-x="540" 
d="M416 735c-9 -78 -62 -136 -145 -136s-135 58 -144 136c-1 4 1 6 5 7l16 2c4 0 6 -1 7 -5c9 -67 48 -113 116 -113c69 0 107 46 116 113c1 4 3 6 8 5l15 -2c4 0 7 -3 6 -7zM431 86v421c0 4 2 7 6 7h20c4 0 6 -3 6 -7v-522c0 -108 -60 -185 -193 -185
c-76 0 -135 31 -187 78c-2 2 -2 6 0 9l11 13c2 3 5 4 8 1c45 -39 96 -71 168 -71c112 0 162 62 161 156v69c-44 -23 -97 -36 -152 -36c-123 0 -207 63 -207 193v295c0 4 2 7 6 7h19c4 0 7 -3 7 -7v-294c0 -113 70 -164 178 -164c55 0 105 14 149 37z" />
    <glyph glyph-name="uni0444" unicode="&#x444;" horiz-adv-x="710" 
d="M365 -190h-20c-3 0 -6 2 -6 6v184h-91c-114 0 -191 74 -191 195v124c0 119 77 195 192 195h90v195c0 4 3 6 6 6h20c4 0 6 -2 6 -6v-195h91c116 0 191 -76 191 -195v-124c0 -121 -77 -195 -189 -195h-93v-184c0 -4 -2 -6 -6 -6zM89 195c0 -103 62 -165 160 -165h90v454
h-91c-97 0 -159 -62 -159 -166v-123zM371 30h90c98 0 160 62 160 165v123c0 104 -62 166 -159 166h-91v-454z" />
    <glyph glyph-name="uni0445" unicode="&#x445;" horiz-adv-x="469" 
d="M254 263l193 -255c3 -4 1 -8 -4 -8h-25c-2 0 -6 1 -7 4l-177 235l-177 -235c-1 -3 -4 -4 -7 -4h-25c-5 0 -6 4 -4 8l193 255l-181 243c-2 4 -1 8 4 8h24c3 0 6 -2 7 -4l166 -224l166 224c1 2 5 4 7 4h24c5 0 7 -4 4 -8z" />
    <glyph glyph-name="uni0447" unicode="&#x447;" horiz-adv-x="504" 
d="M421 0h-20c-4 0 -6 2 -6 6v207c-48 -21 -101 -34 -157 -34c-117 0 -189 66 -189 198v130c0 4 3 7 6 7h20c4 0 6 -3 6 -7v-130c0 -113 56 -168 157 -168c57 0 112 15 157 34v264c0 4 2 7 6 7h20c3 0 6 -3 6 -7v-501c0 -4 -3 -6 -6 -6z" />
    <glyph glyph-name="uni0446" unicode="&#x446;" horiz-adv-x="549" 
d="M513 -131h-19c-3 0 -6 2 -6 6v125h-404c-4 0 -7 2 -7 6v501c0 4 3 7 7 7h19c4 0 6 -3 6 -7v-477h318v477c0 4 2 7 6 7h19c4 0 7 -3 7 -7v-478h54c4 0 6 -2 6 -6v-148c0 -4 -2 -6 -6 -6z" />
    <glyph glyph-name="uni0448" unicode="&#x448;" horiz-adv-x="778" 
d="M695 0h-612c-3 0 -6 2 -6 6v501c0 4 3 7 6 7h20c4 0 6 -3 6 -7v-477h264v477c0 4 3 7 7 7h19c4 0 6 -3 6 -7v-477h265v477c0 4 2 7 6 7h19c4 0 6 -3 6 -7v-501c0 -4 -2 -6 -6 -6z" />
    <glyph glyph-name="uni0449" unicode="&#x449;" horiz-adv-x="791" 
d="M756 -131h-19c-4 0 -6 2 -6 6v125h-648c-3 0 -6 2 -6 6v501c0 4 3 7 6 7h20c4 0 6 -3 6 -7v-477h264v477c0 4 3 7 7 7h19c4 0 6 -3 6 -7v-477h265v477c0 4 2 7 6 7h19c4 0 6 -3 6 -7v-478h55c3 0 6 -2 6 -6v-148c0 -4 -3 -6 -6 -6z" />
    <glyph glyph-name="uni045F" unicode="&#x45f;" horiz-adv-x="536" 
d="M433 514h20c4 0 6 -3 6 -7v-501c0 -4 -2 -6 -6 -6h-170v-125c0 -4 -2 -6 -6 -6h-17c-4 0 -7 2 -7 6v125h-170c-4 0 -6 2 -6 6v501c0 4 2 7 6 7h20c4 0 6 -3 6 -7v-477h318v477c0 4 3 7 6 7z" />
    <glyph glyph-name="uni044C" unicode="&#x44c;" horiz-adv-x="495" 
d="M271 0h-188c-3 0 -6 2 -6 6v501c0 4 3 7 6 7h20c4 0 6 -3 6 -7v-174h162c119 0 187 -67 187 -170c0 -108 -68 -163 -187 -163zM109 305v-276h159c103 0 158 45 158 135c0 87 -54 141 -158 141h-159z" />
    <glyph glyph-name="uni044A" unicode="&#x44a;" horiz-adv-x="564" 
d="M340 0h-187c-4 0 -6 2 -6 6v478h-125c-4 0 -6 3 -6 7v16c0 4 2 7 6 7h150c4 0 7 -3 7 -7v-174h161c119 0 187 -67 187 -170c0 -108 -68 -163 -187 -163zM179 305v-276h159c103 0 157 45 157 135c0 87 -54 141 -157 141h-159z" />
    <glyph glyph-name="uni044B" unicode="&#x44b;" horiz-adv-x="646" 
d="M271 0h-188c-3 0 -6 2 -6 6v501c0 4 3 7 6 7h20c4 0 6 -3 6 -7v-174h162c119 0 187 -67 187 -170c0 -108 -68 -163 -187 -163zM109 305v-276h159c103 0 158 45 158 135c0 87 -54 141 -158 141h-159zM563 0h-20c-3 0 -6 2 -6 6v501c0 4 3 7 6 7h20c4 0 6 -3 6 -7v-501
c0 -4 -2 -6 -6 -6z" />
    <glyph glyph-name="uni0459" unicode="&#x459;" horiz-adv-x="841" 
d="M145 184c-19 -146 -54 -186 -131 -186c-4 0 -6 2 -6 6v17c0 4 2 6 6 6c56 1 82 31 101 167c9 66 16 168 24 313c0 4 3 7 7 7h308c4 0 6 -3 6 -7v-174h158c118 0 186 -67 186 -170c0 -108 -68 -163 -186 -163h-184c-3 0 -6 2 -6 6v478h-258c-7 -133 -16 -231 -25 -300z
M460 305v-276h155c103 0 157 45 157 135c0 87 -54 141 -157 141h-155z" />
    <glyph glyph-name="uni045A" unicode="&#x45a;" horiz-adv-x="816" 
d="M103 0h-20c-3 0 -6 2 -6 6v501c0 4 3 7 6 7h20c4 0 6 -3 6 -7v-201h303v201c0 4 2 7 6 7h19c4 0 7 -3 7 -7v-202h152c117 0 185 -59 185 -153c0 -100 -68 -152 -185 -152h-178c-4 0 -6 2 -6 6v270h-303v-270c0 -4 -2 -6 -6 -6zM444 277v-248h150c101 0 154 41 154 124
c0 76 -53 124 -154 124h-150z" />
    <glyph glyph-name="uni0455" unicode="&#x455;" horiz-adv-x="461" 
d="M422 134c0 -85 -67 -144 -189 -144c-74 0 -136 22 -190 64c-4 2 -4 6 -2 9l10 15c2 3 5 4 8 1c52 -39 108 -60 174 -60c93 0 157 40 157 114c0 82 -83 99 -157 114c-82 17 -184 47 -184 147c0 82 76 130 176 130c73 0 126 -20 176 -49c3 -2 4 -5 2 -8l-9 -15
c-1 -3 -5 -4 -8 -2c-46 26 -103 44 -162 44c-83 0 -144 -37 -144 -100c0 -78 81 -101 159 -117c90 -19 183 -42 183 -143z" />
    <glyph glyph-name="uni0454" unicode="&#x454;" horiz-adv-x="473" 
d="M256 19c60 0 113 19 165 57c4 3 7 2 9 -1l10 -14c2 -3 2 -7 -2 -9c-54 -41 -111 -62 -182 -62c-122 0 -197 82 -197 179v176c0 97 74 179 197 179c66 0 119 -18 172 -53c4 -3 4 -6 2 -9l-9 -14c-2 -2 -4 -4 -8 -1c-51 33 -99 47 -157 47c-105 0 -165 -70 -165 -149v-64
h262c3 0 6 -2 6 -6v-16c0 -4 -3 -6 -6 -6h-262v-84c0 -80 61 -150 165 -150z" />
    <glyph glyph-name="uni044D" unicode="&#x44d;" horiz-adv-x="473" 
d="M217 19c104 0 165 70 165 150v84h-262c-3 0 -6 2 -6 6v16c0 4 3 6 6 6h262v64c0 79 -60 149 -165 149c-58 0 -106 -14 -157 -47c-4 -3 -6 -1 -8 1l-9 14c-2 3 -2 6 2 9c53 35 106 53 172 53c123 0 197 -82 197 -179v-176c0 -97 -75 -179 -197 -179c-71 0 -128 21 -182 62
c-4 2 -4 6 -2 9l10 14c2 3 5 4 9 1c52 -38 105 -57 165 -57z" />
    <glyph glyph-name="uni0456" unicode="&#x456;" horiz-adv-x="186" 
d="M103 0h-20c-4 0 -6 2 -6 6v501c0 4 2 7 6 7h20c4 0 6 -3 6 -7v-501c0 -4 -2 -6 -6 -6zM119 652c0 -15 -11 -25 -26 -25s-26 10 -26 25c0 16 11 26 26 26s26 -10 26 -26z" />
    <glyph glyph-name="uni0457" unicode="&#x457;" horiz-adv-x="186" 
d="M102 0h-19c-4 0 -6 2 -6 6v501c0 4 2 7 6 7h19c4 0 7 -3 7 -7v-501c0 -4 -3 -6 -7 -6zM54 652c0 -14 -10 -25 -25 -25s-25 11 -25 25c0 15 10 26 25 26s25 -11 25 -26zM181 652c0 -14 -10 -25 -25 -25s-25 11 -25 25c0 15 10 26 25 26s25 -11 25 -26z" />
    <glyph glyph-name="uni0458" unicode="&#x458;" horiz-adv-x="194" 
d="M117 -35c0 -117 -50 -165 -126 -165c-17 0 -35 1 -51 4c-4 1 -6 4 -6 8v16c0 4 1 7 6 6c17 -3 37 -4 49 -4c58 0 96 34 96 135v542c0 4 2 7 6 7h20c4 0 6 -3 6 -7v-542zM127 652c0 -15 -11 -25 -26 -25s-26 10 -26 25c0 16 11 26 26 26s26 -10 26 -26z" />
    <glyph glyph-name="uni045B" unicode="&#x45b;" 
d="M109 484c47 23 100 38 156 38c131 0 211 -66 211 -203v-313c0 -4 -2 -6 -6 -6h-20c-3 0 -6 2 -6 6v312c0 120 -65 174 -180 174c-56 0 -110 -16 -155 -39v-447c0 -4 -3 -6 -6 -6h-20c-4 0 -6 2 -6 6v598h-76c-4 0 -6 2 -6 6v14c0 4 2 6 6 6h76v79c0 4 2 6 6 6h20
c3 0 6 -2 6 -6v-79h178c3 0 6 -2 6 -6v-14c0 -4 -3 -6 -6 -6h-178v-120z" />
    <glyph glyph-name="uni044E" unicode="&#x44e;" horiz-adv-x="697" 
d="M243 343c0 98 70 181 198 181c129 0 198 -83 198 -181v-172c0 -97 -69 -179 -198 -179c-128 0 -198 82 -198 179v81h-135v-246c0 -4 -2 -6 -6 -6h-19c-4 0 -6 2 -6 6v501c0 4 2 7 6 7h19c4 0 6 -3 6 -7v-225h135v61zM441 21c111 0 166 70 166 150v172
c0 81 -55 151 -166 151s-166 -70 -166 -151v-172c0 -80 55 -150 166 -150z" />
    <glyph glyph-name="uni044F" unicode="&#x44f;" horiz-adv-x="500" 
d="M71 0h-27c-5 0 -6 3 -3 8l174 193c-102 4 -168 61 -168 156c0 105 72 158 190 158h179c4 0 7 -3 7 -7v-502c0 -4 -3 -6 -7 -6h-19c-4 0 -6 2 -6 6v193h-138l-175 -195c-2 -3 -4 -4 -7 -4zM79 357c0 -83 56 -129 158 -129h154v258h-154c-101 0 -158 -42 -158 -129z" />
    <glyph glyph-name="uni0452" unicode="&#x452;" 
d="M109 484c47 23 101 38 157 38c130 0 210 -66 210 -203v-352c0 -119 -49 -166 -125 -166c-13 0 -31 2 -46 3c-4 1 -6 3 -6 7v17c0 4 2 6 6 6c16 -2 34 -3 43 -3c60 0 96 34 96 133v354c0 120 -64 174 -179 174c-57 0 -111 -16 -156 -39v-447c0 -4 -2 -6 -6 -6h-20
c-3 0 -6 2 -6 6v598h-76c-4 0 -6 2 -6 6v13c0 4 2 6 6 6h76v80c0 4 3 6 6 6h20c4 0 6 -2 6 -6v-80h178c4 0 6 -2 6 -6v-13c0 -4 -2 -6 -6 -6h-178v-120z" />
    <glyph glyph-name="uni0432.loclBGR" horiz-adv-x="527" 
d="M480 205c0 -134 -81 -213 -213 -215c-69 -1 -131 15 -185 41c-3 1 -5 4 -5 7v492c0 122 75 195 189 195c110 0 188 -69 188 -171c0 -80 -41 -141 -126 -174c93 -14 152 -91 152 -175zM109 53c46 -21 97 -34 156 -34c114 2 183 68 183 185c0 79 -58 172 -201 152
c-36 -4 -87 -11 -138 -19v-284zM109 530v-164l150 21c121 21 163 90 163 166c0 87 -64 143 -156 143c-97 0 -157 -64 -157 -166z" />
    <glyph glyph-name="uni0433.loclBGR" horiz-adv-x="455" 
d="M413 55c-56 -41 -120 -65 -192 -65c-113 0 -183 57 -183 144c0 92 78 127 178 152c85 20 159 39 159 110c0 70 -68 98 -143 98c-63 0 -117 -19 -154 -45c-2 -2 -7 -1 -8 3l-8 15c-1 3 -1 6 2 9c44 29 102 48 167 48c100 0 175 -44 175 -128c0 -93 -92 -117 -183 -140
c-69 -17 -153 -42 -153 -122c0 -67 55 -115 151 -115c70 0 126 26 177 62c3 2 6 1 9 -3l8 -14c1 -3 1 -7 -2 -9z" />
    <glyph glyph-name="uni0434.loclBGR" horiz-adv-x="530" 
d="M454 -15c0 -108 -60 -185 -196 -185c-76 0 -136 30 -188 80c-2 2 -2 4 0 8l10 14c2 3 5 4 8 1c45 -42 97 -73 170 -73c115 0 165 62 164 156v70c-45 -23 -102 -37 -154 -37c-130 0 -211 67 -211 199v108c0 138 85 198 211 198c61 0 131 -14 181 -36c4 -1 5 -4 5 -7v-496z
M89 218c0 -119 70 -169 180 -169c55 0 110 15 153 38v381c-43 15 -106 26 -155 26c-112 0 -178 -53 -178 -168v-108z" />
    <glyph glyph-name="uni0436.loclBGR" horiz-adv-x="717" 
d="M694 0h-24c-3 0 -6 1 -8 4l-209 261l-79 -83v-176c0 -4 -2 -6 -6 -6h-19c-4 0 -6 2 -6 6v176l-79 83l-209 -261c-2 -3 -5 -4 -8 -4h-24c-5 0 -6 4 -4 8l223 279l-206 219c-4 4 -2 8 3 8h25c2 0 6 -2 8 -4l271 -288v487c0 4 2 6 6 6h19c4 0 6 -2 6 -6v-487l271 288
c2 2 6 4 8 4h25c5 0 7 -4 3 -8l-206 -219l223 -279c2 -4 1 -8 -4 -8z" />
    <glyph glyph-name="uni0438.loclBGR" horiz-adv-x="540" 
d="M439 514h19c4 0 6 -3 6 -7v-471c0 -3 -1 -7 -5 -8c-52 -24 -114 -38 -178 -38c-129 0 -208 68 -208 202v315c0 4 2 7 6 7h20c4 0 6 -3 6 -7v-315c0 -116 64 -173 176 -173c55 0 107 13 151 30v458c0 4 3 7 7 7z" />
    <glyph glyph-name="uni0439.loclBGR" horiz-adv-x="540" 
d="M418 735c-9 -78 -62 -136 -145 -136s-135 58 -144 136c-1 4 1 6 5 7l16 2c4 0 6 -1 7 -5c9 -67 48 -113 116 -113c69 0 107 46 116 113c1 4 3 6 8 5l15 -2c4 0 7 -3 6 -7zM439 514h19c4 0 6 -3 6 -7v-471c0 -3 -1 -7 -5 -8c-52 -24 -114 -38 -178 -38
c-129 0 -208 68 -208 202v315c0 4 2 7 6 7h20c4 0 6 -3 6 -7v-315c0 -116 64 -173 176 -173c55 0 107 13 151 30v458c0 4 3 7 7 7z" />
    <glyph glyph-name="uni045D.loclBGR" horiz-adv-x="540" 
d="M297 599h-15c-3 0 -6 2 -8 4l-90 134c-3 5 -2 8 3 8h25c2 0 6 -2 7 -4l83 -134c3 -5 0 -8 -5 -8zM439 514h19c4 0 6 -3 6 -7v-471c0 -3 -1 -7 -5 -8c-52 -24 -114 -38 -178 -38c-129 0 -208 68 -208 202v315c0 4 2 7 6 7h20c4 0 6 -3 6 -7v-315c0 -116 64 -173 176 -173
c55 0 107 13 151 30v458c0 4 3 7 7 7z" />
    <glyph glyph-name="uni043A.loclBGR" horiz-adv-x="476" 
d="M459 0h-26c-3 0 -6 1 -8 4l-237 267l-79 -69v-196c0 -4 -2 -6 -6 -6h-20c-3 0 -6 2 -6 6v703c0 4 3 6 6 6h20c4 0 6 -2 6 -6v-467l304 269c2 3 5 3 8 3h27c5 0 6 -4 3 -8l-240 -214l251 -284c4 -5 2 -8 -3 -8z" />
    <glyph glyph-name="uni043B.loclBGR" horiz-adv-x="475" 
d="M21 7l196 502c1 2 4 5 7 5h25c3 0 6 -3 8 -5l196 -502c1 -3 -1 -7 -5 -7h-21c-3 0 -7 2 -8 5l-182 471l-183 -471c-1 -3 -4 -5 -7 -5h-21c-4 0 -7 4 -5 7z" />
    <glyph glyph-name="uni043F.loclBGR" horiz-adv-x="547" 
d="M102 0h-20c-3 0 -6 2 -6 6v472c0 3 2 6 5 8c54 24 117 38 182 38c133 0 212 -67 212 -202v-316c0 -4 -2 -6 -6 -6h-19c-4 0 -7 2 -7 6v315c0 116 -65 173 -180 173c-55 0 -111 -12 -155 -29v-459c0 -4 -2 -6 -6 -6z" />
    <glyph glyph-name="uni0442.loclBGR" horiz-adv-x="803" 
d="M377 474c44 30 97 50 160 50c118 0 194 -68 194 -189v-329c0 -4 -3 -6 -7 -6h-19c-4 0 -6 2 -6 6v330c0 101 -60 158 -163 158c-56 0 -106 -18 -142 -43c18 -30 28 -69 28 -115v-330c0 -4 -3 -6 -6 -6h-20c-4 0 -6 2 -6 6v330c0 98 -42 158 -148 158
c-50 0 -92 -11 -134 -28v-460c0 -4 -2 -6 -6 -6h-20c-3 0 -6 2 -6 6v473c0 3 2 6 5 8c50 23 102 37 160 37c61 0 104 -17 136 -50z" />
    <glyph glyph-name="uni0446.loclBGR" horiz-adv-x="569" 
d="M535 -131h-19c-3 0 -6 2 -6 6v152l-51 1c-52 -24 -113 -38 -177 -38c-132 0 -209 67 -209 201v316c0 4 2 7 6 7h19c4 0 7 -3 7 -7v-316c0 -116 63 -172 177 -172c55 0 106 13 150 30v458c0 4 2 7 6 7h20c3 0 6 -3 6 -7v-450h71c4 0 6 -2 6 -6v-176c0 -4 -2 -6 -6 -6z" />
    <glyph glyph-name="uni0448.loclBGR" horiz-adv-x="803" 
d="M427 39c-44 -29 -98 -49 -160 -49c-119 0 -194 67 -194 188v329c0 4 2 7 6 7h20c4 0 6 -3 6 -7v-329c0 -102 60 -158 162 -158c56 0 106 18 143 43c-19 30 -28 69 -28 115v329c0 4 2 7 6 7h20c3 0 6 -3 6 -7v-329c0 -99 41 -159 148 -159c50 0 92 12 133 29v459
c0 4 3 7 7 7h19c4 0 6 -3 6 -7v-472c0 -3 -1 -7 -5 -8c-49 -23 -101 -37 -159 -37c-61 0 -104 17 -136 49z" />
    <glyph glyph-name="uni0449.loclBGR" horiz-adv-x="832" 
d="M797 -131h-18c-4 0 -6 2 -6 6v152l-51 1c-51 -24 -102 -38 -160 -38c-61 0 -106 17 -136 49c-44 -29 -99 -49 -159 -49c-119 0 -194 67 -194 188v329c0 4 2 7 6 7h20c4 0 6 -3 6 -7v-329c0 -102 59 -158 162 -158c55 0 105 18 141 43c-18 30 -27 69 -27 115v329
c0 4 3 7 7 7h19c4 0 6 -3 6 -7v-329c0 -99 42 -158 149 -158c49 0 91 11 132 30v457c0 4 3 7 7 7h19c4 0 6 -3 6 -7v-449h71c4 0 7 -3 7 -7v-176c0 -4 -3 -6 -7 -6z" />
    <glyph glyph-name="uni044C.loclBGR" horiz-adv-x="498" 
d="M461 165c0 -108 -80 -173 -209 -175c-61 -1 -118 12 -171 33c-3 1 -5 3 -5 6v478c0 4 3 7 6 7h20c4 0 6 -3 6 -7v-192c46 15 93 25 146 25c125 0 207 -67 207 -175zM108 45c43 -17 92 -26 142 -25c113 2 179 54 179 145s-67 146 -176 146c-52 0 -100 -11 -145 -26v-240z
" />
    <glyph glyph-name="uni044A.loclBGR" horiz-adv-x="568" 
d="M532 165c0 -108 -80 -173 -209 -175c-61 -1 -118 12 -171 33c-4 1 -5 3 -5 6v455h-124c-4 0 -7 3 -7 7v16c0 4 3 7 7 7h150c4 0 6 -3 6 -7v-192c46 15 93 25 146 25c125 0 207 -67 207 -175zM179 45c43 -17 92 -26 142 -25c113 2 179 54 179 145s-67 146 -177 146
c-51 0 -99 -11 -144 -26v-240z" />
    <glyph glyph-name="uni044E.loclBGR" horiz-adv-x="697" 
d="M243 343c0 98 70 181 198 181c129 0 198 -83 198 -181v-172c0 -97 -69 -179 -198 -179c-128 0 -198 82 -198 179v81h-135v-246c0 -4 -2 -6 -6 -6h-19c-4 0 -6 2 -6 6v703c0 4 2 6 6 6h19c4 0 6 -2 6 -6v-427h135v61zM441 21c111 0 166 70 166 150v172
c0 81 -55 151 -166 151s-166 -70 -166 -151v-172c0 -80 55 -150 166 -150z" />
    <glyph glyph-name="uni0430.ss01" horiz-adv-x="529" 
d="M422 66c-45 -48 -103 -76 -169 -76c-116 0 -196 68 -196 193v138c0 127 84 203 204 203c59 0 121 -13 187 -38c3 -1 5 -3 5 -6v-474c0 -4 -3 -6 -6 -6h-18c-4 0 -6 2 -6 6zM89 183c0 -107 64 -164 167 -164c61 0 115 26 165 81v365c-58 19 -111 29 -160 29
c-103 0 -172 -64 -172 -173v-138z" />
    <glyph glyph-name="Alpha" unicode="&#x391;" horiz-adv-x="589" 
d="M39 0h-23c-4 0 -6 3 -5 7l263 703c1 3 4 5 6 5h28c3 0 6 -2 7 -5l263 -703c1 -4 -1 -7 -5 -7h-23c-3 0 -5 2 -7 5l-81 219h-335l-82 -219c-1 -3 -3 -5 -6 -5zM293 674l-155 -419h313l-155 419h-3z" />
    <glyph glyph-name="Beta" unicode="&#x392;" horiz-adv-x="620" 
d="M535 542c0 -81 -46 -137 -119 -158c96 -19 148 -86 148 -186c0 -125 -87 -198 -247 -198h-213c-4 0 -7 2 -7 6v703c0 4 3 6 7 6h213c162 0 218 -80 218 -173zM131 31h186c143 0 214 62 214 167c0 102 -60 170 -196 170h-204v-337zM501 542c0 74 -41 142 -184 142h-186
v-285h204c104 0 166 52 166 143z" />
    <glyph glyph-name="Gamma" unicode="&#x393;" horiz-adv-x="496" 
d="M125 0h-21c-4 0 -7 2 -7 6v703c0 4 3 6 7 6h374c4 0 6 -2 6 -6v-19c0 -4 -2 -6 -6 -6h-347v-678c0 -4 -3 -6 -6 -6z" />
    <glyph glyph-name="uni0394" unicode="&#x394;" horiz-adv-x="596" 
d="M580 0h-564c-4 0 -6 3 -5 7l264 703c2 3 5 5 8 5h31c2 0 6 -2 7 -5l264 -703c1 -4 -1 -7 -5 -7zM297 675l-241 -644h485l-242 644h-2z" />
    <glyph glyph-name="Epsilon" unicode="&#x395;" horiz-adv-x="563" 
d="M131 349v-318h378c4 0 6 -2 6 -6v-19c0 -4 -2 -6 -6 -6h-405c-4 0 -7 2 -7 6v703c0 4 3 6 7 6h390c4 0 6 -2 6 -6v-19c0 -4 -2 -6 -6 -6h-363v-304h342c4 0 7 -2 7 -6v-19c0 -4 -3 -6 -7 -6h-342z" />
    <glyph glyph-name="Zeta" unicode="&#x396;" horiz-adv-x="553" 
d="M513 0h-475c-3 0 -6 2 -6 6v12c0 2 1 5 3 7l433 659h-415c-4 0 -6 2 -6 6v19c0 4 2 6 6 6h453c4 0 6 -2 6 -6v-13c0 -3 -1 -5 -2 -8l-432 -657h435c3 0 6 -2 6 -6v-19c0 -4 -3 -6 -6 -6z" />
    <glyph glyph-name="Eta" unicode="&#x397;" horiz-adv-x="673" 
d="M542 380v329c0 4 3 6 7 6h20c4 0 7 -2 7 -6v-703c0 -4 -3 -6 -7 -6h-20c-4 0 -7 2 -7 6v343h-411v-343c0 -4 -3 -6 -6 -6h-21c-4 0 -7 2 -7 6v703c0 4 3 6 7 6h21c3 0 6 -2 6 -6v-329h411z" />
    <glyph glyph-name="Theta" unicode="&#x398;" horiz-adv-x="671" 
d="M599 224c0 -135 -105 -234 -263 -234c-159 0 -264 99 -264 234v259c0 144 104 242 264 242c159 0 263 -98 263 -242v-259zM105 224c0 -117 90 -202 231 -202c140 0 230 85 230 202v259c0 126 -89 211 -230 211c-142 0 -231 -85 -231 -211v-259zM511 351h-350
c-4 0 -7 2 -7 6v17c0 4 3 6 7 6h350c4 0 7 -2 7 -6v-17c0 -4 -3 -6 -7 -6z" />
    <glyph glyph-name="Iota" unicode="&#x399;" horiz-adv-x="228" 
d="M131 709v-703c0 -4 -3 -6 -6 -6h-21c-4 0 -7 2 -7 6v703c0 4 3 6 7 6h21c3 0 6 -2 6 -6z" />
    <glyph glyph-name="Kappa" unicode="&#x39a;" horiz-adv-x="603" 
d="M125 0h-21c-4 0 -7 2 -7 6v703c0 4 3 6 7 6h21c3 0 6 -2 6 -6v-393l399 395c3 3 6 4 9 4h28c5 0 8 -4 4 -8l-318 -315l337 -384c4 -5 1 -8 -4 -8h-28c-3 0 -6 1 -8 4l-320 365l-99 -97v-266c0 -4 -3 -6 -6 -6z" />
    <glyph glyph-name="Lambda" unicode="&#x39b;" horiz-adv-x="596" 
d="M39 0h-23c-4 0 -6 3 -5 7l264 703c2 3 5 5 8 5h31c2 0 6 -2 7 -5l264 -703c1 -4 -1 -7 -5 -7h-23c-3 0 -6 2 -7 5l-251 671h-2l-251 -671c-1 -3 -4 -5 -7 -5z" />
    <glyph glyph-name="Mu" unicode="&#x39c;" horiz-adv-x="840" 
d="M125 0h-21c-4 0 -7 2 -7 6v703c0 4 3 6 7 6h28c3 0 6 -1 8 -4l280 -495l281 495c1 3 4 4 7 4h28c4 0 7 -2 7 -6v-703c0 -4 -3 -6 -7 -6h-21c-3 0 -6 2 -6 6l1 657v1l-274 -485c-1 -2 -5 -4 -8 -4h-16c-3 0 -6 2 -8 4l-274 485v-1l1 -657c0 -4 -3 -6 -6 -6z" />
    <glyph glyph-name="Nu" unicode="&#x39d;" horiz-adv-x="699" 
d="M125 0h-21c-4 0 -7 2 -7 6v703c0 4 3 6 7 6h25c2 0 6 -1 7 -4l433 -659l-1 657c0 4 3 6 7 6h20c4 0 7 -2 7 -6v-703c0 -4 -3 -6 -7 -6h-24c-3 0 -7 1 -8 4l-433 657l1 -655c0 -4 -3 -6 -6 -6z" />
    <glyph glyph-name="Xi" unicode="&#x39e;" horiz-adv-x="523" 
d="M466 684h-410c-4 0 -6 2 -6 6v19c0 4 2 6 6 6h410c4 0 7 -2 7 -6v-19c0 -4 -3 -6 -7 -6zM434 346h-345c-3 0 -6 3 -6 7v18c0 4 3 7 6 7h345c4 0 6 -3 6 -7v-18c0 -4 -2 -7 -6 -7zM468 0h-414c-3 0 -6 2 -6 6v20c0 4 3 6 6 6h414c4 0 6 -2 6 -6v-20c0 -4 -2 -6 -6 -6z" />
    <glyph glyph-name="Omicron" unicode="&#x39f;" horiz-adv-x="665" 
d="M593 224c0 -135 -104 -234 -260 -234c-157 0 -261 99 -261 234v259c0 144 103 242 261 242c157 0 260 -98 260 -242v-259zM105 224c0 -117 89 -202 228 -202c138 0 227 85 227 202v259c0 126 -88 211 -227 211c-140 0 -228 -85 -228 -211v-259z" />
    <glyph glyph-name="Pi" unicode="&#x3a0;" horiz-adv-x="673" 
d="M125 0h-21c-4 0 -7 2 -7 6v703c0 4 3 6 7 6h466c4 0 6 -2 6 -6v-703c0 -4 -2 -6 -6 -6h-21c-4 0 -7 2 -7 6v678h-411v-678c0 -4 -3 -6 -6 -6z" />
    <glyph glyph-name="Rho" unicode="&#x3a1;" horiz-adv-x="611" 
d="M103 715h222c157 0 244 -83 244 -219c0 -138 -88 -218 -244 -218h-195v-272c0 -4 -2 -6 -6 -6h-21c-4 0 -6 2 -6 6v703c0 4 2 6 6 6zM130 310h192c141 0 214 66 214 186s-73 188 -214 188h-192v-374z" />
    <glyph glyph-name="Sigma" unicode="&#x3a3;" horiz-adv-x="513" 
d="M45 715h423c4 0 6 -2 6 -6v-19c0 -4 -2 -6 -6 -6h-383l249 -312c2 -3 2 -5 0 -9l-251 -332h385c4 0 6 -2 6 -6v-19c0 -4 -2 -6 -6 -6h-423c-4 0 -6 2 -6 6v15c0 2 1 5 2 8l256 339l-256 319c-1 3 -2 5 -2 8v14c0 4 2 6 6 6z" />
    <glyph glyph-name="Tau" unicode="&#x3a4;" horiz-adv-x="534" 
d="M18 715h497c4 0 7 -2 7 -6v-19c0 -4 -3 -6 -7 -6h-233v-678c0 -4 -3 -6 -6 -6h-21c-4 0 -7 2 -7 6v678h-230c-4 0 -6 2 -6 6v19c0 4 2 6 6 6z" />
    <glyph glyph-name="Upsilon" unicode="&#x3a5;" horiz-adv-x="536" 
d="M278 0h-21c-4 0 -6 2 -6 6v277l-241 424c-2 5 0 8 5 8h24c3 0 6 -1 7 -4l222 -395l222 395c1 3 5 4 8 4h23c5 0 7 -3 5 -8l-241 -424v-277c0 -4 -3 -6 -7 -6z" />
    <glyph glyph-name="Phi" unicode="&#x3a6;" horiz-adv-x="843" 
d="M432 -62h-21c-3 0 -6 2 -6 6v89h-79c-126 0 -258 79 -258 269v110c0 189 133 268 258 268h79v82c0 4 3 7 6 7h21c4 0 7 -3 7 -7v-82h78c125 0 258 -79 258 -268v-110c0 -190 -132 -269 -258 -269h-78v-89c0 -4 -3 -6 -7 -6zM102 302c0 -168 113 -238 225 -238h78v584h-78
c-112 0 -225 -68 -225 -236v-110zM439 648v-584h77c112 0 226 70 226 238v110c0 168 -114 236 -226 236h-77z" />
    <glyph glyph-name="Chi" unicode="&#x3a7;" horiz-adv-x="572" 
d="M307 361l241 -353c3 -4 2 -8 -3 -8h-27c-2 0 -6 1 -7 4l-224 331l-226 -331c-1 -3 -4 -4 -7 -4h-26c-5 0 -7 4 -4 8l242 353l-231 346c-3 4 -1 8 4 8h26c2 0 6 -1 7 -4l215 -324l213 324c2 3 5 4 8 4h26c4 0 6 -4 3 -8z" />
    <glyph glyph-name="Psi" unicode="&#x3a8;" horiz-adv-x="788" 
d="M402 0h-21c-4 0 -6 2 -6 6v157h-79c-132 0 -230 88 -230 229v317c0 4 2 6 6 6h21c4 0 7 -2 7 -6v-317c0 -122 81 -198 198 -198h77v515c0 4 2 6 6 6h21c4 0 7 -2 7 -6v-515h81c117 0 198 76 198 198v317c0 4 3 6 6 6h22c4 0 6 -2 6 -6v-317c0 -141 -98 -229 -231 -229
h-82v-157c0 -4 -3 -6 -7 -6z" />
    <glyph glyph-name="uni03A9" unicode="&#x3a9;" horiz-adv-x="664" 
d="M265 0h-186c-4 0 -6 2 -6 6v19c0 3 2 6 6 6h136c-84 59 -142 147 -142 252v182c0 163 96 260 259 260s259 -97 259 -260v-182c0 -105 -58 -193 -142 -252h136c4 0 7 -3 7 -6v-19c0 -4 -3 -6 -7 -6h-186c-4 0 -6 2 -6 6v13c0 3 1 6 4 8c103 64 160 155 160 256v182
c0 145 -82 229 -225 229s-225 -84 -225 -229v-182c0 -101 57 -192 160 -256c3 -2 5 -5 5 -8v-13c0 -4 -3 -6 -7 -6z" />
    <glyph glyph-name="Alphatonos" unicode="&#x386;" horiz-adv-x="608" 
d="M85 569h-15c-5 0 -8 3 -5 8l83 134c1 2 5 4 7 4h25c5 0 6 -3 3 -8l-90 -134c-2 -2 -5 -4 -8 -4zM58 0h-23c-4 0 -6 3 -5 7l263 703c1 3 4 5 6 5h28c3 0 6 -2 7 -5l263 -703c1 -4 -1 -7 -5 -7h-23c-3 0 -5 2 -7 5l-81 219h-335l-82 -219c-1 -3 -3 -5 -6 -5zM312 674
l-155 -419h313l-155 419h-3z" />
    <glyph glyph-name="Epsilontonos" unicode="&#x388;" horiz-adv-x="685" 
d="M39 569h-15c-5 0 -8 3 -5 8l83 134c1 2 5 4 7 4h25c5 0 6 -3 3 -8l-90 -134c-2 -2 -5 -4 -8 -4zM253 349v-318h378c4 0 6 -2 6 -6v-19c0 -4 -2 -6 -6 -6h-405c-4 0 -7 2 -7 6v703c0 4 3 6 7 6h390c4 0 6 -2 6 -6v-19c0 -4 -2 -6 -6 -6h-363v-304h342c4 0 7 -2 7 -6v-19
c0 -4 -3 -6 -7 -6h-342z" />
    <glyph glyph-name="Etatonos" unicode="&#x389;" horiz-adv-x="823" 
d="M39 569h-15c-5 0 -8 3 -5 8l83 134c1 2 5 4 7 4h25c5 0 6 -3 3 -8l-90 -134c-2 -2 -5 -4 -8 -4zM692 380v329c0 4 3 6 7 6h20c4 0 7 -2 7 -6v-703c0 -4 -3 -6 -7 -6h-20c-4 0 -7 2 -7 6v343h-411v-343c0 -4 -3 -6 -6 -6h-21c-4 0 -7 2 -7 6v703c0 4 3 6 7 6h21
c3 0 6 -2 6 -6v-329h411z" />
    <glyph glyph-name="Iotatonos" unicode="&#x38a;" horiz-adv-x="346" 
d="M39 569h-15c-5 0 -8 3 -5 8l83 134c1 2 5 4 7 4h25c5 0 6 -3 3 -8l-90 -134c-2 -2 -5 -4 -8 -4zM249 709v-703c0 -4 -3 -6 -6 -6h-21c-4 0 -7 2 -7 6v703c0 4 3 6 7 6h21c3 0 6 -2 6 -6z" />
    <glyph glyph-name="Omicrontonos" unicode="&#x38c;" horiz-adv-x="748" 
d="M43 569h-15c-5 0 -8 3 -5 8l83 134c1 2 5 4 7 4h25c5 0 6 -3 3 -8l-90 -134c-2 -2 -5 -4 -8 -4zM676 224c0 -135 -104 -234 -260 -234c-157 0 -261 99 -261 234v259c0 144 103 242 261 242c157 0 260 -98 260 -242v-259zM188 224c0 -117 89 -202 228 -202
c138 0 227 85 227 202v259c0 126 -88 211 -227 211c-140 0 -228 -85 -228 -211v-259z" />
    <glyph glyph-name="Upsilontonos" unicode="&#x38e;" horiz-adv-x="707" 
d="M46 569h-15c-5 0 -8 3 -5 8l83 134c1 2 5 4 7 4h25c5 0 6 -3 3 -8l-90 -134c-2 -2 -5 -4 -8 -4zM449 0h-21c-4 0 -6 2 -6 6v277l-241 424c-2 5 0 8 5 8h24c3 0 6 -1 7 -4l222 -395l222 395c1 3 5 4 8 4h23c5 0 7 -3 5 -8l-241 -424v-277c0 -4 -3 -6 -7 -6z" />
    <glyph glyph-name="Omegatonos" unicode="&#x38f;" horiz-adv-x="767" 
d="M368 0h-186c-4 0 -6 2 -6 6v19c0 3 2 6 6 6h136c-84 59 -142 147 -142 252v182c0 163 96 260 259 260s259 -97 259 -260v-182c0 -105 -58 -193 -142 -252h136c4 0 7 -3 7 -6v-19c0 -4 -3 -6 -7 -6h-186c-4 0 -6 2 -6 6v13c0 3 1 6 4 8c103 64 160 155 160 256v182
c0 145 -82 229 -225 229s-225 -84 -225 -229v-182c0 -101 57 -192 160 -256c3 -2 5 -5 5 -8v-13c0 -4 -3 -6 -7 -6zM42 569h-15c-5 0 -8 3 -5 8l83 134c1 2 5 4 7 4h25c5 0 6 -3 3 -8l-90 -134c-2 -2 -5 -4 -8 -4z" />
    <glyph glyph-name="Iotadieresis" unicode="&#x3aa;" horiz-adv-x="227" 
d="M124 0h-21c-4 0 -6 2 -6 6v703c0 4 2 6 6 6h21c4 0 6 -2 6 -6v-703c0 -4 -2 -6 -6 -6zM58 861c0 -16 -11 -26 -26 -26s-25 10 -25 26c0 15 10 25 25 25s26 -10 26 -25zM221 861c0 -16 -10 -26 -26 -26c-15 0 -25 10 -25 26c0 15 10 25 25 25c16 0 26 -10 26 -25z" />
    <glyph glyph-name="Upsilondieresis" unicode="&#x3ab;" horiz-adv-x="536" 
d="M194 861c0 -16 -10 -26 -26 -26c-15 0 -25 10 -25 26c0 15 10 25 25 25c16 0 26 -10 26 -25zM393 861c0 -16 -10 -26 -26 -26c-15 0 -25 10 -25 26c0 15 10 25 25 25c16 0 26 -10 26 -25zM278 0h-21c-4 0 -6 2 -6 6v277l-241 424c-2 5 0 8 5 8h24c3 0 6 -1 7 -4l222 -395
l222 395c1 3 5 4 8 4h23c5 0 7 -3 5 -8l-241 -424v-277c0 -4 -3 -6 -7 -6z" />
    <glyph glyph-name="alpha" unicode="&#x3b1;" horiz-adv-x="529" 
d="M422 66c-45 -48 -103 -76 -169 -76c-116 0 -196 68 -196 193v138c0 127 84 203 204 203c59 0 121 -13 187 -38c3 -1 5 -3 5 -6v-474c0 -4 -3 -6 -6 -6h-18c-4 0 -6 2 -6 6zM89 183c0 -107 64 -164 167 -164c61 0 115 26 165 81v365c-58 19 -111 29 -160 29
c-103 0 -172 -64 -172 -173v-138z" />
    <glyph glyph-name="beta" unicode="&#x3b2;" horiz-adv-x="531" 
d="M455 541c1 -86 -43 -150 -112 -167c90 -15 138 -85 138 -177c0 -132 -74 -207 -203 -207c-53 0 -112 14 -169 59v-230c0 -4 -2 -7 -6 -7h-20c-3 0 -6 3 -6 7v713c0 127 69 193 186 193c122 0 191 -64 192 -184zM109 81c57 -46 120 -62 167 -62c113 0 172 60 173 178
c1 102 -60 160 -169 160h-108c-4 0 -7 3 -7 6v17c0 4 3 7 7 7h110c88 0 141 57 141 153c0 103 -57 156 -160 156c-101 0 -154 -58 -154 -164v-451z" />
    <glyph glyph-name="gamma" unicode="&#x3b3;" horiz-adv-x="476" 
d="M248 -191h-19c-4 0 -6 2 -6 6v186l-202 505c-2 4 1 8 5 8h21c3 0 6 -3 7 -5l184 -472h1l183 472c1 2 4 5 7 5h21c4 0 7 -4 5 -8l-201 -505v-186c0 -4 -2 -6 -6 -6z" />
    <glyph glyph-name="delta" unicode="&#x3b4;" horiz-adv-x="524" 
d="M104 597c0 -67 89 -98 167 -124c107 -35 199 -77 199 -209v-85c0 -114 -88 -189 -204 -189c-121 0 -211 75 -211 185v93c0 108 56 171 158 197c-71 26 -141 63 -141 133c0 80 79 127 196 127c65 0 118 -16 168 -48c4 -2 4 -6 3 -8l-9 -17c-3 -3 -5 -4 -9 -2
c-46 30 -94 46 -154 46c-97 0 -163 -35 -163 -99zM265 19c101 0 173 62 173 161v83c0 124 -94 158 -187 185c-106 -21 -164 -75 -164 -180v-93c0 -93 74 -156 178 -156z" />
    <glyph glyph-name="epsilon" unicode="&#x3b5;" horiz-adv-x="477" 
d="M248 19c79 0 128 36 173 80c2 3 5 3 8 0l12 -12c3 -4 3 -6 0 -9c-50 -52 -110 -88 -196 -88c-113 0 -197 65 -197 155c0 63 41 110 111 127c-61 22 -91 65 -91 117c0 84 75 135 180 135c84 0 146 -34 182 -68c3 -2 3 -6 0 -9l-10 -12c-3 -3 -5 -4 -9 -1
c-29 28 -81 61 -163 61c-86 0 -148 -38 -148 -105c0 -59 47 -106 126 -106h117c3 0 6 -3 6 -7v-15c0 -4 -3 -6 -6 -6h-122c-87 0 -141 -47 -141 -111c0 -73 70 -126 168 -126z" />
    <glyph glyph-name="zeta" unicode="&#x3b6;" horiz-adv-x="445" 
d="M402 -52c0 -30 -23 -73 -67 -123c-3 -3 -6 -3 -9 -1l-12 12c-3 2 -4 5 -1 9c42 48 58 81 58 101c0 74 -321 15 -321 273c0 157 114 323 330 466h-301c-4 0 -7 3 -7 7v17c0 4 3 6 7 6h350c3 0 6 -2 6 -6v-11c0 -3 -1 -7 -4 -8c-228 -147 -349 -318 -349 -467
c0 -243 320 -169 320 -275z" />
    <glyph glyph-name="eta" unicode="&#x3b7;" horiz-adv-x="547" 
d="M102 0h-20c-3 0 -6 2 -6 6v472c0 3 2 6 5 8c54 24 117 38 182 38c133 0 212 -67 212 -202v-316c0 -4 -2 -6 -6 -6h-19c-4 0 -7 2 -7 6v315c0 116 -65 173 -180 173c-55 0 -111 -12 -155 -29v-459c0 -4 -2 -6 -6 -6z" />
    <glyph glyph-name="theta" unicode="&#x3b8;" horiz-adv-x="564" 
d="M492 192c0 -117 -71 -203 -209 -202s-211 85 -211 202v331c0 116 73 201 211 202s209 -86 209 -202v-331zM104 523v-140h355v140c0 99 -56 174 -176 173s-179 -74 -179 -173zM104 191c0 -98 58 -171 179 -172s177 74 177 172v163h-356v-163z" />
    <glyph glyph-name="iota" unicode="&#x3b9;" horiz-adv-x="186" 
d="M103 0h-20c-3 0 -6 2 -6 6v501c0 4 3 7 6 7h20c4 0 6 -3 6 -7v-501c0 -4 -2 -6 -6 -6z" />
    <glyph glyph-name="kappa" unicode="&#x3ba;" horiz-adv-x="481" 
d="M465 0h-27c-2 0 -5 1 -7 4l-235 257l-87 -81v-174c0 -4 -3 -6 -6 -6h-20c-3 0 -6 2 -6 6v501c0 4 3 7 6 7h20c3 0 6 -3 6 -7v-287l310 291c2 3 5 3 8 3h26c5 0 7 -4 3 -8l-238 -224l250 -274c3 -5 2 -8 -3 -8z" />
    <glyph glyph-name="lambda" unicode="&#x3bb;" horiz-adv-x="546" 
d="M98 0h-20c-4 0 -6 2 -6 6v305c0 138 80 198 210 198c52 0 107 -15 156 -43v78c0 86 -51 152 -160 152c-65 0 -129 -25 -167 -53c-4 -3 -6 -3 -9 1l-10 14c-3 2 -2 6 1 8c41 32 114 59 186 59c119 0 190 -73 190 -181v-538c0 -4 -2 -6 -6 -6h-20c-3 0 -6 2 -6 6v429
c-45 27 -99 45 -155 45c-120 0 -178 -55 -178 -169v-305c0 -4 -2 -6 -6 -6z" />
    <glyph glyph-name="uni03BC" unicode="&#x3bc;" horiz-adv-x="558" 
d="M103 -191h-20c-3 0 -6 2 -6 6v692c0 4 3 7 6 7h20c4 0 6 -3 6 -7v-331c0 -82 57 -157 170 -157c115 0 170 75 170 157v331c0 4 3 7 7 7h19c4 0 6 -3 6 -7v-501c0 -4 -2 -6 -6 -6h-17c-4 0 -6 2 -6 6l-1 86c-20 -60 -86 -102 -172 -102c-85 0 -149 42 -170 99v-274
c0 -4 -2 -6 -6 -6z" />
    <glyph glyph-name="nu" unicode="&#x3bd;" horiz-adv-x="474" 
d="M248 0h-25c-3 0 -6 2 -7 5l-196 501c-2 4 1 8 5 8h21c3 0 6 -3 7 -5l183 -471l182 471c1 2 5 5 8 5h21c4 0 6 -4 5 -8l-196 -501c-2 -3 -5 -5 -8 -5z" />
    <glyph glyph-name="xi" unicode="&#x3be;" horiz-adv-x="448" 
d="M409 -55c0 -31 -29 -78 -67 -120c-2 -3 -6 -3 -9 -1l-13 12c-2 2 -2 5 0 9c35 37 57 76 57 96c0 82 -332 33 -332 270c0 85 58 149 145 169c-74 16 -128 84 -128 167c0 94 76 178 202 178c75 0 135 -28 176 -65c3 -3 3 -6 1 -9l-10 -13c-2 -4 -5 -5 -8 -2
c-38 33 -88 60 -159 60c-106 0 -170 -71 -170 -149c0 -84 65 -152 155 -152h86c4 0 6 -3 6 -7v-18c0 -4 -2 -6 -6 -6h-90c-90 0 -168 -64 -168 -151c0 -218 332 -156 332 -268z" />
    <glyph glyph-name="omicron" unicode="&#x3bf;" horiz-adv-x="532" 
d="M474 178c0 -106 -72 -188 -208 -188c-135 0 -208 82 -208 188v158c0 105 73 188 208 188c136 0 208 -83 208 -188v-158zM90 178c0 -89 59 -159 176 -159c118 0 176 70 176 159v158c0 88 -58 158 -176 158c-117 0 -176 -70 -176 -158v-158z" />
    <glyph glyph-name="pi" unicode="&#x3c0;" horiz-adv-x="535" 
d="M83 514h369c4 0 6 -3 6 -7v-501c0 -4 -2 -6 -6 -6h-19c-4 0 -7 2 -7 6v478h-317v-478c0 -4 -2 -6 -6 -6h-20c-4 0 -6 2 -6 6v501c0 4 2 7 6 7z" />
    <glyph glyph-name="rho" unicode="&#x3c1;" horiz-adv-x="534" 
d="M97 -190h-19c-4 0 -6 2 -6 6v510c0 120 70 198 197 198c133 0 207 -78 207 -198v-139c0 -130 -81 -197 -207 -197c-63 0 -117 20 -165 56v-230c0 -4 -3 -6 -7 -6zM104 78c46 -35 100 -59 164 -59c108 0 176 55 176 168v139c0 102 -57 168 -175 168
c-111 0 -165 -66 -165 -168v-248z" />
    <glyph glyph-name="sigma1" unicode="&#x3c2;" horiz-adv-x="444" 
d="M88 351v-149c0 -208 318 -149 318 -257c0 -30 -25 -73 -66 -120c-3 -3 -6 -3 -9 -1l-12 11c-3 2 -4 5 -1 9c38 45 57 78 57 97c0 79 -318 33 -318 261v150c0 100 77 172 187 172c77 0 138 -25 176 -53c4 -2 4 -6 2 -8l-11 -15c-2 -3 -4 -4 -8 -1c-35 25 -88 47 -159 47
c-93 0 -156 -61 -156 -143z" />
    <glyph glyph-name="sigma" unicode="&#x3c3;" horiz-adv-x="542" 
d="M472 177c0 -105 -71 -188 -207 -187c-134 1 -207 82 -207 187v149c0 105 73 188 207 188h236c4 0 6 -3 6 -7v-17c0 -3 -2 -6 -6 -6h-132c69 -24 103 -86 103 -158v-149zM90 177c0 -88 59 -157 175 -158c118 0 176 70 176 158v149c0 98 -68 157 -176 158
c-116 1 -175 -70 -175 -158v-149z" />
    <glyph glyph-name="tau" unicode="&#x3c4;" horiz-adv-x="435" 
d="M228 0h-20c-4 0 -6 2 -6 6v478h-180c-4 0 -7 3 -7 6v17c0 4 3 7 7 7h392c4 0 6 -3 6 -7v-17c0 -3 -2 -6 -6 -6h-180v-478c0 -4 -3 -6 -6 -6z" />
    <glyph glyph-name="upsilon" unicode="&#x3c5;" 
d="M475 177c0 -106 -74 -188 -200 -187c-127 1 -202 81 -202 187v330c0 4 2 7 6 7h20c4 0 6 -3 6 -7v-330c0 -90 60 -157 170 -158c109 -1 168 68 168 158v330c0 4 2 7 6 7h20c4 0 6 -3 6 -7v-330z" />
    <glyph glyph-name="phi" unicode="&#x3c6;" horiz-adv-x="710" 
d="M365 -190h-20c-3 0 -6 2 -6 6v184h-91c-114 0 -191 74 -191 195v124c0 119 77 195 192 195h90v195c0 4 3 6 6 6h20c4 0 6 -2 6 -6v-195h91c116 0 191 -76 191 -195v-124c0 -121 -77 -195 -189 -195h-93v-184c0 -4 -2 -6 -6 -6zM89 195c0 -103 62 -165 160 -165h90v454
h-91c-97 0 -159 -62 -159 -166v-123zM371 30h90c98 0 160 62 160 165v123c0 104 -62 166 -159 166h-91v-454z" />
    <glyph glyph-name="chi" unicode="&#x3c7;" horiz-adv-x="469" 
d="M254 263l193 -255c3 -4 1 -8 -4 -8h-25c-2 0 -6 1 -7 4l-177 235l-177 -235c-1 -3 -4 -4 -7 -4h-25c-5 0 -6 4 -4 8l193 255l-181 243c-2 4 -1 8 4 8h24c3 0 6 -2 7 -4l166 -224l166 224c1 2 5 4 7 4h24c5 0 7 -4 4 -8z" />
    <glyph glyph-name="psi" unicode="&#x3c8;" horiz-adv-x="744" 
d="M382 -191h-20c-3 0 -6 2 -6 6v185h-74c-124 0 -210 74 -210 197v310c0 4 3 7 6 7h20c4 0 6 -3 6 -7v-309c0 -106 69 -168 180 -168h72v477c0 4 3 7 6 7h20c3 0 6 -3 6 -7v-477h72c111 0 180 62 180 168v309c0 4 2 7 6 7h20c3 0 6 -3 6 -7v-310c0 -123 -86 -197 -210 -197
h-74v-185c0 -4 -3 -6 -6 -6z" />
    <glyph glyph-name="omega" unicode="&#x3c9;" horiz-adv-x="738" 
d="M507 505l4 17c0 3 3 6 7 4c104 -13 161 -84 161 -178v-187c0 -90 -63 -171 -162 -171c-81 0 -128 49 -147 113c-18 -64 -67 -113 -149 -113c-98 0 -162 81 -162 171v187c0 94 58 165 160 178c4 2 8 -1 8 -4l3 -17c1 -4 -1 -6 -4 -7c-89 -12 -135 -72 -135 -151v-185
c0 -73 48 -142 130 -142c91 0 133 70 133 144v169c0 4 2 6 6 6h19c4 0 7 -2 7 -6v-169c0 -74 41 -144 131 -144c83 0 130 69 130 142v185c0 79 -45 139 -135 151c-4 1 -5 3 -5 7z" />
    <glyph glyph-name="iotatonos" unicode="&#x3af;" horiz-adv-x="186" 
d="M84 599h-15c-5 0 -8 3 -5 8l83 134c1 2 5 4 7 4h25c5 0 6 -3 3 -8l-90 -134c-2 -2 -5 -4 -8 -4zM103 0h-20c-3 0 -6 2 -6 6v501c0 4 3 7 6 7h20c4 0 6 -3 6 -7v-501c0 -4 -2 -6 -6 -6z" />
    <glyph glyph-name="iotadieresis" unicode="&#x3ca;" horiz-adv-x="186" 
d="M102 0h-19c-4 0 -6 2 -6 6v501c0 4 2 7 6 7h19c4 0 7 -3 7 -7v-501c0 -4 -3 -6 -7 -6zM54 652c0 -14 -10 -25 -25 -25s-25 11 -25 25c0 15 10 26 25 26s25 -11 25 -26zM181 652c0 -14 -10 -25 -25 -25s-25 11 -25 25c0 15 10 26 25 26s25 -11 25 -26z" />
    <glyph glyph-name="iotadieresistonos" unicode="&#x390;" horiz-adv-x="186" 
d="M103 0h-20c-3 0 -6 2 -6 6v501c0 4 3 7 6 7h20c4 0 6 -3 6 -7v-501c0 -4 -2 -6 -6 -6zM45 660c0 -14 -9 -24 -24 -24c-14 0 -24 10 -24 24c0 15 10 24 24 24c15 0 24 -9 24 -24zM73 600h-13c-5 0 -7 2 -5 7l70 131c1 3 5 4 8 4h21c5 0 6 -2 4 -7l-78 -131
c-1 -3 -4 -4 -7 -4zM206 660c0 -14 -10 -24 -24 -24c-15 0 -24 10 -24 24c0 15 9 24 24 24c14 0 24 -9 24 -24z" />
    <glyph glyph-name="upsilontonos" unicode="&#x3cd;" 
d="M475 177c0 -106 -74 -188 -200 -187c-127 1 -202 81 -202 187v330c0 4 2 7 6 7h20c4 0 6 -3 6 -7v-330c0 -90 60 -157 170 -158c109 -1 168 68 168 158v330c0 4 2 7 6 7h20c4 0 6 -3 6 -7v-330zM258 599h-15c-5 0 -8 3 -5 8l83 134c1 2 5 4 7 4h25c5 0 6 -3 3 -8
l-90 -134c-2 -2 -5 -4 -8 -4z" />
    <glyph glyph-name="upsilondieresis" unicode="&#x3cb;" 
d="M475 177c0 -106 -74 -188 -200 -187c-127 1 -202 81 -202 187v330c0 4 2 7 6 7h20c4 0 6 -3 6 -7v-330c0 -90 60 -157 170 -158c109 -1 168 68 168 158v330c0 4 2 7 6 7h20c4 0 6 -3 6 -7v-330zM213 652c0 -15 -10 -25 -25 -25s-25 10 -25 25c0 16 10 26 25 26
s25 -10 25 -26zM386 652c0 -15 -10 -25 -25 -25s-26 10 -26 25c0 16 11 26 26 26s25 -10 25 -26z" />
    <glyph glyph-name="upsilondieresistonos" unicode="&#x3b0;" 
d="M475 177c0 -106 -74 -188 -200 -187c-127 1 -202 81 -202 187v330c0 4 2 7 6 7h20c4 0 6 -3 6 -7v-330c0 -90 60 -157 170 -158c109 -1 168 68 168 158v330c0 4 2 7 6 7h20c4 0 6 -3 6 -7v-330zM253 600h-13c-5 0 -8 2 -6 7l72 133c1 3 4 5 7 5h22c5 0 6 -3 4 -8
l-78 -133c-2 -3 -5 -4 -8 -4zM203 652c0 -14 -10 -24 -24 -24c-15 0 -25 10 -25 24c0 15 10 25 25 25c14 0 24 -10 24 -25zM397 652c0 -14 -10 -24 -25 -24s-25 10 -25 24c0 15 10 25 25 25s25 -10 25 -25z" />
    <glyph glyph-name="omicrontonos" unicode="&#x3cc;" horiz-adv-x="532" 
d="M232 599h-15c-5 0 -8 3 -5 8l83 134c1 2 5 4 7 4h25c5 0 6 -3 3 -8l-90 -134c-2 -2 -5 -4 -8 -4zM474 178c0 -106 -72 -188 -208 -188c-135 0 -208 82 -208 188v158c0 105 73 188 208 188c136 0 208 -83 208 -188v-158zM90 178c0 -89 59 -159 176 -159
c118 0 176 70 176 159v158c0 88 -58 158 -176 158c-117 0 -176 -70 -176 -158v-158z" />
    <glyph glyph-name="omegatonos" unicode="&#x3ce;" horiz-adv-x="738" 
d="M507 505l4 17c0 3 3 6 7 4c104 -13 161 -84 161 -178v-187c0 -90 -63 -171 -162 -171c-81 0 -128 49 -147 113c-18 -64 -67 -113 -149 -113c-98 0 -162 81 -162 171v187c0 94 58 165 160 178c4 2 8 -1 8 -4l3 -17c1 -4 -1 -6 -4 -7c-89 -12 -135 -72 -135 -151v-185
c0 -73 48 -142 130 -142c91 0 133 70 133 144v169c0 4 2 6 6 6h19c4 0 7 -2 7 -6v-169c0 -74 41 -144 131 -144c83 0 130 69 130 142v185c0 79 -45 139 -135 151c-4 1 -5 3 -5 7zM361 599h-15c-5 0 -8 3 -5 8l83 134c1 2 5 4 7 4h25c5 0 6 -3 3 -8l-90 -134
c-2 -2 -5 -4 -8 -4z" />
    <glyph glyph-name="alphatonos" unicode="&#x3ac;" horiz-adv-x="529" 
d="M422 66c-45 -48 -103 -76 -169 -76c-116 0 -196 68 -196 193v138c0 127 84 203 204 203c59 0 121 -13 187 -38c3 -1 5 -3 5 -6v-474c0 -4 -3 -6 -6 -6h-18c-4 0 -6 2 -6 6zM89 183c0 -107 64 -164 167 -164c61 0 115 26 165 81v365c-58 19 -111 29 -160 29
c-103 0 -172 -64 -172 -173v-138zM252 599h-15c-5 0 -8 3 -5 8l83 134c1 2 5 4 7 4h25c5 0 6 -3 3 -8l-90 -134c-2 -2 -5 -4 -8 -4z" />
    <glyph glyph-name="epsilontonos" unicode="&#x3ad;" horiz-adv-x="477" 
d="M248 19c79 0 128 36 173 80c2 3 5 3 8 0l12 -12c3 -4 3 -6 0 -9c-50 -52 -110 -88 -196 -88c-113 0 -197 65 -197 155c0 63 41 110 111 127c-61 22 -91 65 -91 117c0 84 75 135 180 135c84 0 146 -34 182 -68c3 -2 3 -6 0 -9l-10 -12c-3 -3 -5 -4 -9 -1
c-29 28 -81 61 -163 61c-86 0 -148 -38 -148 -105c0 -59 47 -106 126 -106h117c3 0 6 -3 6 -7v-15c0 -4 -3 -6 -6 -6h-122c-87 0 -141 -47 -141 -111c0 -73 70 -126 168 -126zM232 599h-15c-5 0 -8 3 -5 8l83 134c1 2 5 4 7 4h25c5 0 6 -3 3 -8l-90 -134c-2 -2 -5 -4 -8 -4z
" />
    <glyph glyph-name="etatonos" unicode="&#x3ae;" horiz-adv-x="547" 
d="M264 599h-15c-5 0 -8 3 -5 8l83 134c1 2 5 4 7 4h25c5 0 6 -3 3 -8l-90 -134c-2 -2 -5 -4 -8 -4zM102 0h-20c-3 0 -6 2 -6 6v472c0 3 2 6 5 8c54 24 117 38 182 38c133 0 212 -67 212 -202v-316c0 -4 -2 -6 -6 -6h-19c-4 0 -7 2 -7 6v315c0 116 -65 173 -180 173
c-55 0 -111 -12 -155 -29v-459c0 -4 -2 -6 -6 -6z" />
    <glyph glyph-name="zero" unicode="0" horiz-adv-x="607" 
d="M533 215c0 -140 -92 -225 -229 -225c-138 0 -230 85 -230 225v282c0 144 91 228 230 228c138 0 229 -84 229 -228v-282zM106 215c0 -123 77 -194 198 -194c120 0 197 71 197 194v281c0 127 -76 198 -197 198c-122 0 -198 -71 -198 -198v-281z" />
    <glyph glyph-name="one" unicode="1" horiz-adv-x="323" 
d="M219 0h-19c-4 0 -7 2 -7 6v669l-149 -95c-3 -2 -7 -1 -9 1l-9 16c-2 2 -1 7 2 8l166 107c4 2 6 3 11 3h14c4 0 7 -2 7 -6v-703c0 -4 -3 -6 -7 -6z" />
    <glyph glyph-name="two" unicode="2" horiz-adv-x="543" 
d="M490 0h-441c-4 0 -6 2 -6 6v13c0 3 0 6 3 8l161 171c142 151 234 249 234 350c0 70 -48 147 -163 147c-89 0 -148 -42 -199 -100c-3 -4 -6 -3 -9 0l-11 14c-2 3 -2 5 0 9c55 63 123 107 219 107c130 0 195 -85 195 -177c0 -112 -91 -209 -239 -367l-142 -151h398
c4 0 6 -2 6 -6v-18c0 -4 -2 -6 -6 -6z" />
    <glyph glyph-name="three" unicode="3" horiz-adv-x="559" 
d="M502 210c0 -132 -90 -220 -231 -220c-104 0 -167 41 -225 108c-3 3 -3 6 0 9l12 12c4 2 7 1 10 -2c51 -56 105 -97 203 -97c123 0 199 75 199 190c0 114 -72 186 -206 186c-19 0 -40 -1 -58 -3c-3 0 -5 1 -6 4l-4 7c-1 2 -1 6 1 9l252 272h-370c-4 0 -6 2 -6 6v18
c0 4 2 6 6 6h409c4 0 7 -2 7 -6v-12c0 -2 -2 -6 -3 -8l-247 -267h18c158 2 239 -86 239 -212z" />
    <glyph glyph-name="four" unicode="4" horiz-adv-x="531" 
d="M410 0h-20c-4 0 -6 2 -6 6v190h-348c-4 0 -7 2 -7 6v12c0 2 1 6 3 8l283 489c2 3 5 4 8 4h23c5 0 6 -3 4 -8l-280 -481h314v175c0 4 2 6 6 6h20c3 0 6 -2 6 -6v-175h77c4 0 7 -2 7 -6v-18c0 -4 -3 -6 -7 -6h-77v-190c0 -4 -3 -6 -6 -6z" />
    <glyph glyph-name="five" unicode="5" horiz-adv-x="566" 
d="M512 234c0 -146 -89 -242 -230 -242c-98 0 -163 39 -217 106c-2 3 -2 6 1 8l13 13c3 3 6 3 9 -1c50 -61 106 -96 194 -96c123 0 198 80 198 211c0 139 -80 197 -190 197c-79 0 -135 -29 -181 -75c-3 -3 -6 -4 -9 -2l-20 7c-3 1 -5 3 -5 6l13 343c0 4 2 6 6 6h378
c4 0 7 -2 7 -6v-18c0 -4 -3 -6 -7 -6h-353l-11 -294c53 47 111 70 184 70c126 0 220 -71 220 -227z" />
    <glyph glyph-name="six" unicode="6" horiz-adv-x="575" 
d="M107 331c33 78 117 114 192 114c136 0 221 -79 221 -226c0 -141 -88 -229 -222 -229s-224 86 -224 225v290c0 139 104 220 222 220c86 0 147 -32 195 -76c2 -3 2 -5 0 -9l-10 -13c-3 -3 -6 -4 -10 -1c-42 39 -96 69 -174 69c-107 0 -190 -73 -190 -190v-174zM107 215
c0 -123 75 -195 191 -195c117 0 189 75 189 199c0 128 -70 196 -188 196c-90 0 -192 -56 -192 -183v-17z" />
    <glyph glyph-name="seven" unicode="7" horiz-adv-x="500" 
d="M138 0h-22c-4 0 -7 3 -5 8l328 676h-407c-4 0 -7 3 -7 6v19c0 4 3 6 7 6h440c4 0 7 -2 7 -6v-11c0 -2 0 -5 -2 -7l-331 -686c-1 -3 -5 -5 -8 -5z" />
    <glyph glyph-name="eight" unicode="8" horiz-adv-x="597" 
d="M535 198c0 -121 -88 -208 -236 -208c-149 0 -237 87 -237 208c0 83 55 157 153 179c-92 24 -132 91 -132 168c0 103 81 180 216 180s215 -77 215 -180c0 -77 -39 -144 -131 -168c98 -22 152 -96 152 -179zM95 200c0 -100 69 -180 204 -180c134 0 204 80 204 180
c0 92 -78 161 -204 161c-127 0 -204 -69 -204 -161zM115 545c0 -86 59 -155 184 -155s183 69 183 155c0 95 -73 150 -183 150s-184 -55 -184 -150z" />
    <glyph glyph-name="nine" unicode="9" horiz-adv-x="575" 
d="M56 496c0 141 87 229 222 229c133 0 223 -86 223 -225v-290c0 -139 -103 -220 -222 -220c-90 0 -151 44 -198 105c-2 3 -2 6 0 8l12 14c2 3 6 3 9 0c42 -56 94 -97 177 -97c106 0 190 73 190 190v171c-34 -76 -120 -111 -193 -111c-136 0 -220 78 -220 226zM88 496
c0 -128 70 -196 189 -196c89 0 192 56 192 181v19c0 123 -76 195 -192 195s-189 -75 -189 -199z" />
    <glyph glyph-name="zero.sinf" unicode="&#x2080;" horiz-adv-x="344" 
d="M297 12c0 -69 -53 -117 -125 -117s-125 48 -125 117v159c0 75 52 122 125 122s125 -47 125 -122v-159zM70 13c0 -57 42 -95 102 -95s102 38 102 95v158c0 61 -41 99 -102 99s-102 -38 -102 -99v-158z" />
    <glyph glyph-name="one.sinf" unicode="&#x2081;" horiz-adv-x="196" 
d="M130 -100h-11c-3 0 -6 2 -6 6v357l-76 -53c-3 -3 -7 -2 -9 1l-6 8c-1 2 0 6 3 8l84 59c2 2 3 2 7 2h14c4 0 7 -2 7 -6v-376c0 -4 -3 -6 -7 -6z" />
    <glyph glyph-name="two.sinf" unicode="&#x2082;" horiz-adv-x="308" 
d="M269 -100h-231c-4 0 -6 2 -6 6v8c0 3 0 6 2 9l85 88c76 82 123 132 123 189c0 42 -33 70 -89 70c-45 0 -75 -25 -99 -50c-2 -3 -6 -3 -8 0l-6 7c-3 4 -3 6 0 10c24 28 63 56 114 56c75 0 111 -45 111 -92c0 -65 -49 -121 -129 -205l-70 -73h203c3 0 6 -2 6 -6v-11
c0 -4 -3 -6 -6 -6z" />
    <glyph glyph-name="three.sinf" unicode="&#x2083;" horiz-adv-x="312" 
d="M275 19c0 -67 -51 -124 -120 -124c-53 0 -93 23 -125 62c-2 3 -3 6 0 8l7 7c3 3 6 3 9 0c31 -37 65 -54 108 -54c58 0 97 47 97 103c0 48 -31 90 -97 90c-15 0 -29 -1 -39 -2c-3 0 -5 0 -6 3l-3 6c-1 3 0 6 2 9l125 139h-182c-4 0 -7 2 -7 6v10c0 4 3 6 7 6h212
c3 0 6 -2 6 -5v-6c0 -3 -2 -5 -4 -7l-126 -141c8 1 16 1 24 1c68 0 112 -47 112 -111z" />
    <glyph glyph-name="four.sinf" unicode="&#x2084;" horiz-adv-x="306" 
d="M234 -100h-11c-4 0 -6 2 -6 6v93h-187c-4 0 -6 3 -6 7v5c0 3 1 5 2 8l150 265c1 3 5 4 7 4h11c5 0 8 -3 5 -8l-146 -258h164v93c0 4 2 7 6 7h11c4 0 6 -3 6 -7v-93h35c4 0 6 -2 6 -6v-10c0 -4 -2 -7 -6 -7h-35v-93c0 -4 -2 -6 -6 -6z" />
    <glyph glyph-name="five.sinf" unicode="&#x2085;" horiz-adv-x="325" 
d="M288 29c0 -85 -48 -134 -122 -134c-56 0 -91 21 -121 64c-2 3 0 6 3 8l6 6c4 3 7 1 9 -2c26 -36 55 -53 102 -53c64 0 100 41 100 111c0 72 -39 105 -98 105c-42 0 -69 -17 -95 -47c-3 -2 -6 -3 -9 -2l-12 3c-3 1 -5 3 -5 7l6 187c0 4 3 6 7 6h207c3 0 6 -2 6 -6v-11
c0 -3 -3 -6 -6 -6h-193l-4 -154c26 30 60 45 100 45c68 0 119 -41 119 -127z" />
    <glyph glyph-name="six.sinf" unicode="&#x2086;" horiz-adv-x="329" 
d="M292 26c0 -81 -46 -131 -118 -131c-75 0 -127 49 -127 131v151c0 72 49 116 121 116c45 0 77 -19 105 -41c3 -3 3 -5 0 -9l-6 -7c-2 -3 -6 -3 -9 -1c-24 20 -51 35 -89 35c-62 0 -98 -35 -98 -93v-85c15 32 55 56 103 56c69 0 118 -43 118 -122zM71 26
c0 -69 42 -108 102 -108s96 41 96 108c0 66 -37 100 -97 100s-101 -39 -101 -100z" />
    <glyph glyph-name="seven.sinf" unicode="&#x2087;" horiz-adv-x="288" 
d="M83 -100h-13c-4 0 -6 4 -4 7l172 358h-209c-4 0 -6 2 -6 6v11c0 4 2 6 6 6h232c3 0 6 -2 6 -6v-6c0 -2 0 -4 -2 -7l-175 -365c-2 -3 -4 -4 -7 -4z" />
    <glyph glyph-name="eight.sinf" unicode="&#x2088;" horiz-adv-x="339" 
d="M299 8c0 -63 -53 -113 -130 -113c-76 0 -129 50 -129 113c0 43 27 83 79 96c-47 14 -69 49 -69 91c0 57 49 98 119 98c71 0 120 -41 120 -98c0 -42 -22 -77 -69 -91c52 -13 79 -53 79 -96zM73 195c0 -44 31 -80 96 -80c66 0 97 36 97 80c0 48 -45 75 -97 75
c-51 0 -96 -27 -96 -75zM64 9c0 -49 41 -91 105 -91c65 0 106 42 106 91c0 47 -41 83 -106 83c-64 0 -105 -36 -105 -83z" />
    <glyph glyph-name="nine.sinf" unicode="&#x2089;" horiz-adv-x="331" 
d="M38 168c0 76 47 125 119 125c74 0 126 -48 126 -129v-153c0 -72 -48 -116 -121 -116c-47 0 -81 19 -111 41c-2 3 -2 5 0 9l6 7c3 3 6 3 9 1c26 -20 55 -35 96 -35c61 0 98 35 98 93v89c-16 -34 -56 -60 -103 -60c-70 0 -119 44 -119 128zM260 164c0 68 -43 106 -103 106
c-59 0 -96 -40 -96 -102c0 -69 37 -106 97 -106s102 41 102 102z" />
    <glyph glyph-name="zero.tf" horiz-adv-x="550" 
d="M504 215c0 -140 -92 -225 -229 -225c-138 0 -230 85 -230 225v282c0 144 91 228 230 228c138 0 229 -84 229 -228v-282zM78 215c0 -123 76 -194 197 -194c120 0 197 71 197 194v281c0 127 -76 198 -197 198c-122 0 -197 -71 -197 -198v-281z" />
    <glyph glyph-name="one.tf" horiz-adv-x="550" 
d="M308 709v-679h159c4 0 6 -2 6 -6v-18c0 -4 -2 -6 -6 -6h-352c-4 0 -6 2 -6 6v18c0 4 2 6 6 6h160v645l-149 -95c-3 -2 -7 -1 -9 1l-9 16c-2 2 -1 7 2 8l168 108c3 2 5 2 8 2h15c4 0 7 -2 7 -6z" />
    <glyph glyph-name="two.tf" horiz-adv-x="550" 
d="M493 0h-441c-4 0 -6 2 -6 6v13c0 3 0 6 2 8l161 171c143 151 234 249 234 350c0 70 -47 147 -162 147c-89 0 -149 -42 -200 -100c-2 -4 -6 -3 -8 0l-11 14c-3 3 -3 5 0 9c55 63 122 107 219 107c129 0 195 -85 195 -177c0 -112 -92 -209 -239 -367l-142 -151h398
c3 0 6 -2 6 -6v-18c0 -4 -3 -6 -6 -6z" />
    <glyph glyph-name="three.tf" horiz-adv-x="550" 
d="M497 210c0 -132 -90 -220 -231 -220c-103 0 -166 41 -225 107c-2 4 -2 6 0 9l12 12c4 3 7 2 10 -1c51 -56 105 -97 203 -97c124 0 199 75 199 190c0 114 -71 186 -206 186c-19 0 -40 -1 -58 -3c-2 0 -5 1 -6 4l-4 7c-1 2 -1 6 2 9l252 272h-371c-3 0 -6 2 -6 6v18
c0 4 3 6 6 6h410c3 0 6 -2 6 -6v-12c0 -2 -1 -6 -3 -8l-247 -267h18c158 2 239 -86 239 -212z" />
    <glyph glyph-name="four.tf" horiz-adv-x="550" 
d="M419 0h-20c-4 0 -6 2 -6 6v190h-348c-4 0 -7 2 -7 6v12c0 2 1 6 3 8l283 489c2 3 5 4 8 4h23c5 0 6 -3 4 -8l-280 -481h314v175c0 4 2 6 6 6h20c3 0 6 -2 6 -6v-175h77c4 0 7 -2 7 -6v-18c0 -4 -3 -6 -7 -6h-77v-190c0 -4 -3 -6 -6 -6z" />
    <glyph glyph-name="five.tf" horiz-adv-x="550" 
d="M505 234c0 -146 -90 -242 -231 -242c-97 0 -163 39 -217 106c-1 3 -1 6 1 8l13 13c3 3 7 3 9 -1c50 -61 107 -96 195 -96c122 0 197 80 197 211c0 139 -79 197 -190 197c-79 0 -135 -29 -181 -75c-2 -3 -5 -4 -8 -2l-21 7c-2 1 -5 3 -5 6l13 343c0 4 3 6 7 6h378
c4 0 6 -2 6 -6v-18c0 -4 -2 -6 -6 -6h-354l-11 -294c53 47 111 70 185 70c125 0 220 -71 220 -227z" />
    <glyph glyph-name="six.tf" horiz-adv-x="550" 
d="M94 331c34 78 118 114 193 114c135 0 220 -79 220 -226c0 -141 -87 -229 -222 -229c-133 0 -223 86 -223 225v290c0 139 102 220 222 220c85 0 147 -31 194 -76c3 -3 3 -5 0 -9l-10 -13c-2 -3 -6 -5 -9 -1c-43 40 -95 69 -175 69c-106 0 -190 -73 -190 -190v-174zM94 215
c0 -123 76 -195 191 -195c117 0 190 75 190 199c0 128 -71 196 -189 196c-89 0 -192 -56 -192 -183v-17z" />
    <glyph glyph-name="seven.tf" horiz-adv-x="550" 
d="M163 0h-22c-4 0 -7 3 -5 8l327 676h-406c-4 0 -7 3 -7 6v19c0 4 3 6 7 6h440c4 0 7 -2 7 -6v-11c0 -2 -1 -5 -2 -7l-331 -686c-2 -3 -5 -5 -8 -5z" />
    <glyph glyph-name="eight.tf" horiz-adv-x="550" 
d="M511 198c0 -121 -88 -208 -236 -208s-237 87 -237 208c0 83 55 157 153 179c-92 24 -132 91 -132 168c0 103 81 180 216 180s216 -77 216 -180c0 -77 -40 -144 -131 -168c97 -22 151 -96 151 -179zM71 200c0 -100 69 -180 204 -180s204 80 204 180c0 92 -79 161 -204 161
c-126 0 -204 -69 -204 -161zM91 545c0 -86 59 -155 184 -155s183 69 183 155c0 95 -73 150 -183 150s-184 -55 -184 -150z" />
    <glyph glyph-name="nine.tf" horiz-adv-x="550" 
d="M43 496c0 141 87 229 222 229c133 0 223 -86 223 -225v-290c0 -139 -103 -220 -222 -220c-85 0 -147 40 -194 93c-3 4 -3 6 -1 9l12 14c3 2 6 2 9 0c43 -49 96 -86 174 -86c106 0 190 73 190 190v171c-34 -76 -120 -111 -193 -111c-136 0 -220 78 -220 226zM75 496
c0 -128 70 -196 189 -196c89 0 192 56 192 181v19c0 123 -76 195 -192 195s-189 -75 -189 -199z" />
    <glyph glyph-name="zero.dnom" horiz-adv-x="344" 
d="M297 112c0 -69 -53 -117 -125 -117s-125 48 -125 117v159c0 75 52 122 125 122s125 -47 125 -122v-159zM70 113c0 -57 42 -95 102 -95s102 38 102 95v158c0 61 -41 99 -102 99s-102 -38 -102 -99v-158z" />
    <glyph glyph-name="one.dnom" horiz-adv-x="196" 
d="M130 0h-11c-3 0 -6 2 -6 6v357l-76 -53c-3 -3 -7 -2 -9 1l-6 8c-1 2 0 6 3 8l84 59c2 2 3 2 7 2h14c4 0 7 -2 7 -6v-376c0 -4 -3 -6 -7 -6z" />
    <glyph glyph-name="two.dnom" horiz-adv-x="308" 
d="M268 0h-231c-3 0 -6 2 -6 6v8c0 3 0 6 3 9l84 88c77 82 123 132 123 189c0 42 -32 70 -88 70c-45 0 -76 -25 -99 -50c-3 -3 -6 -3 -9 0l-6 7c-2 4 -2 6 0 10c25 28 63 56 115 56c75 0 111 -45 111 -92c0 -65 -49 -121 -130 -205l-69 -73h202c4 0 6 -2 6 -6v-11
c0 -4 -2 -6 -6 -6z" />
    <glyph glyph-name="three.dnom" horiz-adv-x="312" 
d="M275 119c0 -67 -51 -124 -120 -124c-52 0 -93 23 -125 62c-2 3 -2 6 0 8l7 7c4 3 6 3 9 0c31 -37 66 -54 108 -54c59 0 98 47 98 103c0 48 -31 90 -98 90c-15 0 -28 -1 -38 -2c-4 0 -6 0 -7 3l-3 6c-1 3 0 6 2 9l125 139h-182c-4 0 -6 2 -6 6v10c0 4 2 6 6 6h213
c3 0 5 -2 5 -5v-6c0 -3 -2 -5 -4 -7l-126 -141c9 1 16 1 24 1c68 0 112 -47 112 -111z" />
    <glyph glyph-name="four.dnom" horiz-adv-x="306" 
d="M234 0h-11c-4 0 -6 2 -6 6v93h-187c-4 0 -6 3 -6 7v5c0 3 1 5 2 8l150 265c1 3 5 4 7 4h11c5 0 8 -3 5 -8l-146 -258h164v93c0 4 2 7 6 7h11c4 0 6 -3 6 -7v-93h35c4 0 6 -2 6 -6v-10c0 -4 -2 -7 -6 -7h-35v-93c0 -4 -2 -6 -6 -6z" />
    <glyph glyph-name="five.dnom" horiz-adv-x="325" 
d="M288 129c0 -85 -48 -134 -122 -134c-57 0 -91 21 -121 63c-2 4 -1 7 3 9l6 6c3 3 7 1 9 -2c26 -36 55 -53 102 -53c64 0 99 41 100 111c0 72 -39 105 -98 105c-42 0 -69 -17 -95 -47c-3 -2 -6 -3 -9 -2l-12 3c-3 1 -5 3 -5 7l6 187c0 4 3 6 7 6h207c3 0 6 -2 6 -6v-11
c0 -3 -3 -6 -6 -6h-193l-4 -154c26 30 60 45 100 45c68 0 119 -41 119 -127z" />
    <glyph glyph-name="six.dnom" horiz-adv-x="329" 
d="M292 126c0 -81 -47 -131 -119 -131c-74 0 -126 49 -126 131v151c0 72 49 116 122 116c44 0 76 -19 104 -41c3 -3 3 -5 0 -9l-6 -7c-2 -3 -6 -3 -8 -1c-24 20 -52 35 -90 35c-62 0 -99 -35 -99 -93v-85c16 32 56 56 103 56c70 0 119 -43 119 -122zM70 126
c0 -69 43 -108 103 -108c59 0 96 41 96 108c0 66 -37 100 -97 100s-102 -39 -102 -100z" />
    <glyph glyph-name="seven.dnom" horiz-adv-x="288" 
d="M84 0h-14c-4 0 -5 4 -4 7l172 358h-209c-3 0 -6 2 -6 6v11c0 4 3 6 6 6h232c4 0 6 -2 6 -6v-6c0 -2 0 -4 -1 -7l-176 -365c-1 -3 -3 -4 -6 -4z" />
    <glyph glyph-name="eight.dnom" horiz-adv-x="339" 
d="M299 108c0 -63 -53 -113 -129 -113c-77 0 -129 50 -129 113c0 43 26 83 79 96c-48 14 -70 49 -70 91c0 57 49 98 120 98c70 0 119 -41 119 -98c0 -42 -22 -77 -69 -91c52 -13 79 -53 79 -96zM74 295c0 -44 30 -80 96 -80c65 0 96 36 96 80c0 48 -45 75 -96 75
c-52 0 -96 -27 -96 -75zM64 109c0 -49 41 -91 106 -91c64 0 105 42 105 91c0 47 -41 83 -105 83c-65 0 -106 -36 -106 -83z" />
    <glyph glyph-name="nine.dnom" horiz-adv-x="331" 
d="M39 268c0 76 47 125 119 125c75 0 126 -48 126 -128v-154c0 -72 -48 -116 -121 -116c-48 0 -86 26 -114 57c-2 3 -2 6 0 9l7 8c2 3 6 3 9 0c24 -29 57 -51 98 -51c62 0 98 35 98 93v89c-15 -34 -56 -60 -103 -60c-70 0 -119 45 -119 128zM261 265c0 67 -42 105 -102 105
s-96 -39 -96 -102c0 -69 37 -106 96 -106c61 0 102 41 102 103z" />
    <glyph glyph-name="zero.numr" horiz-adv-x="344" 
d="M297 439c0 -69 -53 -117 -125 -117s-125 48 -125 117v159c0 75 52 122 125 122s125 -47 125 -122v-159zM70 440c0 -57 42 -95 102 -95s102 38 102 95v158c0 61 -41 99 -102 99s-102 -38 -102 -99v-158z" />
    <glyph glyph-name="one.numr" horiz-adv-x="196" 
d="M130 326h-11c-3 0 -6 3 -6 6v357l-76 -53c-3 -3 -7 -2 -9 1l-6 8c-1 3 0 6 3 9l84 58c2 2 3 2 7 2h14c4 0 7 -2 7 -6v-376c0 -3 -3 -6 -7 -6z" />
    <glyph glyph-name="two.numr" horiz-adv-x="308" 
d="M268 327h-231c-3 0 -6 2 -6 6v8c0 3 0 6 3 9l84 88c77 82 123 132 123 189c0 42 -32 70 -88 70c-45 0 -76 -25 -99 -50c-3 -3 -6 -3 -9 0l-6 7c-2 4 -2 6 0 10c25 28 63 56 115 56c75 0 111 -45 111 -92c0 -65 -49 -121 -130 -205l-69 -73h202c4 0 6 -2 6 -6v-11
c0 -4 -2 -6 -6 -6z" />
    <glyph glyph-name="three.numr" horiz-adv-x="312" 
d="M276 446c0 -67 -51 -124 -120 -124c-52 0 -93 23 -125 62c-2 3 -2 6 0 8l7 7c4 3 6 3 9 0c31 -37 66 -54 108 -54c59 0 98 47 98 103c0 48 -31 90 -98 90c-15 0 -28 -1 -38 -2c-4 0 -6 0 -7 3l-3 6c-1 3 0 6 2 9l125 139h-182c-4 0 -6 2 -6 6v10c0 4 2 6 6 6h213
c3 0 5 -2 5 -5v-6c0 -3 -2 -5 -4 -7l-126 -141c9 1 16 1 24 1c68 0 112 -47 112 -111z" />
    <glyph glyph-name="four.numr" horiz-adv-x="306" 
d="M234 327h-11c-4 0 -6 2 -6 6v93h-187c-4 0 -6 3 -6 7v5c0 3 1 5 2 8l150 265c1 3 5 4 7 4h11c5 0 8 -3 5 -8l-146 -258h164v93c0 4 2 7 6 7h11c4 0 6 -3 6 -7v-93h35c4 0 6 -2 6 -6v-10c0 -4 -2 -7 -6 -7h-35v-93c0 -4 -2 -6 -6 -6z" />
    <glyph glyph-name="five.numr" horiz-adv-x="325" 
d="M288 456c0 -85 -48 -134 -122 -134c-57 0 -91 21 -121 63c-2 4 -1 7 3 9l6 6c3 3 7 1 9 -2c26 -36 55 -53 102 -53c64 0 99 41 100 111c0 72 -39 105 -98 105c-42 0 -69 -17 -95 -47c-3 -2 -6 -3 -9 -2l-12 3c-3 1 -5 3 -5 7l6 187c0 4 3 6 7 6h207c3 0 6 -2 6 -6v-11
c0 -3 -3 -6 -6 -6h-193l-4 -154c26 30 60 45 100 45c68 0 119 -41 119 -127z" />
    <glyph glyph-name="six.numr" horiz-adv-x="329" 
d="M292 453c0 -81 -47 -131 -119 -131c-74 0 -126 49 -126 131v151c0 72 49 116 121 116c44 0 77 -19 105 -41c2 -3 2 -5 0 -9l-6 -7c-3 -3 -6 -3 -9 -1c-24 20 -52 35 -90 35c-61 0 -98 -35 -98 -93v-85c16 32 56 56 103 56c70 0 119 -43 119 -122zM70 453
c0 -69 43 -108 103 -108c59 0 96 41 96 108c0 66 -37 100 -97 100s-102 -39 -102 -100z" />
    <glyph glyph-name="seven.numr" horiz-adv-x="288" 
d="M84 327h-14c-4 0 -5 4 -4 7l172 358h-209c-4 0 -6 2 -6 6v11c0 4 2 6 6 6h232c4 0 6 -2 6 -6v-6c0 -2 0 -4 -1 -7l-176 -365c-1 -3 -4 -4 -6 -4z" />
    <glyph glyph-name="eight.numr" horiz-adv-x="339" 
d="M299 435c0 -63 -53 -113 -129 -113c-77 0 -129 50 -129 113c0 43 26 83 79 96c-48 14 -70 49 -70 91c0 57 49 98 120 98c70 0 119 -41 119 -98c0 -42 -22 -77 -69 -91c52 -13 79 -53 79 -96zM74 622c0 -44 30 -80 96 -80c65 0 96 36 96 80c0 48 -45 75 -96 75
c-52 0 -96 -27 -96 -75zM64 436c0 -49 41 -91 106 -91c64 0 105 42 105 91c0 47 -41 83 -105 83c-65 0 -106 -36 -106 -83z" />
    <glyph glyph-name="nine.numr" horiz-adv-x="331" 
d="M39 595c0 76 47 125 119 125c75 0 126 -48 126 -128v-154c0 -72 -48 -116 -121 -116c-48 0 -86 26 -114 57c-2 3 -2 6 0 9l7 8c2 3 6 3 9 0c24 -29 57 -51 98 -51c62 0 98 35 98 93v89c-15 -34 -56 -60 -103 -60c-70 0 -119 45 -119 128zM261 592c0 67 -42 105 -102 105
s-96 -39 -96 -102c0 -69 37 -106 96 -106c61 0 102 41 102 103z" />
    <glyph glyph-name="zero.sups" unicode="&#x2070;" horiz-adv-x="344" 
d="M297 522c0 -69 -53 -117 -125 -117s-125 48 -125 117v159c0 75 52 122 125 122s125 -47 125 -122v-159zM70 523c0 -57 42 -95 102 -95s102 38 102 95v158c0 61 -41 99 -102 99s-102 -38 -102 -99v-158z" />
    <glyph glyph-name="one.sups" unicode="&#xb9;" horiz-adv-x="196" 
d="M130 410h-11c-3 0 -6 2 -6 6v357l-76 -53c-3 -3 -7 -2 -9 1l-6 8c-1 2 0 6 3 8l84 59c2 2 3 2 7 2h14c4 0 7 -2 7 -6v-376c0 -4 -3 -6 -7 -6z" />
    <glyph glyph-name="two.sups" unicode="&#xb2;" horiz-adv-x="308" 
d="M268 410h-231c-3 0 -6 2 -6 6v8c0 3 0 6 3 9l84 88c77 82 123 132 123 189c0 42 -32 70 -88 70c-45 0 -76 -25 -99 -50c-3 -3 -6 -3 -9 0l-6 7c-2 4 -2 6 0 10c25 28 63 56 115 56c75 0 111 -45 111 -92c0 -65 -49 -121 -130 -205l-69 -73h202c4 0 6 -2 6 -6v-11
c0 -4 -2 -6 -6 -6z" />
    <glyph glyph-name="three.sups" unicode="&#xb3;" horiz-adv-x="312" 
d="M275 529c0 -67 -51 -124 -120 -124c-52 0 -93 23 -125 62c-2 3 -2 6 0 8l7 7c4 3 6 3 9 0c31 -37 66 -54 108 -54c59 0 98 47 98 103c0 48 -31 90 -98 90c-15 0 -28 -1 -38 -2c-4 0 -6 0 -7 3l-3 6c-1 3 0 6 2 9l125 139h-182c-4 0 -6 2 -6 6v10c0 4 2 6 6 6h213
c3 0 5 -2 5 -5v-6c0 -3 -2 -5 -4 -7l-126 -141c9 1 16 1 24 1c68 0 112 -47 112 -111z" />
    <glyph glyph-name="four.sups" unicode="&#x2074;" horiz-adv-x="306" 
d="M234 410h-11c-4 0 -6 2 -6 6v93h-187c-4 0 -6 3 -6 7v5c0 3 1 5 2 8l150 265c1 3 5 4 7 4h11c5 0 8 -3 5 -8l-146 -258h164v93c0 4 2 7 6 7h11c4 0 6 -3 6 -7v-93h35c4 0 6 -2 6 -6v-10c0 -4 -2 -7 -6 -7h-35v-93c0 -4 -2 -6 -6 -6z" />
    <glyph glyph-name="five.sups" unicode="&#x2075;" horiz-adv-x="325" 
d="M288 539c0 -85 -48 -134 -122 -134c-57 0 -91 21 -121 63c-2 4 -1 7 3 9l6 6c3 3 7 1 9 -2c26 -36 55 -53 102 -53c64 0 99 41 100 111c0 72 -39 105 -98 105c-42 0 -69 -17 -95 -47c-3 -2 -6 -3 -9 -2l-12 3c-3 1 -5 3 -5 7l6 187c0 4 3 6 7 6h207c3 0 6 -2 6 -6v-11
c0 -3 -3 -6 -6 -6h-193l-4 -154c26 30 60 45 100 45c68 0 119 -41 119 -127z" />
    <glyph glyph-name="six.sups" unicode="&#x2076;" horiz-adv-x="329" 
d="M292 536c0 -81 -47 -131 -119 -131c-74 0 -126 49 -126 131v151c0 72 49 116 121 116c45 0 77 -19 105 -41c3 -3 3 -5 0 -9l-6 -7c-2 -3 -6 -3 -8 -1c-25 20 -52 35 -90 35c-62 0 -99 -35 -99 -93v-85c16 32 56 56 103 56c70 0 119 -43 119 -122zM70 536
c0 -69 43 -108 103 -108c59 0 96 41 96 108c0 66 -37 100 -97 100s-102 -39 -102 -100z" />
    <glyph glyph-name="seven.sups" unicode="&#x2077;" horiz-adv-x="288" 
d="M84 410h-14c-4 0 -5 4 -4 7l172 358h-209c-3 0 -6 2 -6 6v11c0 4 3 6 6 6h232c4 0 6 -2 6 -6v-6c0 -2 0 -4 -1 -7l-176 -365c-1 -3 -3 -4 -6 -4z" />
    <glyph glyph-name="eight.sups" unicode="&#x2078;" horiz-adv-x="339" 
d="M298 518c0 -63 -53 -113 -129 -113s-129 50 -129 113c0 43 27 83 79 96c-47 14 -69 49 -69 91c0 57 49 98 119 98c71 0 120 -41 120 -98c0 -42 -23 -77 -70 -91c53 -13 79 -53 79 -96zM73 705c0 -44 31 -80 96 -80c66 0 96 36 96 80c0 48 -44 75 -96 75
c-51 0 -96 -27 -96 -75zM64 519c0 -49 41 -91 105 -91c65 0 106 42 106 91c0 47 -41 83 -106 83c-64 0 -105 -36 -105 -83z" />
    <glyph glyph-name="nine.sups" unicode="&#x2079;" horiz-adv-x="331" 
d="M39 678c0 76 47 125 119 125c75 0 126 -48 126 -128v-154c0 -72 -48 -116 -121 -116c-48 0 -86 26 -114 57c-2 3 -2 6 0 9l7 8c2 3 6 3 9 0c24 -29 57 -51 98 -51c62 0 98 35 98 93v89c-15 -34 -56 -60 -103 -60c-70 0 -119 45 -119 128zM261 675c0 67 -42 105 -102 105
s-96 -39 -96 -102c0 -69 37 -106 96 -106c61 0 102 41 102 103z" />
    <glyph glyph-name="fraction" unicode="&#x2044;" horiz-adv-x="166" 
d="M384 707l-576 -703c-1 -3 -4 -4 -7 -4h-14c-5 0 -6 4 -4 8l576 703c1 3 5 4 8 4h13c5 0 7 -4 4 -8z" />
    <glyph glyph-name="onehalf" unicode="&#xbd;" horiz-adv-x="838" 
d="M144 326h-11c-3 0 -6 3 -6 6v357l-76 -53c-3 -3 -7 -2 -9 1l-6 8c-1 3 0 6 3 9l84 58c2 2 3 2 7 2h14c4 0 7 -2 7 -6v-376c0 -3 -3 -6 -7 -6zM671 707l-576 -703c-1 -3 -4 -4 -7 -4h-14c-5 0 -6 4 -4 8l576 703c1 3 5 4 8 4h13c5 0 7 -4 4 -8zM788 0h-231c-3 0 -6 2 -6 6
v8c0 3 0 6 3 9l84 88c77 82 123 132 123 189c0 42 -32 70 -88 70c-45 0 -76 -25 -99 -50c-3 -3 -6 -3 -9 0l-6 7c-2 4 -2 6 0 10c25 28 63 56 115 56c75 0 111 -45 111 -92c0 -65 -49 -121 -130 -205l-69 -73h202c4 0 6 -2 6 -6v-11c0 -4 -2 -6 -6 -6z" />
    <glyph glyph-name="onethird" unicode="&#x2153;" horiz-adv-x="846" 
d="M145 326h-11c-3 0 -6 3 -6 6v357l-76 -53c-3 -3 -7 -2 -9 1l-6 8c-1 3 0 6 3 9l84 58c2 2 3 2 7 2h14c4 0 7 -2 7 -6v-376c0 -3 -3 -6 -7 -6zM673 707l-576 -703c-1 -3 -4 -4 -7 -4h-14c-5 0 -6 4 -4 8l576 703c1 3 5 4 8 4h13c5 0 7 -4 4 -8zM793 119
c0 -67 -51 -124 -120 -124c-52 0 -93 23 -125 62c-2 3 -2 6 0 8l7 7c4 3 6 3 9 0c31 -37 66 -54 108 -54c59 0 98 47 98 103c0 48 -31 90 -98 90c-15 0 -28 -1 -38 -2c-4 0 -6 0 -7 3l-3 6c-1 3 0 6 2 9l125 139h-182c-4 0 -6 2 -6 6v10c0 4 2 6 6 6h213c3 0 5 -2 5 -5v-6
c0 -3 -2 -5 -4 -7l-126 -141c9 1 16 1 24 1c68 0 112 -47 112 -111z" />
    <glyph glyph-name="twothirds" unicode="&#x2154;" horiz-adv-x="899" 
d="M288 327h-231c-3 0 -6 2 -6 6v8c0 3 0 6 3 9l84 88c77 82 123 132 123 189c0 42 -32 70 -88 70c-45 0 -76 -25 -99 -50c-3 -3 -6 -3 -9 0l-6 7c-2 4 -2 6 0 10c25 28 63 56 115 56c75 0 111 -45 111 -92c0 -65 -49 -121 -130 -205l-69 -73h202c4 0 6 -2 6 -6v-11
c0 -4 -2 -6 -6 -6zM750 707l-576 -703c-1 -3 -4 -4 -7 -4h-14c-5 0 -6 4 -4 8l576 703c1 3 5 4 8 4h13c5 0 7 -4 4 -8zM845 119c0 -67 -51 -124 -120 -124c-52 0 -93 23 -125 62c-2 3 -2 6 0 8l7 7c4 3 6 3 9 0c31 -37 66 -54 108 -54c59 0 98 47 98 103c0 48 -31 90 -98 90
c-15 0 -28 -1 -38 -2c-4 0 -6 0 -7 3l-3 6c-1 3 0 6 2 9l125 139h-182c-4 0 -6 2 -6 6v10c0 4 2 6 6 6h213c3 0 5 -2 5 -5v-6c0 -3 -2 -5 -4 -7l-126 -141c9 1 16 1 24 1c68 0 112 -47 112 -111z" />
    <glyph glyph-name="onequarter" unicode="&#xbc;" horiz-adv-x="788" 
d="M148 326h-11c-3 0 -6 3 -6 6v357l-76 -53c-3 -3 -7 -2 -9 1l-6 8c-1 3 0 6 3 9l84 58c2 2 3 2 7 2h14c4 0 7 -2 7 -6v-376c0 -3 -3 -6 -7 -6zM659 707l-576 -703c-1 -3 -4 -4 -7 -4h-14c-5 0 -6 4 -4 8l576 703c1 3 5 4 8 4h13c5 0 7 -4 4 -8zM708 0h-11c-4 0 -6 2 -6 6
v93h-187c-4 0 -6 3 -6 7v5c0 3 1 5 2 8l150 265c1 3 5 4 7 4h11c5 0 8 -3 5 -8l-146 -258h164v93c0 4 2 7 6 7h11c4 0 6 -3 6 -7v-93h35c4 0 6 -2 6 -6v-10c0 -4 -2 -7 -6 -7h-35v-93c0 -4 -2 -6 -6 -6z" />
    <glyph glyph-name="threequarters" unicode="&#xbe;" horiz-adv-x="862" 
d="M291 446c0 -67 -51 -124 -120 -124c-52 0 -93 23 -125 62c-2 3 -2 6 0 8l7 7c4 3 6 3 9 0c31 -37 66 -54 108 -54c59 0 98 47 98 103c0 48 -31 90 -98 90c-15 0 -28 -1 -38 -2c-4 0 -6 0 -7 3l-3 6c-1 3 0 6 2 9l125 139h-182c-4 0 -6 2 -6 6v10c0 4 2 6 6 6h213
c3 0 5 -2 5 -5v-6c0 -3 -2 -5 -4 -7l-126 -141c9 1 16 1 24 1c68 0 112 -47 112 -111zM737 707l-576 -703c-1 -3 -4 -4 -7 -4h-14c-5 0 -6 4 -4 8l576 703c1 3 5 4 8 4h13c5 0 7 -4 4 -8zM781 0h-11c-4 0 -6 2 -6 6v93h-187c-4 0 -6 3 -6 7v5c0 3 1 5 2 8l150 265
c1 3 5 4 7 4h11c5 0 8 -3 5 -8l-146 -258h164v93c0 4 2 7 6 7h11c4 0 6 -3 6 -7v-93h35c4 0 6 -2 6 -6v-10c0 -4 -2 -7 -6 -7h-35v-93c0 -4 -2 -6 -6 -6z" />
    <glyph glyph-name="oneeighth" unicode="&#x215b;" horiz-adv-x="859" 
d="M144 326h-11c-3 0 -6 3 -6 6v357l-76 -53c-3 -3 -7 -2 -9 1l-6 8c-1 3 0 6 3 9l84 58c2 2 3 2 7 2h14c4 0 7 -2 7 -6v-376c0 -3 -3 -6 -7 -6zM676 707l-576 -703c-1 -3 -4 -4 -7 -4h-14c-5 0 -6 4 -4 8l576 703c1 3 5 4 8 4h13c5 0 7 -4 4 -8zM812 108
c0 -63 -53 -113 -129 -113c-77 0 -129 50 -129 113c0 43 26 83 79 96c-48 14 -70 49 -70 91c0 57 49 98 120 98c70 0 119 -41 119 -98c0 -42 -22 -77 -69 -91c52 -13 79 -53 79 -96zM587 295c0 -44 30 -80 96 -80c65 0 96 36 96 80c0 48 -45 75 -96 75
c-52 0 -96 -27 -96 -75zM577 109c0 -49 41 -91 106 -91c64 0 105 42 105 91c0 47 -41 83 -105 83c-65 0 -106 -36 -106 -83z" />
    <glyph glyph-name="threeeighths" unicode="&#x215c;" horiz-adv-x="911" 
d="M291 446c0 -67 -51 -124 -120 -124c-52 0 -93 23 -125 62c-2 3 -2 6 0 8l7 7c4 3 6 3 9 0c31 -37 66 -54 108 -54c59 0 98 47 98 103c0 48 -31 90 -98 90c-15 0 -28 -1 -38 -2c-4 0 -6 0 -7 3l-3 6c-1 3 0 6 2 9l125 139h-182c-4 0 -6 2 -6 6v10c0 4 2 6 6 6h213
c3 0 5 -2 5 -5v-6c0 -3 -2 -5 -4 -7l-126 -141c9 1 16 1 24 1c68 0 112 -47 112 -111zM740 707l-576 -703c-1 -3 -4 -4 -7 -4h-14c-5 0 -6 4 -4 8l576 703c1 3 5 4 8 4h13c5 0 7 -4 4 -8zM864 108c0 -63 -53 -113 -129 -113c-77 0 -129 50 -129 113c0 43 26 83 79 96
c-48 14 -70 49 -70 91c0 57 49 98 120 98c70 0 119 -41 119 -98c0 -42 -22 -77 -69 -91c52 -13 79 -53 79 -96zM639 295c0 -44 30 -80 96 -80c65 0 96 36 96 80c0 48 -45 75 -96 75c-52 0 -96 -27 -96 -75zM629 109c0 -49 41 -91 106 -91c64 0 105 42 105 91
c0 47 -41 83 -105 83c-65 0 -106 -36 -106 -83z" />
    <glyph glyph-name="fiveeighths" unicode="&#x215d;" horiz-adv-x="889" 
d="M301 456c0 -85 -48 -134 -122 -134c-57 0 -91 21 -121 63c-2 4 -1 7 3 9l6 6c3 3 7 1 9 -2c26 -36 55 -53 102 -53c64 0 99 41 100 111c0 72 -39 105 -98 105c-42 0 -69 -17 -95 -47c-3 -2 -6 -3 -9 -2l-12 3c-3 1 -5 3 -5 7l6 187c0 4 3 6 7 6h207c3 0 6 -2 6 -6v-11
c0 -3 -3 -6 -6 -6h-193l-4 -154c26 30 60 45 100 45c68 0 119 -41 119 -127zM732 707l-576 -703c-1 -3 -4 -4 -7 -4h-14c-5 0 -6 4 -4 8l576 703c1 3 5 4 8 4h13c5 0 7 -4 4 -8zM841 108c0 -63 -53 -113 -129 -113c-77 0 -129 50 -129 113c0 43 26 83 79 96
c-48 14 -70 49 -70 91c0 57 49 98 120 98c70 0 119 -41 119 -98c0 -42 -22 -77 -69 -91c52 -13 79 -53 79 -96zM616 295c0 -44 30 -80 96 -80c65 0 96 36 96 80c0 48 -45 75 -96 75c-52 0 -96 -27 -96 -75zM606 109c0 -49 41 -91 106 -91c64 0 105 42 105 91
c0 47 -41 83 -105 83c-65 0 -106 -36 -106 -83z" />
    <glyph glyph-name="seveneighths" unicode="&#x215e;" horiz-adv-x="829" 
d="M107 327h-14c-4 0 -5 4 -4 7l172 358h-209c-4 0 -6 2 -6 6v11c0 4 2 6 6 6h232c4 0 6 -2 6 -6v-6c0 -2 0 -4 -1 -7l-176 -365c-1 -3 -4 -4 -6 -4zM658 707l-576 -703c-1 -3 -4 -4 -7 -4h-14c-5 0 -6 4 -4 8l576 703c1 3 5 4 8 4h13c5 0 7 -4 4 -8zM782 108
c0 -63 -53 -113 -129 -113c-77 0 -129 50 -129 113c0 43 26 83 79 96c-48 14 -70 49 -70 91c0 57 49 98 120 98c70 0 119 -41 119 -98c0 -42 -22 -77 -69 -91c52 -13 79 -53 79 -96zM557 295c0 -44 30 -80 96 -80c65 0 96 36 96 80c0 48 -45 75 -96 75
c-52 0 -96 -27 -96 -75zM547 109c0 -49 41 -91 106 -91c64 0 105 42 105 91c0 47 -41 83 -105 83c-65 0 -106 -36 -106 -83z" />
    <glyph glyph-name="asterisk" unicode="*" horiz-adv-x="459" 
d="M130 380l-14 10c-3 2 -4 6 -2 9l91 126l-147 47c-4 1 -6 5 -5 9l6 16c1 4 5 6 8 5l148 -48v155c0 4 2 6 6 6h17c4 0 7 -2 7 -6v-156l147 48c4 1 7 0 9 -4l5 -15c1 -4 -1 -8 -4 -9l-148 -47l91 -126c3 -3 2 -6 -1 -9l-14 -11c-2 -2 -6 -1 -8 2l-92 125l-91 -125
c-3 -3 -6 -3 -9 -2z" />
    <glyph glyph-name="backslash" unicode="\" horiz-adv-x="396" 
d="M335 5l-306 703c-1 3 0 7 4 7h20c3 0 6 -2 7 -5l307 -703c1 -3 0 -7 -4 -7h-21c-3 0 -6 2 -7 5z" />
    <glyph glyph-name="periodcentered" unicode="&#xb7;" horiz-adv-x="194" 
d="M124 309c0 -16 -11 -27 -27 -27s-27 11 -27 27s11 27 27 27s27 -11 27 -27z" />
    <glyph glyph-name="bullet" unicode="&#x2022;" horiz-adv-x="288" 
d="M144 266c-28 0 -46 18 -46 46s18 46 46 46s46 -18 46 -46s-18 -46 -46 -46z" />
    <glyph glyph-name="colon" unicode=":" horiz-adv-x="199" 
d="M126 477c0 -16 -10 -27 -26 -27s-27 11 -27 27s11 27 27 27s26 -11 26 -27zM126 24c0 -16 -10 -26 -26 -26s-27 10 -27 26c0 17 11 27 27 27s26 -10 26 -27z" />
    <glyph glyph-name="comma" unicode="," horiz-adv-x="178" 
d="M112 64l-53 -166c-1 -3 -3 -5 -7 -5h-15c-4 0 -7 2 -6 7l45 167c1 2 3 5 7 5h24c4 0 6 -3 5 -8z" />
    <glyph glyph-name="ellipsis" unicode="&#x2026;" horiz-adv-x="518" 
d="M110 25c0 -16 -10 -27 -26 -27s-27 11 -27 27s11 27 27 27s26 -11 26 -27zM286 25c0 -16 -11 -27 -27 -27s-27 11 -27 27s11 27 27 27s27 -11 27 -27zM461 25c0 -16 -11 -27 -27 -27s-27 11 -27 27s11 27 27 27s27 -11 27 -27z" />
    <glyph glyph-name="exclam" unicode="!" horiz-adv-x="213" 
d="M116 148h-18c-4 0 -7 2 -7 6l-1 396v159c0 4 3 6 6 6h21c4 0 6 -2 6 -6v-159l-1 -396c0 -4 -2 -6 -6 -6zM134 24c0 -16 -11 -27 -27 -27s-27 11 -27 27s11 28 27 28s27 -12 27 -28z" />
    <glyph glyph-name="exclamdown" unicode="&#xa1;" horiz-adv-x="201" 
d="M91 374h18c4 0 7 -2 7 -6l1 -396v-159c0 -4 -3 -6 -6 -6h-21c-4 0 -6 2 -6 6v159l1 396c0 4 2 6 6 6zM73 498c0 16 11 27 27 27s27 -11 27 -27s-11 -28 -27 -28s-27 12 -27 28z" />
    <glyph glyph-name="numbersign" unicode="#" horiz-adv-x="693" 
d="M146 0h-18c-4 0 -6 3 -5 7l62 218h-143c-4 0 -7 2 -6 7l5 15c1 3 3 6 6 6h145l60 214h-143c-4 0 -7 2 -5 7l4 16c1 2 3 5 7 5h145l61 215c1 3 2 5 6 5h18c4 0 6 -3 5 -7l-60 -213h192l61 215c1 3 2 5 6 5h18c4 0 6 -3 5 -7l-60 -213h139c4 0 7 -3 6 -8l-5 -15
c-1 -3 -3 -5 -6 -5h-142l-60 -214h140c4 0 7 -3 5 -8l-4 -15c-2 -3 -3 -5 -7 -5h-141l-63 -220c-1 -3 -2 -5 -6 -5h-18c-4 0 -6 3 -5 7l62 218h-192l-63 -220c-1 -3 -2 -5 -6 -5zM282 467l-60 -214h192l60 214h-192z" />
    <glyph glyph-name="period" unicode="." horiz-adv-x="168" 
d="M111 25c0 -16 -11 -27 -27 -27s-27 11 -27 27s11 27 27 27s27 -11 27 -27z" />
    <glyph glyph-name="question" unicode="?" horiz-adv-x="447" 
d="M215 148h-19c-4 0 -7 2 -7 6v67c0 159 183 159 183 317c0 79 -43 158 -156 158c-74 0 -126 -34 -167 -77c-2 -3 -6 -4 -8 1l-11 14c-2 3 -2 6 1 8c40 45 100 83 185 83c121 0 188 -78 188 -187c0 -174 -183 -171 -183 -320v-64c0 -4 -2 -6 -6 -6zM232 25
c0 -16 -11 -27 -27 -27s-26 11 -26 27s10 27 26 27s27 -11 27 -27z" />
    <glyph glyph-name="questiondown" unicode="&#xbf;" horiz-adv-x="441" 
d="M229 375h19c4 0 7 -2 7 -6v-67c0 -159 -183 -159 -183 -317c0 -79 43 -158 156 -158c74 0 126 34 167 77c2 3 6 4 8 -1l11 -14c2 -3 2 -6 -1 -8c-40 -45 -100 -83 -185 -83c-121 0 -188 78 -188 187c0 174 183 171 183 320v64c0 4 2 6 6 6zM212 498c0 16 11 27 27 27
s26 -11 26 -27s-10 -27 -26 -27s-27 11 -27 27z" />
    <glyph glyph-name="quotedbl" unicode="&#x22;" horiz-adv-x="262" 
d="M109 709l-20 -176c0 -3 -4 -6 -7 -6h-14c-3 0 -6 2 -6 7l13 175c0 4 2 6 6 6h23c3 0 5 -2 5 -6zM207 709l-20 -176c0 -3 -4 -6 -8 -6h-13c-4 0 -6 2 -6 7l12 175c0 4 3 6 7 6h22c4 0 6 -2 6 -6z" />
    <glyph glyph-name="quotesingle" unicode="'" horiz-adv-x="163" 
d="M108 709l-20 -176c0 -3 -3 -6 -7 -6h-13c-4 0 -6 2 -6 7l12 175c0 4 2 6 6 6h23c4 0 5 -2 5 -6z" />
    <glyph glyph-name="semicolon" unicode=";" horiz-adv-x="229" 
d="M80 -107h-15c-4 0 -7 2 -6 7l45 168c1 3 3 5 6 5h25c4 0 6 -3 5 -7l-53 -168c-1 -3 -3 -5 -7 -5zM150 477c0 -16 -11 -27 -27 -27s-27 11 -27 27s11 27 27 27s27 -11 27 -27z" />
    <glyph glyph-name="slash" unicode="/" horiz-adv-x="396" 
d="M367 708l-306 -703c-1 -3 -4 -5 -7 -5h-21c-4 0 -5 4 -4 7l307 703c1 3 4 5 7 5h20c4 0 5 -4 4 -7z" />
    <glyph glyph-name="underscore" unicode="_" horiz-adv-x="554" 
d="M528 -17v-17c0 -4 -2 -6 -6 -6h-490c-4 0 -6 2 -6 6v17c0 4 2 7 6 7h490c4 0 6 -3 6 -7z" />
    <glyph glyph-name="braceleft" unicode="{" horiz-adv-x="246" 
d="M207 -117h-6c-69 1 -97 35 -97 111v239c0 72 -15 97 -58 106c-4 1 -5 3 -5 7v20c0 4 1 6 5 7c43 9 58 34 58 106v239c0 75 29 110 95 111h8c3 0 6 -2 6 -6v-18c0 -3 -2 -6 -6 -6h-6c-48 -1 -66 -27 -66 -82v-241c0 -70 -21 -112 -66 -120c45 -8 66 -50 66 -120v-241
c0 -60 20 -81 67 -82h5c4 0 6 -3 6 -6v-18c0 -4 -2 -6 -6 -6z" />
    <glyph glyph-name="braceright" unicode="}" horiz-adv-x="246" 
d="M45 -117h-6c-4 0 -6 2 -6 6v18c0 3 2 6 6 6h5c47 1 67 22 67 82v241c0 70 21 112 66 120c-45 8 -66 50 -66 120v241c0 55 -18 81 -66 82h-6c-4 0 -6 3 -6 6v18c0 4 3 6 6 6h8c66 -1 95 -36 95 -111v-239c0 -72 15 -97 58 -106c4 -1 5 -3 5 -7v-20c0 -4 -1 -6 -5 -7
c-43 -9 -58 -34 -58 -106v-239c0 -76 -28 -110 -97 -111z" />
    <glyph glyph-name="bracketleft" unicode="[" horiz-adv-x="248" 
d="M123 798v-885h89c3 0 6 -3 6 -6v-18c0 -4 -3 -6 -6 -6h-114c-4 0 -7 2 -7 6v933c0 4 3 6 7 6h114c3 0 6 -2 6 -6v-18c0 -3 -3 -6 -6 -6h-89z" />
    <glyph glyph-name="bracketright" unicode="]" horiz-adv-x="248" 
d="M125 -87v885h-89c-3 0 -6 3 -6 6v18c0 4 3 6 6 6h114c4 0 7 -2 7 -6v-933c0 -4 -3 -6 -7 -6h-114c-3 0 -6 2 -6 6v18c0 3 3 6 6 6h89z" />
    <glyph glyph-name="parenleft" unicode="(" horiz-adv-x="252" 
d="M223 -117h-21c-3 0 -7 1 -8 4c-88 144 -138 293 -138 469c0 175 50 325 138 468c1 3 5 4 8 4h21c5 0 6 -4 4 -8c-88 -138 -139 -296 -139 -464s51 -327 139 -465c2 -4 1 -8 -4 -8z" />
    <glyph glyph-name="parenright" unicode=")" horiz-adv-x="251" 
d="M48 -117h-21c-5 0 -6 4 -4 8c88 138 139 297 139 465s-51 326 -139 464c-2 4 -1 8 4 8h21c3 0 7 -1 8 -4c88 -143 138 -293 138 -468c0 -176 -50 -325 -138 -469c-1 -3 -5 -4 -8 -4z" />
    <glyph glyph-name="emdash" unicode="&#x2014;" horiz-adv-x="925" 
d="M855 316v-18c0 -4 -3 -6 -7 -6h-771c-4 0 -7 2 -7 6v18c0 4 3 6 7 6h771c4 0 7 -2 7 -6z" />
    <glyph glyph-name="endash" unicode="&#x2013;" horiz-adv-x="577" 
d="M507 316v-18c0 -4 -3 -6 -6 -6h-425c-3 0 -6 2 -6 6v18c0 4 3 6 6 6h425c3 0 6 -2 6 -6z" />
    <glyph glyph-name="hyphen" unicode="-" horiz-adv-x="400" 
d="M324 292h-248c-4 0 -6 2 -6 6v18c0 4 2 6 6 6h248c4 0 6 -2 6 -6v-18c0 -4 -2 -6 -6 -6z" />
    <glyph glyph-name="guillemotleft" unicode="&#xab;" horiz-adv-x="473" 
d="M214 71h-23c-2 0 -6 1 -7 4l-144 212c-1 3 -1 5 0 8l144 212c1 3 5 4 7 4h23c4 0 6 -4 3 -8l-144 -212l144 -212c3 -4 1 -8 -3 -8zM420 71h-23c-2 0 -6 1 -7 4l-144 212c-1 3 -1 5 0 8l144 212c1 3 5 4 7 4h23c4 0 6 -4 3 -8l-144 -212l144 -212c3 -4 1 -8 -3 -8z" />
    <glyph glyph-name="guillemotright" unicode="&#xbb;" horiz-adv-x="473" 
d="M76 71h-23c-4 0 -6 4 -3 8l144 212l-144 212c-3 4 -1 8 3 8h23c2 0 6 -1 7 -4l144 -212c1 -3 1 -5 0 -8l-144 -212c-1 -3 -5 -4 -7 -4zM282 71h-23c-4 0 -6 4 -3 8l144 212l-144 212c-3 4 -1 8 3 8h23c2 0 6 -1 7 -4l144 -212c1 -3 1 -5 0 -8l-144 -212
c-1 -3 -5 -4 -7 -4z" />
    <glyph glyph-name="guilsinglleft" unicode="&#x2039;" horiz-adv-x="267" 
d="M214 71h-23c-2 0 -6 1 -7 4l-144 212c-1 3 -1 5 0 8l144 212c1 3 5 4 7 4h23c4 0 6 -4 3 -8l-144 -212l144 -212c3 -4 1 -8 -3 -8z" />
    <glyph glyph-name="guilsinglright" unicode="&#x203a;" horiz-adv-x="267" 
d="M76 71h-23c-4 0 -6 4 -3 8l144 212l-144 212c-3 4 -1 8 3 8h23c2 0 6 -1 7 -4l144 -212c1 -3 1 -5 0 -8l-144 -212c-1 -3 -5 -4 -7 -4z" />
    <glyph glyph-name="quotedblbase" unicode="&#x201e;" horiz-adv-x="279" 
d="M52 -106h-15c-4 0 -8 2 -6 7l45 166c1 3 2 6 6 6h24c4 0 7 -3 5 -8l-53 -166c-1 -3 -2 -5 -6 -5zM154 -106h-15c-4 0 -8 2 -6 7l44 166c2 3 3 6 7 6h24c4 0 7 -3 5 -8l-53 -166c-1 -3 -3 -5 -6 -5z" />
    <glyph glyph-name="quotedblleft" unicode="&#x201c;" horiz-adv-x="282" 
d="M84 536h-25c-4 0 -6 3 -5 7l54 167c1 3 3 5 7 5h15c4 0 7 -3 6 -7l-46 -167c-1 -3 -2 -5 -6 -5zM186 536h-25c-4 0 -6 3 -5 7l54 167c1 3 3 5 7 5h15c4 0 7 -3 6 -7l-46 -167c-1 -3 -3 -5 -6 -5z" />
    <glyph glyph-name="quotedblright" unicode="&#x201d;" horiz-adv-x="278" 
d="M76 536h-15c-4 0 -8 2 -6 7l44 167c2 3 3 5 7 5h24c4 0 7 -3 5 -7l-53 -167c-1 -3 -3 -5 -6 -5zM178 536h-16c-4 0 -7 2 -6 7l45 167c1 3 3 5 7 5h24c4 0 6 -3 5 -7l-53 -167c-1 -3 -3 -5 -6 -5z" />
    <glyph glyph-name="quoteleft" unicode="&#x2018;" horiz-adv-x="179" 
d="M53 543l54 167c1 3 2 5 6 5h15c4 0 7 -3 6 -7l-45 -167c-2 -3 -3 -5 -7 -5h-24c-4 0 -7 3 -5 7z" />
    <glyph glyph-name="quoteright" unicode="&#x2019;" horiz-adv-x="176" 
d="M135 708l-53 -167c-1 -3 -3 -5 -6 -5h-15c-4 0 -8 3 -6 7l44 167c2 3 3 5 7 5h24c4 0 7 -3 5 -7z" />
    <glyph glyph-name="quotesinglbase" unicode="&#x201a;" horiz-adv-x="178" 
d="M112 64l-53 -166c-1 -3 -3 -5 -7 -5h-15c-4 0 -7 2 -6 7l45 167c1 2 3 5 7 5h24c4 0 6 -3 5 -8z" />
    <glyph glyph-name="space" unicode=" " horiz-adv-x="237" 
 />
    <glyph glyph-name="cent" unicode="&#xa2;" horiz-adv-x="500" 
d="M433 75l10 -14c2 -3 2 -7 -2 -9c-48 -39 -100 -60 -162 -62v-63c0 -4 -2 -6 -6 -6h-14c-4 0 -6 2 -6 6v63c-116 6 -185 86 -185 185v164c0 99 69 178 185 184v71c0 4 2 6 6 6h14c4 0 6 -2 6 -6v-70c56 -2 103 -20 148 -53c4 -3 4 -6 2 -9l-9 -15c-3 -2 -5 -3 -9 -1
c-46 34 -91 48 -145 48c-107 0 -166 -70 -166 -155v-164c0 -86 60 -156 166 -156c58 0 108 19 158 57c4 3 7 2 9 -1z" />
    <glyph glyph-name="currency" unicode="&#xa4;" horiz-adv-x="637" 
d="M481 161c-42 -36 -97 -57 -162 -57c-66 0 -121 21 -163 57l-49 -49c-2 -3 -7 -3 -10 0l-11 11c-2 3 -2 7 0 10l49 49c-36 41 -56 97 -56 163c0 64 20 120 56 161l-49 50c-3 3 -2 7 0 9l11 11c3 3 8 3 10 0l49 -49c42 36 98 58 163 58s120 -21 162 -58l49 49c3 3 7 3 10 0
l11 -11c2 -2 2 -7 0 -9l-49 -50c36 -41 57 -97 57 -161c0 -65 -21 -121 -57 -163l49 -49c2 -3 3 -6 0 -10l-11 -11c-3 -3 -7 -4 -10 0zM108 345c0 -128 88 -212 211 -212c122 0 211 87 210 212c-1 122 -90 211 -210 211c-124 0 -211 -88 -211 -211z" />
    <glyph glyph-name="dollar" unicode="$" horiz-adv-x="577" 
d="M287 377c115 -28 238 -60 238 -198c0 -117 -88 -184 -221 -189v-80c0 -4 -3 -7 -7 -7h-17c-4 0 -6 3 -6 7v80c-81 3 -147 35 -216 98c-4 2 -4 6 -1 8l10 15c3 3 5 4 9 1c71 -62 135 -92 216 -92c116 0 201 55 201 158c0 121 -117 145 -217 169c-121 29 -222 68 -222 196
c0 117 97 178 220 182v74c0 4 2 7 6 7h17c4 0 7 -3 7 -7v-74c77 -4 133 -29 200 -83c3 -2 3 -5 1 -8l-10 -15c-3 -3 -5 -3 -9 -1c-67 54 -129 76 -204 77c-111 0 -196 -54 -196 -152c0 -106 84 -138 201 -166z" />
    <glyph glyph-name="Euro" unicode="&#x20ac;" horiz-adv-x="635" 
d="M344 21c79 0 156 26 217 76c3 3 6 2 8 -1l11 -15c3 -3 3 -6 -1 -8c-66 -58 -150 -83 -233 -83c-154 0 -241 97 -242 237v50h-50c-3 0 -6 3 -6 7v15c0 3 3 6 6 6h50v109h-50c-3 0 -6 2 -6 6v15c0 4 3 6 6 6h50v47c0 140 88 237 239 237c79 0 160 -24 227 -74
c4 -2 3 -6 1 -9l-10 -15c-2 -3 -5 -4 -9 -1c-60 45 -135 68 -210 68c-136 0 -205 -87 -205 -206v-47h308c4 0 6 -2 6 -6v-15c0 -4 -2 -6 -6 -6h-308v-109h308c4 0 6 -3 6 -6v-15c0 -4 -2 -7 -6 -7h-308v-50c1 -120 70 -206 207 -206z" />
    <glyph glyph-name="florin" unicode="&#x192;" horiz-adv-x="428" 
d="M147 3c-11 -54 -33 -131 -107 -131c-17 0 -40 3 -62 12c-4 1 -5 5 -4 8l4 15c2 4 5 5 9 4c16 -7 35 -10 50 -10c45 0 65 34 79 112l62 332h-96c-4 0 -6 2 -6 6v17c0 4 2 7 6 7h102l39 210c16 84 41 140 121 140c23 0 45 -5 64 -11c4 -1 5 -4 4 -8l-4 -15
c-1 -5 -3 -5 -7 -4c-15 5 -35 10 -56 10c-57 0 -76 -39 -91 -120l-38 -202h110c4 0 6 -3 6 -7v-17c0 -4 -2 -6 -6 -6h-115z" />
    <glyph glyph-name="uni20BD" unicode="&#x20bd;" horiz-adv-x="623" 
d="M581 496c0 -137 -86 -216 -242 -216h-186v-99h189c4 0 6 -2 6 -6v-15c0 -4 -2 -7 -6 -7h-189v-147c0 -4 -3 -6 -6 -6h-20c-4 0 -6 2 -6 6v147h-76c-4 0 -7 3 -7 7v15c0 4 3 6 7 6h76v528c0 4 2 6 6 6h212c156 0 242 -83 242 -219zM549 497c0 121 -73 188 -213 188h-183
v-375h183c140 0 213 66 213 187z" />
    <glyph glyph-name="sterling" unicode="&#xa3;" horiz-adv-x="543" 
d="M483 0h-426c-4 0 -6 2 -6 6v17c0 3 2 6 6 6c46 3 68 40 68 107v233h-68c-4 0 -6 3 -6 6v17c0 4 2 6 6 6h68v151c0 97 64 176 182 176c68 0 129 -25 171 -60c3 -3 3 -6 1 -9l-9 -13c-3 -3 -5 -4 -9 -1c-45 32 -98 54 -155 54c-101 0 -151 -67 -151 -147v-151h231
c4 0 6 -2 6 -6v-17c0 -3 -2 -6 -6 -6h-231v-233c0 -51 -11 -90 -41 -107h369c4 0 7 -3 7 -6v-17c0 -4 -3 -6 -7 -6z" />
    <glyph glyph-name="yen" unicode="&#xa5;" horiz-adv-x="550" 
d="M495 715h23c5 0 7 -3 4 -8l-220 -404h123c4 0 7 -3 7 -7v-15c0 -3 -3 -6 -7 -6h-134v-85h134c4 0 7 -2 7 -6v-15c0 -4 -3 -6 -7 -6h-134v-157c0 -4 -2 -6 -6 -6h-20c-4 0 -6 2 -6 6v157h-133c-4 0 -6 2 -6 6v15c0 4 2 6 6 6h133v85h-133c-4 0 -6 3 -6 6v15c0 4 2 7 6 7
h122l-220 404c-2 5 0 8 5 8h23c3 0 6 -2 8 -5l211 -395l212 395c1 3 5 5 8 5z" />
    <glyph glyph-name="cent.tf" horiz-adv-x="550" 
d="M456 75l10 -14c2 -3 2 -7 -1 -9c-51 -40 -103 -61 -167 -62v-78c0 -4 -3 -6 -6 -6h-14c-4 0 -7 2 -7 6v78c-113 8 -179 88 -179 185v164c0 97 66 177 179 184v80c0 4 3 6 7 6h14c3 0 6 -2 6 -6v-79c58 -2 105 -19 153 -53c3 -3 3 -6 1 -9l-9 -15c-3 -2 -5 -3 -9 -1
c-46 34 -91 48 -144 48c-108 0 -166 -70 -166 -155v-164c0 -86 60 -156 165 -156c58 0 108 19 158 57c4 3 7 2 9 -1z" />
    <glyph glyph-name="currency.tf" horiz-adv-x="550" 
d="M430 169c-40 -35 -93 -55 -155 -55s-115 20 -155 55l-47 -47c-3 -3 -7 -3 -10 0l-10 10c-3 3 -3 7 0 10l47 47c-35 39 -55 93 -55 156c0 61 20 114 55 154l-47 47c-3 4 -4 6 0 10l10 10c3 3 6 4 10 0l47 -47c40 35 94 56 155 56c62 0 115 -20 155 -56l47 47c4 4 7 3 10 0
l10 -10c3 -3 4 -6 0 -10l-47 -47c35 -40 55 -93 55 -154c0 -62 -20 -116 -55 -156l47 -47c3 -3 3 -7 0 -10l-10 -10c-3 -3 -7 -3 -10 0zM74 345c0 -123 84 -202 201 -202s202 82 201 202c-1 117 -86 202 -201 202c-118 0 -201 -84 -201 -202z" />
    <glyph glyph-name="dollar.tf" horiz-adv-x="550" 
d="M273 377c115 -27 239 -60 239 -198c0 -119 -88 -185 -222 -190v-79c0 -4 -3 -7 -6 -7h-18c-3 0 -6 3 -6 7v79c-81 3 -158 44 -217 98c-4 2 -4 6 -1 8l10 14c3 3 5 4 9 1c60 -51 136 -91 217 -91c116 0 201 55 201 159c0 121 -117 145 -217 169c-121 29 -222 68 -222 196
c0 117 97 178 220 182v74c0 4 3 7 6 7h18c3 0 6 -3 6 -7v-74c77 -3 138 -35 200 -82c4 -3 4 -6 2 -9l-11 -14c-2 -3 -5 -4 -8 -2c-63 47 -130 77 -205 77c-111 0 -196 -54 -196 -152c0 -106 84 -138 201 -166z" />
    <glyph glyph-name="euro.tf" horiz-adv-x="550" 
d="M307 20c72 1 142 27 198 76c3 3 6 2 8 -1l11 -14c3 -4 3 -6 -1 -9c-61 -57 -138 -82 -215 -82c-149 0 -233 97 -233 237v49h-46c-4 0 -6 3 -6 7v16c0 3 2 6 6 6h46v103h-46c-4 0 -6 2 -6 6v16c0 4 2 6 6 6h46v52c0 140 84 237 231 237c71 0 143 -24 202 -74
c3 -2 3 -6 1 -8l-11 -15c-3 -2 -5 -3 -9 -1c-53 43 -118 67 -184 68c-132 0 -198 -87 -198 -207v-52h301c4 0 6 -2 6 -6v-16c0 -4 -2 -6 -6 -6h-301v-103h301c4 0 6 -3 6 -6v-16c0 -4 -2 -7 -6 -7h-301v-49c0 -120 67 -207 200 -207z" />
    <glyph glyph-name="florin.tf" horiz-adv-x="550" 
d="M209 4c-11 -53 -34 -131 -107 -131c-18 0 -42 4 -66 12c-4 1 -5 5 -4 9l5 15c1 4 4 5 8 4c18 -6 39 -11 55 -11c45 0 64 35 78 112l63 331h-97c-4 0 -7 3 -7 7v17c0 4 3 6 7 6h103l39 210c15 84 40 140 121 140c24 0 46 -5 65 -11c4 -1 5 -4 4 -8l-4 -15
c-1 -5 -3 -5 -7 -4c-16 4 -36 10 -58 10c-58 0 -77 -39 -92 -120l-37 -202h110c4 0 7 -2 7 -6v-17c0 -4 -3 -7 -7 -7h-115z" />
    <glyph glyph-name="ruble.tf" horiz-adv-x="550" 
d="M536 496c0 -137 -87 -216 -243 -216h-170v-99h171c4 0 6 -2 6 -6v-15c0 -4 -2 -7 -6 -7h-171v-147c0 -4 -3 -6 -6 -6h-20c-4 0 -6 2 -6 6v147h-74c-3 0 -6 3 -6 7v15c0 4 3 6 6 6h74v528c0 4 2 6 6 6h196c156 0 243 -83 243 -219zM503 497c0 121 -73 188 -214 188h-166
v-375h166c141 0 214 66 214 187z" />
    <glyph glyph-name="sterling.tf" horiz-adv-x="550" 
d="M488 0h-426c-4 0 -7 2 -7 6v17c0 3 3 6 7 6c45 3 68 40 68 107v233h-68c-4 0 -7 3 -7 6v17c0 4 3 6 7 6h67v151c0 97 64 176 183 176c67 0 128 -25 170 -60c4 -3 3 -6 2 -9l-10 -13c-2 -3 -5 -4 -8 -1c-46 32 -98 54 -155 54c-102 0 -151 -67 -151 -147v-151h230
c4 0 7 -2 7 -6v-17c0 -3 -3 -6 -7 -6h-230v-233c0 -51 -11 -90 -41 -107h369c4 0 6 -3 6 -6v-17c0 -4 -2 -6 -6 -6z" />
    <glyph glyph-name="yen.tf" horiz-adv-x="550" 
d="M494 715h23c5 0 7 -3 5 -8l-220 -404h123c4 0 6 -3 6 -7v-15c0 -3 -2 -6 -6 -6h-134v-85h134c4 0 6 -2 6 -6v-15c0 -4 -2 -6 -6 -6h-134v-157c0 -4 -3 -6 -7 -6h-19c-4 0 -6 2 -6 6v157h-133c-4 0 -6 2 -6 6v15c0 4 2 6 6 6h133v85h-133c-4 0 -6 3 -6 6v15c0 4 2 7 6 7
h122l-220 404c-3 5 0 8 5 8h23c3 0 6 -2 7 -5l212 -395l212 395c1 3 4 5 7 5z" />
    <glyph glyph-name="plus" unicode="+" 
d="M290 349h190c4 0 6 -3 6 -7v-18c0 -4 -2 -6 -6 -6h-190v-192c0 -4 -3 -7 -6 -7h-19c-4 0 -7 3 -7 7v192h-190c-4 0 -6 2 -6 6v18c0 4 2 7 6 7h190v191c0 4 3 6 7 6h19c3 0 6 -2 6 -6v-191z" />
    <glyph glyph-name="minus" unicode="&#x2212;" 
d="M480 318h-412c-4 0 -6 2 -6 6v18c0 4 2 7 6 7h412c4 0 6 -3 6 -7v-18c0 -4 -2 -6 -6 -6z" />
    <glyph glyph-name="multiply" unicode="&#xd7;" 
d="M275 311l-174 -175c-3 -2 -7 -2 -10 0l-12 13c-3 2 -3 7 0 9l174 175l-174 173c-4 4 -3 7 0 10l12 12c3 3 6 3 10 0l174 -174l174 174c2 2 7 2 9 0l12 -12c3 -3 3 -7 0 -10l-173 -173l173 -175c3 -2 3 -7 0 -9l-12 -13c-3 -3 -7 -2 -9 0z" />
    <glyph glyph-name="divide" unicode="&#xf7;" 
d="M480 318h-412c-4 0 -6 2 -6 6v19c0 3 2 6 6 6h412c4 0 6 -3 6 -6v-19c0 -4 -2 -6 -6 -6zM301 164c0 -16 -11 -27 -27 -27s-26 11 -26 27s10 27 26 27s27 -11 27 -27zM301 494c0 -16 -11 -27 -27 -27s-26 11 -26 27s10 27 26 27s27 -11 27 -27z" />
    <glyph glyph-name="equal" unicode="=" 
d="M480 406h-412c-4 0 -6 2 -6 6v19c0 4 2 6 6 6h412c4 0 6 -2 6 -6v-19c0 -4 -2 -6 -6 -6zM480 228h-412c-4 0 -6 2 -6 6v19c0 4 2 6 6 6h412c4 0 6 -2 6 -6v-19c0 -4 -2 -6 -6 -6z" />
    <glyph glyph-name="notequal" unicode="&#x2260;" 
d="M486 433v-18c0 -4 -2 -6 -6 -6h-131l-103 -147h234c4 0 6 -3 6 -7v-18c0 -4 -2 -6 -6 -6h-254l-60 -87c-1 -3 -5 -4 -8 -4h-21c-5 0 -7 4 -4 8l58 83h-123c-4 0 -6 2 -6 6v18c0 4 2 7 6 7h143l103 147h-246c-4 0 -6 2 -6 6v18c0 4 2 7 6 7h266l58 83c2 2 5 3 8 3h21
c5 0 6 -3 4 -7l-55 -79h110c4 0 6 -3 6 -7z" />
    <glyph glyph-name="greater" unicode="&#x3e;" 
d="M494 310l-411 -197c-4 -3 -8 1 -8 5v21c0 3 2 6 5 8l383 182l-383 183c-3 1 -5 4 -5 7v22c0 4 4 7 8 5l411 -198c3 -2 5 -5 5 -8v-22c0 -3 -2 -6 -5 -8z" />
    <glyph glyph-name="less" unicode="&#x3c;" 
d="M473 139v-21c0 -4 -4 -8 -8 -5l-411 197c-3 2 -5 5 -5 8v22c0 3 2 6 5 8l411 198c4 2 8 -1 8 -5v-22c0 -3 -2 -6 -5 -7l-383 -183l383 -182c3 -2 5 -5 5 -8z" />
    </font>
</defs>
</svg>
